<mxfile host="app.diagrams.net" modified="2024-06-28T01:06:17.260Z" agent="Mozilla/5.0 (Windows NT 10.0; Win64; x64) AppleWebKit/537.36 (KHTML, like Gecko) Chrome/126.0.0.0 Safari/537.36" etag="6Rco_q0DU8C2OPhIIE6T" version="24.6.3" type="google">
  <diagram name="Page-1" id="K2UqdnZE-L1EJGox9ldg">
    <mxGraphModel grid="1" page="1" gridSize="10" guides="1" tooltips="1" connect="1" arrows="1" fold="1" pageScale="1" pageWidth="1169" pageHeight="827" math="0" shadow="0">
      <root>
        <mxCell id="0" />
        <mxCell id="1" parent="0" />
        <mxCell id="-z9te3pbn1G7zqjihGLt-1" value="County" style="rounded=0;whiteSpace=wrap;html=1;" vertex="1" parent="1">
          <mxGeometry x="850" y="60" width="120" height="60" as="geometry" />
        </mxCell>
        <mxCell id="-z9te3pbn1G7zqjihGLt-2" value="Resources" style="rounded=0;whiteSpace=wrap;html=1;" vertex="1" parent="1">
          <mxGeometry x="850" y="360" width="120" height="60" as="geometry" />
        </mxCell>
        <mxCell id="-z9te3pbn1G7zqjihGLt-3" value="" style="endArrow=none;html=1;rounded=0;" edge="1" parent="1">
          <mxGeometry width="50" height="50" relative="1" as="geometry">
            <mxPoint x="910" y="200" as="sourcePoint" />
            <mxPoint x="910" y="120" as="targetPoint" />
          </mxGeometry>
        </mxCell>
        <mxCell id="-z9te3pbn1G7zqjihGLt-5" value="has" style="rhombus;whiteSpace=wrap;html=1;" vertex="1" parent="1">
          <mxGeometry x="870" y="200" width="80" height="80" as="geometry" />
        </mxCell>
        <mxCell id="-z9te3pbn1G7zqjihGLt-6" value="" style="endArrow=none;html=1;rounded=0;" edge="1" parent="1">
          <mxGeometry width="50" height="50" relative="1" as="geometry">
            <mxPoint x="909.44" y="360" as="sourcePoint" />
            <mxPoint x="909.44" y="280" as="targetPoint" />
          </mxGeometry>
        </mxCell>
        <mxCell id="-z9te3pbn1G7zqjihGLt-7" value="1" style="text;html=1;align=center;verticalAlign=middle;resizable=0;points=[];autosize=1;strokeColor=none;fillColor=none;" vertex="1" parent="1">
          <mxGeometry x="905" y="118" width="30" height="30" as="geometry" />
        </mxCell>
        <mxCell id="-z9te3pbn1G7zqjihGLt-8" value="M" style="text;html=1;align=center;verticalAlign=middle;resizable=0;points=[];autosize=1;strokeColor=none;fillColor=none;" vertex="1" parent="1">
          <mxGeometry x="905" y="328" width="30" height="30" as="geometry" />
        </mxCell>
        <mxCell id="-z9te3pbn1G7zqjihGLt-10" value="" style="endArrow=none;html=1;rounded=0;" edge="1" parent="1">
          <mxGeometry width="50" height="50" relative="1" as="geometry">
            <mxPoint x="909.44" y="500" as="sourcePoint" />
            <mxPoint x="909.44" y="420" as="targetPoint" />
          </mxGeometry>
        </mxCell>
        <mxCell id="-z9te3pbn1G7zqjihGLt-11" value="d" style="ellipse;whiteSpace=wrap;html=1;aspect=fixed;" vertex="1" parent="1">
          <mxGeometry x="885" y="500" width="50" height="50" as="geometry" />
        </mxCell>
        <mxCell id="-z9te3pbn1G7zqjihGLt-12" value="" style="endArrow=none;html=1;rounded=0;" edge="1" parent="1">
          <mxGeometry width="50" height="50" relative="1" as="geometry">
            <mxPoint x="885" y="550" as="sourcePoint" />
            <mxPoint x="940" y="550" as="targetPoint" />
          </mxGeometry>
        </mxCell>
        <mxCell id="-z9te3pbn1G7zqjihGLt-13" value="Park" style="rounded=0;whiteSpace=wrap;html=1;" vertex="1" parent="1">
          <mxGeometry x="100" y="900" width="120" height="60" as="geometry" />
        </mxCell>
        <mxCell id="-z9te3pbn1G7zqjihGLt-14" value="Lake" style="rounded=0;whiteSpace=wrap;html=1;" vertex="1" parent="1">
          <mxGeometry x="2410" y="900" width="120" height="60" as="geometry" />
        </mxCell>
        <mxCell id="-z9te3pbn1G7zqjihGLt-15" value="Natural Resources" style="rounded=0;whiteSpace=wrap;html=1;" vertex="1" parent="1">
          <mxGeometry x="5310" y="900" width="120" height="60" as="geometry" />
        </mxCell>
        <mxCell id="-z9te3pbn1G7zqjihGLt-16" value="" style="endArrow=none;html=1;rounded=0;exitX=0.5;exitY=0;exitDx=0;exitDy=0;" edge="1" parent="1" source="-z9te3pbn1G7zqjihGLt-13">
          <mxGeometry width="50" height="50" relative="1" as="geometry">
            <mxPoint x="860" y="600" as="sourcePoint" />
            <mxPoint x="910" y="550" as="targetPoint" />
            <Array as="points">
              <mxPoint x="160" y="680" />
              <mxPoint x="910" y="680" />
            </Array>
          </mxGeometry>
        </mxCell>
        <mxCell id="-z9te3pbn1G7zqjihGLt-17" value="" style="endArrow=none;html=1;rounded=0;exitX=0.683;exitY=-0.042;exitDx=0;exitDy=0;exitPerimeter=0;" edge="1" parent="1" source="-z9te3pbn1G7zqjihGLt-14">
          <mxGeometry width="50" height="50" relative="1" as="geometry">
            <mxPoint x="2500" y="870" as="sourcePoint" />
            <mxPoint x="2490" y="680" as="targetPoint" />
          </mxGeometry>
        </mxCell>
        <mxCell id="-z9te3pbn1G7zqjihGLt-18" value="" style="endArrow=none;html=1;rounded=0;exitX=0.75;exitY=0;exitDx=0;exitDy=0;" edge="1" parent="1" source="-z9te3pbn1G7zqjihGLt-15">
          <mxGeometry width="50" height="50" relative="1" as="geometry">
            <mxPoint x="920" y="760" as="sourcePoint" />
            <mxPoint x="910" y="680" as="targetPoint" />
            <Array as="points">
              <mxPoint x="5400" y="700" />
              <mxPoint x="1810" y="680" />
            </Array>
          </mxGeometry>
        </mxCell>
        <mxCell id="-z9te3pbn1G7zqjihGLt-21" value="" style="endArrow=none;html=1;rounded=0;entryX=0.5;entryY=1;entryDx=0;entryDy=0;" edge="1" parent="1" source="-z9te3pbn1G7zqjihGLt-22" target="-z9te3pbn1G7zqjihGLt-13">
          <mxGeometry width="50" height="50" relative="1" as="geometry">
            <mxPoint x="160" y="1200" as="sourcePoint" />
            <mxPoint x="160" y="1120" as="targetPoint" />
          </mxGeometry>
        </mxCell>
        <mxCell id="-z9te3pbn1G7zqjihGLt-23" value="" style="endArrow=none;html=1;rounded=0;entryX=0.5;entryY=1;entryDx=0;entryDy=0;" edge="1" parent="1" target="-z9te3pbn1G7zqjihGLt-22">
          <mxGeometry width="50" height="50" relative="1" as="geometry">
            <mxPoint x="159.44000000000005" y="1360" as="sourcePoint" />
            <mxPoint x="159.44000000000005" y="1280" as="targetPoint" />
          </mxGeometry>
        </mxCell>
        <mxCell id="-z9te3pbn1G7zqjihGLt-24" value="Site" style="rounded=0;whiteSpace=wrap;html=1;" vertex="1" parent="1">
          <mxGeometry x="100" y="1360" width="120" height="60" as="geometry" />
        </mxCell>
        <mxCell id="-z9te3pbn1G7zqjihGLt-25" value="" style="endArrow=none;html=1;rounded=0;exitX=0.5;exitY=0;exitDx=0;exitDy=0;" edge="1" parent="1" source="-z9te3pbn1G7zqjihGLt-26">
          <mxGeometry width="50" height="50" relative="1" as="geometry">
            <mxPoint x="159.8" y="1500" as="sourcePoint" />
            <mxPoint x="159.8" y="1420" as="targetPoint" />
          </mxGeometry>
        </mxCell>
        <mxCell id="-z9te3pbn1G7zqjihGLt-27" value="" style="endArrow=none;html=1;rounded=0;exitX=0.5;exitY=0;exitDx=0;exitDy=0;" edge="1" parent="1" source="-z9te3pbn1G7zqjihGLt-31">
          <mxGeometry width="50" height="50" relative="1" as="geometry">
            <mxPoint x="159.84042113132315" y="1730.1295788686768" as="sourcePoint" />
            <mxPoint x="159.71000000000006" y="1690" as="targetPoint" />
          </mxGeometry>
        </mxCell>
        <mxCell id="-z9te3pbn1G7zqjihGLt-31" value="Reservation" style="rounded=0;whiteSpace=wrap;html=1;" vertex="1" parent="1">
          <mxGeometry x="100" y="1870" width="120" height="60" as="geometry" />
        </mxCell>
        <mxCell id="-z9te3pbn1G7zqjihGLt-32" value="" style="endArrow=none;html=1;rounded=0;exitX=0;exitY=0;exitDx=0;exitDy=0;" edge="1" parent="1" source="-z9te3pbn1G7zqjihGLt-24" target="-z9te3pbn1G7zqjihGLt-33">
          <mxGeometry width="50" height="50" relative="1" as="geometry">
            <mxPoint x="230" y="1400" as="sourcePoint" />
            <mxPoint x="-70" y="1290" as="targetPoint" />
          </mxGeometry>
        </mxCell>
        <mxCell id="-z9te3pbn1G7zqjihGLt-33" value="&lt;u&gt;&lt;b&gt;Site_ID&lt;/b&gt;&lt;/u&gt;" style="ellipse;whiteSpace=wrap;html=1;" vertex="1" parent="1">
          <mxGeometry x="-250" y="1280" width="190" height="50" as="geometry" />
        </mxCell>
        <mxCell id="-z9te3pbn1G7zqjihGLt-34" value="" style="endArrow=none;html=1;rounded=0;exitX=0;exitY=0;exitDx=0;exitDy=0;" edge="1" parent="1" source="-z9te3pbn1G7zqjihGLt-24" target="-z9te3pbn1G7zqjihGLt-35">
          <mxGeometry width="50" height="50" relative="1" as="geometry">
            <mxPoint x="110" y="1300" as="sourcePoint" />
            <mxPoint x="-60" y="1230" as="targetPoint" />
          </mxGeometry>
        </mxCell>
        <mxCell id="-z9te3pbn1G7zqjihGLt-35" value="Site Number" style="ellipse;whiteSpace=wrap;html=1;" vertex="1" parent="1">
          <mxGeometry x="-240" y="1220" width="190" height="50" as="geometry" />
        </mxCell>
        <mxCell id="-z9te3pbn1G7zqjihGLt-36" value="" style="endArrow=none;html=1;rounded=0;exitX=0;exitY=1;exitDx=0;exitDy=0;" edge="1" parent="1" source="-z9te3pbn1G7zqjihGLt-24" target="-z9te3pbn1G7zqjihGLt-37">
          <mxGeometry width="50" height="50" relative="1" as="geometry">
            <mxPoint x="110" y="1470" as="sourcePoint" />
            <mxPoint x="-60" y="1400" as="targetPoint" />
          </mxGeometry>
        </mxCell>
        <mxCell id="-z9te3pbn1G7zqjihGLt-37" value="Location" style="ellipse;whiteSpace=wrap;html=1;" vertex="1" parent="1">
          <mxGeometry x="-240" y="1420" width="190" height="50" as="geometry" />
        </mxCell>
        <mxCell id="-z9te3pbn1G7zqjihGLt-38" value="" style="endArrow=none;html=1;rounded=0;" edge="1" parent="1" target="-z9te3pbn1G7zqjihGLt-39">
          <mxGeometry width="50" height="50" relative="1" as="geometry">
            <mxPoint x="100" y="1420" as="sourcePoint" />
            <mxPoint x="-50" y="1490" as="targetPoint" />
          </mxGeometry>
        </mxCell>
        <mxCell id="-z9te3pbn1G7zqjihGLt-39" value="Start Date" style="ellipse;whiteSpace=wrap;html=1;" vertex="1" parent="1">
          <mxGeometry x="-230" y="1480" width="190" height="50" as="geometry" />
        </mxCell>
        <mxCell id="-z9te3pbn1G7zqjihGLt-40" value="" style="endArrow=none;html=1;rounded=0;exitX=1;exitY=0;exitDx=0;exitDy=0;" edge="1" parent="1" source="-z9te3pbn1G7zqjihGLt-24" target="-z9te3pbn1G7zqjihGLt-41">
          <mxGeometry width="50" height="50" relative="1" as="geometry">
            <mxPoint x="740" y="1330" as="sourcePoint" />
            <mxPoint x="570" y="1260" as="targetPoint" />
          </mxGeometry>
        </mxCell>
        <mxCell id="-z9te3pbn1G7zqjihGLt-41" value="Capacity" style="ellipse;whiteSpace=wrap;html=1;" vertex="1" parent="1">
          <mxGeometry x="390" y="1230" width="190" height="50" as="geometry" />
        </mxCell>
        <mxCell id="-z9te3pbn1G7zqjihGLt-42" value="" style="endArrow=none;html=1;rounded=0;exitX=1;exitY=0;exitDx=0;exitDy=0;" edge="1" parent="1" source="-z9te3pbn1G7zqjihGLt-24" target="-z9te3pbn1G7zqjihGLt-43">
          <mxGeometry width="50" height="50" relative="1" as="geometry">
            <mxPoint x="780" y="1370" as="sourcePoint" />
            <mxPoint x="610" y="1300" as="targetPoint" />
          </mxGeometry>
        </mxCell>
        <mxCell id="-z9te3pbn1G7zqjihGLt-43" value="Rate" style="ellipse;whiteSpace=wrap;html=1;" vertex="1" parent="1">
          <mxGeometry x="430" y="1290" width="190" height="50" as="geometry" />
        </mxCell>
        <mxCell id="-z9te3pbn1G7zqjihGLt-44" value="" style="endArrow=none;html=1;rounded=0;exitX=1;exitY=1;exitDx=0;exitDy=0;" edge="1" parent="1" source="-z9te3pbn1G7zqjihGLt-24">
          <mxGeometry width="50" height="50" relative="1" as="geometry">
            <mxPoint x="810" y="1500" as="sourcePoint" />
            <mxPoint x="463.52279761991576" y="1438.2551371516988" as="targetPoint" />
          </mxGeometry>
        </mxCell>
        <mxCell id="-z9te3pbn1G7zqjihGLt-46" value="" style="endArrow=none;html=1;rounded=0;exitX=1;exitY=1;exitDx=0;exitDy=0;" edge="1" parent="1" source="-z9te3pbn1G7zqjihGLt-24" target="-z9te3pbn1G7zqjihGLt-47">
          <mxGeometry width="50" height="50" relative="1" as="geometry">
            <mxPoint x="730" y="1550" as="sourcePoint" />
            <mxPoint x="560" y="1480" as="targetPoint" />
          </mxGeometry>
        </mxCell>
        <mxCell id="-z9te3pbn1G7zqjihGLt-47" value="Status" style="ellipse;whiteSpace=wrap;html=1;" vertex="1" parent="1">
          <mxGeometry x="380" y="1470" width="190" height="50" as="geometry" />
        </mxCell>
        <mxCell id="-z9te3pbn1G7zqjihGLt-50" value="" style="endArrow=none;html=1;rounded=0;" edge="1" parent="1" target="-z9te3pbn1G7zqjihGLt-51">
          <mxGeometry width="50" height="50" relative="1" as="geometry">
            <mxPoint x="100" y="1420" as="sourcePoint" />
            <mxPoint x="40" y="1540" as="targetPoint" />
          </mxGeometry>
        </mxCell>
        <mxCell id="-z9te3pbn1G7zqjihGLt-51" value="End Date" style="ellipse;whiteSpace=wrap;html=1;" vertex="1" parent="1">
          <mxGeometry x="-140" y="1530" width="190" height="50" as="geometry" />
        </mxCell>
        <mxCell id="-z9te3pbn1G7zqjihGLt-52" value="" style="endArrow=none;html=1;rounded=0;" edge="1" parent="1" target="-z9te3pbn1G7zqjihGLt-26">
          <mxGeometry width="50" height="50" relative="1" as="geometry">
            <mxPoint x="159.74000000000007" y="1650" as="sourcePoint" />
            <mxPoint x="159.74000000000007" y="1570" as="targetPoint" />
          </mxGeometry>
        </mxCell>
        <mxCell id="-z9te3pbn1G7zqjihGLt-26" value="Can be reserved by" style="rhombus;whiteSpace=wrap;html=1;" vertex="1" parent="1">
          <mxGeometry x="120" y="1610" width="80" height="80" as="geometry" />
        </mxCell>
        <mxCell id="-z9te3pbn1G7zqjihGLt-53" value="" style="endArrow=none;html=1;rounded=0;exitX=0;exitY=0;exitDx=0;exitDy=0;" edge="1" parent="1" target="-z9te3pbn1G7zqjihGLt-54">
          <mxGeometry width="50" height="50" relative="1" as="geometry">
            <mxPoint x="100" y="1870" as="sourcePoint" />
            <mxPoint x="-70" y="1800" as="targetPoint" />
          </mxGeometry>
        </mxCell>
        <mxCell id="-z9te3pbn1G7zqjihGLt-54" value="&lt;u&gt;&lt;b&gt;Reservation_ID&lt;/b&gt;&lt;/u&gt;" style="ellipse;whiteSpace=wrap;html=1;" vertex="1" parent="1">
          <mxGeometry x="-250" y="1790" width="190" height="50" as="geometry" />
        </mxCell>
        <mxCell id="-z9te3pbn1G7zqjihGLt-55" value="" style="endArrow=none;html=1;rounded=0;exitX=0;exitY=1;exitDx=0;exitDy=0;" edge="1" parent="1" source="-z9te3pbn1G7zqjihGLt-31" target="-z9te3pbn1G7zqjihGLt-56">
          <mxGeometry width="50" height="50" relative="1" as="geometry">
            <mxPoint x="100" y="2010" as="sourcePoint" />
            <mxPoint x="-70" y="1940" as="targetPoint" />
          </mxGeometry>
        </mxCell>
        <mxCell id="-z9te3pbn1G7zqjihGLt-56" value="Payment Status" style="ellipse;whiteSpace=wrap;html=1;" vertex="1" parent="1">
          <mxGeometry x="-250" y="1930" width="190" height="50" as="geometry" />
        </mxCell>
        <mxCell id="-z9te3pbn1G7zqjihGLt-59" value="" style="endArrow=none;html=1;rounded=0;exitX=1;exitY=0;exitDx=0;exitDy=0;" edge="1" parent="1" source="-z9te3pbn1G7zqjihGLt-31" target="-z9te3pbn1G7zqjihGLt-60">
          <mxGeometry width="50" height="50" relative="1" as="geometry">
            <mxPoint x="700" y="1880" as="sourcePoint" />
            <mxPoint x="530" y="1810" as="targetPoint" />
          </mxGeometry>
        </mxCell>
        <mxCell id="-z9te3pbn1G7zqjihGLt-60" value="Date" style="ellipse;whiteSpace=wrap;html=1;" vertex="1" parent="1">
          <mxGeometry x="350" y="1800" width="190" height="50" as="geometry" />
        </mxCell>
        <mxCell id="-z9te3pbn1G7zqjihGLt-61" value="" style="endArrow=none;html=1;rounded=0;exitX=1;exitY=1;exitDx=0;exitDy=0;" edge="1" parent="1" source="-z9te3pbn1G7zqjihGLt-31" target="-z9te3pbn1G7zqjihGLt-62">
          <mxGeometry width="50" height="50" relative="1" as="geometry">
            <mxPoint x="730" y="2030" as="sourcePoint" />
            <mxPoint x="560" y="1960" as="targetPoint" />
          </mxGeometry>
        </mxCell>
        <mxCell id="-z9te3pbn1G7zqjihGLt-62" value="Time" style="ellipse;whiteSpace=wrap;html=1;" vertex="1" parent="1">
          <mxGeometry x="380" y="1950" width="190" height="50" as="geometry" />
        </mxCell>
        <mxCell id="-z9te3pbn1G7zqjihGLt-63" value="" style="endArrow=none;html=1;rounded=0;" edge="1" parent="1" target="-z9te3pbn1G7zqjihGLt-64">
          <mxGeometry width="50" height="50" relative="1" as="geometry">
            <mxPoint x="220" y="1870" as="sourcePoint" />
            <mxPoint x="450" y="1760" as="targetPoint" />
          </mxGeometry>
        </mxCell>
        <mxCell id="-z9te3pbn1G7zqjihGLt-64" value="Status" style="ellipse;whiteSpace=wrap;html=1;" vertex="1" parent="1">
          <mxGeometry x="270" y="1750" width="190" height="50" as="geometry" />
        </mxCell>
        <mxCell id="-z9te3pbn1G7zqjihGLt-65" value="" style="endArrow=none;html=1;rounded=0;exitX=1;exitY=0;exitDx=0;exitDy=0;" edge="1" parent="1" target="-z9te3pbn1G7zqjihGLt-66">
          <mxGeometry width="50" height="50" relative="1" as="geometry">
            <mxPoint x="220" y="900" as="sourcePoint" />
            <mxPoint x="570" y="800" as="targetPoint" />
          </mxGeometry>
        </mxCell>
        <mxCell id="-z9te3pbn1G7zqjihGLt-66" value="Location" style="ellipse;whiteSpace=wrap;html=1;" vertex="1" parent="1">
          <mxGeometry x="390" y="820" width="190" height="50" as="geometry" />
        </mxCell>
        <mxCell id="-z9te3pbn1G7zqjihGLt-67" value="" style="endArrow=none;html=1;rounded=0;exitX=1;exitY=1;exitDx=0;exitDy=0;" edge="1" parent="1" source="-z9te3pbn1G7zqjihGLt-13" target="-z9te3pbn1G7zqjihGLt-68">
          <mxGeometry width="50" height="50" relative="1" as="geometry">
            <mxPoint x="230" y="1100" as="sourcePoint" />
            <mxPoint x="580" y="1000" as="targetPoint" />
          </mxGeometry>
        </mxCell>
        <mxCell id="-z9te3pbn1G7zqjihGLt-68" value="Area" style="ellipse;whiteSpace=wrap;html=1;" vertex="1" parent="1">
          <mxGeometry x="400" y="970" width="190" height="50" as="geometry" />
        </mxCell>
        <mxCell id="-z9te3pbn1G7zqjihGLt-69" value="" style="endArrow=none;html=1;rounded=0;exitX=0;exitY=0;exitDx=0;exitDy=0;" edge="1" parent="1" source="-z9te3pbn1G7zqjihGLt-13" target="-z9te3pbn1G7zqjihGLt-70">
          <mxGeometry width="50" height="50" relative="1" as="geometry">
            <mxPoint x="80" y="900" as="sourcePoint" />
            <mxPoint x="-60" y="870" as="targetPoint" />
          </mxGeometry>
        </mxCell>
        <mxCell id="-z9te3pbn1G7zqjihGLt-70" value="&lt;u&gt;&lt;b&gt;Park_ID&lt;/b&gt;&lt;/u&gt;" style="ellipse;whiteSpace=wrap;html=1;" vertex="1" parent="1">
          <mxGeometry x="-240" y="840" width="190" height="50" as="geometry" />
        </mxCell>
        <mxCell id="-z9te3pbn1G7zqjihGLt-71" value="" style="endArrow=none;html=1;rounded=0;exitX=0;exitY=1;exitDx=0;exitDy=0;" edge="1" parent="1" source="-z9te3pbn1G7zqjihGLt-13" target="-z9te3pbn1G7zqjihGLt-72">
          <mxGeometry width="50" height="50" relative="1" as="geometry">
            <mxPoint x="-410" y="1120" as="sourcePoint" />
            <mxPoint x="-60" y="1020" as="targetPoint" />
          </mxGeometry>
        </mxCell>
        <mxCell id="-z9te3pbn1G7zqjihGLt-72" value="Name" style="ellipse;whiteSpace=wrap;html=1;" vertex="1" parent="1">
          <mxGeometry x="-240" y="990" width="190" height="50" as="geometry" />
        </mxCell>
        <mxCell id="-z9te3pbn1G7zqjihGLt-73" value="" style="endArrow=none;html=1;rounded=0;exitX=0;exitY=0;exitDx=0;exitDy=0;" edge="1" parent="1" source="-z9te3pbn1G7zqjihGLt-13" target="-z9te3pbn1G7zqjihGLt-74">
          <mxGeometry width="50" height="50" relative="1" as="geometry">
            <mxPoint x="-370" y="910" as="sourcePoint" />
            <mxPoint x="-20" y="810" as="targetPoint" />
          </mxGeometry>
        </mxCell>
        <mxCell id="-z9te3pbn1G7zqjihGLt-74" value="Type" style="ellipse;whiteSpace=wrap;html=1;" vertex="1" parent="1">
          <mxGeometry x="-200" y="780" width="190" height="50" as="geometry" />
        </mxCell>
        <mxCell id="-z9te3pbn1G7zqjihGLt-75" value="" style="endArrow=none;html=1;rounded=0;" edge="1" parent="1" target="-z9te3pbn1G7zqjihGLt-76">
          <mxGeometry width="50" height="50" relative="1" as="geometry">
            <mxPoint x="100" y="960" as="sourcePoint" />
            <mxPoint x="25" y="1070" as="targetPoint" />
          </mxGeometry>
        </mxCell>
        <mxCell id="-z9te3pbn1G7zqjihGLt-76" value="Opening Hours" style="ellipse;whiteSpace=wrap;html=1;" vertex="1" parent="1">
          <mxGeometry x="-155" y="1040" width="190" height="50" as="geometry" />
        </mxCell>
        <mxCell id="-z9te3pbn1G7zqjihGLt-79" value="" style="endArrow=none;html=1;rounded=0;entryX=0.5;entryY=1;entryDx=0;entryDy=0;" edge="1" parent="1" target="-z9te3pbn1G7zqjihGLt-22">
          <mxGeometry width="50" height="50" relative="1" as="geometry">
            <mxPoint x="160" y="1200" as="sourcePoint" />
            <mxPoint x="160" y="960" as="targetPoint" />
          </mxGeometry>
        </mxCell>
        <mxCell id="-z9te3pbn1G7zqjihGLt-22" value="has" style="rhombus;whiteSpace=wrap;html=1;" vertex="1" parent="1">
          <mxGeometry x="120" y="1130" width="80" height="80" as="geometry" />
        </mxCell>
        <mxCell id="-z9te3pbn1G7zqjihGLt-80" value="Facility" style="rounded=0;whiteSpace=wrap;html=1;" vertex="1" parent="1">
          <mxGeometry x="-1310" y="240" width="120" height="60" as="geometry" />
        </mxCell>
        <mxCell id="-z9te3pbn1G7zqjihGLt-81" value="" style="endArrow=none;html=1;rounded=0;exitX=1;exitY=0.5;exitDx=0;exitDy=0;entryX=1;entryY=0.5;entryDx=0;entryDy=0;" edge="1" parent="1">
          <mxGeometry width="50" height="50" relative="1" as="geometry">
            <mxPoint x="-1250" y="300" as="sourcePoint" />
            <mxPoint x="-1250" y="540" as="targetPoint" />
          </mxGeometry>
        </mxCell>
        <mxCell id="-z9te3pbn1G7zqjihGLt-84" value="" style="endArrow=none;html=1;rounded=0;exitX=1;exitY=0;exitDx=0;exitDy=0;" edge="1" parent="1" target="-z9te3pbn1G7zqjihGLt-85">
          <mxGeometry width="50" height="50" relative="1" as="geometry">
            <mxPoint x="-1190" y="240" as="sourcePoint" />
            <mxPoint x="-840" y="140" as="targetPoint" />
          </mxGeometry>
        </mxCell>
        <mxCell id="-z9te3pbn1G7zqjihGLt-85" value="Name" style="ellipse;whiteSpace=wrap;html=1;" vertex="1" parent="1">
          <mxGeometry x="-1020" y="160" width="190" height="50" as="geometry" />
        </mxCell>
        <mxCell id="-z9te3pbn1G7zqjihGLt-86" value="" style="endArrow=none;html=1;rounded=0;exitX=1;exitY=1;exitDx=0;exitDy=0;" edge="1" parent="1" source="-z9te3pbn1G7zqjihGLt-80" target="-z9te3pbn1G7zqjihGLt-87">
          <mxGeometry width="50" height="50" relative="1" as="geometry">
            <mxPoint x="-1170" y="440" as="sourcePoint" />
            <mxPoint x="-820" y="340" as="targetPoint" />
          </mxGeometry>
        </mxCell>
        <mxCell id="-z9te3pbn1G7zqjihGLt-87" value="About" style="ellipse;whiteSpace=wrap;html=1;" vertex="1" parent="1">
          <mxGeometry x="-1000" y="360" width="190" height="50" as="geometry" />
        </mxCell>
        <mxCell id="-z9te3pbn1G7zqjihGLt-88" value="" style="endArrow=none;html=1;rounded=0;exitX=0;exitY=0;exitDx=0;exitDy=0;" edge="1" parent="1" source="-z9te3pbn1G7zqjihGLt-80" target="-z9te3pbn1G7zqjihGLt-89">
          <mxGeometry width="50" height="50" relative="1" as="geometry">
            <mxPoint x="-1830" y="250" as="sourcePoint" />
            <mxPoint x="-1480" y="150" as="targetPoint" />
          </mxGeometry>
        </mxCell>
        <mxCell id="-z9te3pbn1G7zqjihGLt-89" value="&lt;u&gt;&lt;b&gt;Facility_ID&lt;/b&gt;&lt;/u&gt;" style="ellipse;whiteSpace=wrap;html=1;" vertex="1" parent="1">
          <mxGeometry x="-1660" y="170" width="190" height="50" as="geometry" />
        </mxCell>
        <mxCell id="-z9te3pbn1G7zqjihGLt-90" value="" style="endArrow=none;html=1;rounded=0;exitX=0;exitY=1;exitDx=0;exitDy=0;" edge="1" parent="1" source="-z9te3pbn1G7zqjihGLt-80" target="-z9te3pbn1G7zqjihGLt-91">
          <mxGeometry width="50" height="50" relative="1" as="geometry">
            <mxPoint x="-1810" y="410" as="sourcePoint" />
            <mxPoint x="-1460" y="310" as="targetPoint" />
          </mxGeometry>
        </mxCell>
        <mxCell id="-z9te3pbn1G7zqjihGLt-91" value="Type" style="ellipse;whiteSpace=wrap;html=1;" vertex="1" parent="1">
          <mxGeometry x="-1640" y="330" width="190" height="50" as="geometry" />
        </mxCell>
        <mxCell id="-z9te3pbn1G7zqjihGLt-94" value="" style="endArrow=none;html=1;rounded=0;exitX=1;exitY=0.5;exitDx=0;exitDy=0;entryX=0.5;entryY=0;entryDx=0;entryDy=0;" edge="1" parent="1" target="n116JVMDm5xwNgPDnoRn-235">
          <mxGeometry width="50" height="50" relative="1" as="geometry">
            <mxPoint x="-2590" y="460" as="sourcePoint" />
            <mxPoint x="-2590" y="680" as="targetPoint" />
          </mxGeometry>
        </mxCell>
        <mxCell id="-z9te3pbn1G7zqjihGLt-96" value="" style="endArrow=none;html=1;rounded=0;exitX=1;exitY=0;exitDx=0;exitDy=0;" edge="1" parent="1" target="-z9te3pbn1G7zqjihGLt-97">
          <mxGeometry width="50" height="50" relative="1" as="geometry">
            <mxPoint x="-2530" y="400" as="sourcePoint" />
            <mxPoint x="-2180" y="300" as="targetPoint" />
          </mxGeometry>
        </mxCell>
        <mxCell id="-z9te3pbn1G7zqjihGLt-97" value="Helpline Number" style="ellipse;whiteSpace=wrap;html=1;" vertex="1" parent="1">
          <mxGeometry x="-2360" y="320" width="190" height="50" as="geometry" />
        </mxCell>
        <mxCell id="-z9te3pbn1G7zqjihGLt-98" value="" style="endArrow=none;html=1;rounded=0;exitX=1;exitY=1;exitDx=0;exitDy=0;" edge="1" parent="1" target="-z9te3pbn1G7zqjihGLt-99">
          <mxGeometry width="50" height="50" relative="1" as="geometry">
            <mxPoint x="-2530" y="460" as="sourcePoint" />
            <mxPoint x="-2160" y="500" as="targetPoint" />
          </mxGeometry>
        </mxCell>
        <mxCell id="-z9te3pbn1G7zqjihGLt-99" value="Position" style="ellipse;whiteSpace=wrap;html=1;" vertex="1" parent="1">
          <mxGeometry x="-2340" y="520" width="190" height="50" as="geometry" />
        </mxCell>
        <mxCell id="-z9te3pbn1G7zqjihGLt-100" value="" style="endArrow=none;html=1;rounded=0;exitX=0;exitY=0;exitDx=0;exitDy=0;" edge="1" parent="1" target="-z9te3pbn1G7zqjihGLt-101">
          <mxGeometry width="50" height="50" relative="1" as="geometry">
            <mxPoint x="-2650" y="400" as="sourcePoint" />
            <mxPoint x="-2820" y="310" as="targetPoint" />
          </mxGeometry>
        </mxCell>
        <mxCell id="-z9te3pbn1G7zqjihGLt-101" value="&lt;u&gt;&lt;b&gt;Job_ID&lt;/b&gt;&lt;/u&gt;" style="ellipse;whiteSpace=wrap;html=1;" vertex="1" parent="1">
          <mxGeometry x="-3000" y="330" width="190" height="50" as="geometry" />
        </mxCell>
        <mxCell id="-z9te3pbn1G7zqjihGLt-102" value="" style="endArrow=none;html=1;rounded=0;exitX=0;exitY=1;exitDx=0;exitDy=0;" edge="1" parent="1" target="-z9te3pbn1G7zqjihGLt-103">
          <mxGeometry width="50" height="50" relative="1" as="geometry">
            <mxPoint x="-2650" y="460" as="sourcePoint" />
            <mxPoint x="-2800" y="470" as="targetPoint" />
          </mxGeometry>
        </mxCell>
        <mxCell id="-z9te3pbn1G7zqjihGLt-103" value="Description" style="ellipse;whiteSpace=wrap;html=1;" vertex="1" parent="1">
          <mxGeometry x="-2980" y="490" width="190" height="50" as="geometry" />
        </mxCell>
        <mxCell id="-z9te3pbn1G7zqjihGLt-105" value="" style="endArrow=none;html=1;rounded=0;entryX=0.5;entryY=1;entryDx=0;entryDy=0;exitX=0;exitY=0.5;exitDx=0;exitDy=0;" edge="1" parent="1" source="-z9te3pbn1G7zqjihGLt-13" target="n116JVMDm5xwNgPDnoRn-237">
          <mxGeometry width="50" height="50" relative="1" as="geometry">
            <mxPoint x="-1070" y="810" as="sourcePoint" />
            <mxPoint x="-1250" y="620" as="targetPoint" />
            <Array as="points">
              <mxPoint x="-1250" y="940" />
            </Array>
          </mxGeometry>
        </mxCell>
        <mxCell id="-z9te3pbn1G7zqjihGLt-106" value="" style="endArrow=none;html=1;rounded=0;entryX=0.5;entryY=1;entryDx=0;entryDy=0;" edge="1" parent="1" target="n116JVMDm5xwNgPDnoRn-235">
          <mxGeometry width="50" height="50" relative="1" as="geometry">
            <mxPoint x="-1250" y="940" as="sourcePoint" />
            <mxPoint x="-2590" y="790" as="targetPoint" />
            <Array as="points">
              <mxPoint x="-2590" y="930" />
            </Array>
          </mxGeometry>
        </mxCell>
        <mxCell id="-z9te3pbn1G7zqjihGLt-107" value="" style="endArrow=none;html=1;rounded=0;exitX=1;exitY=0;exitDx=0;exitDy=0;" edge="1" parent="1" target="-z9te3pbn1G7zqjihGLt-108">
          <mxGeometry width="50" height="50" relative="1" as="geometry">
            <mxPoint x="-2530" y="400" as="sourcePoint" />
            <mxPoint x="-2220" y="240" as="targetPoint" />
          </mxGeometry>
        </mxCell>
        <mxCell id="-z9te3pbn1G7zqjihGLt-108" value="Title" style="ellipse;whiteSpace=wrap;html=1;" vertex="1" parent="1">
          <mxGeometry x="-2400" y="260" width="190" height="50" as="geometry" />
        </mxCell>
        <mxCell id="-z9te3pbn1G7zqjihGLt-109" value="" style="endArrow=none;html=1;rounded=0;exitX=1;exitY=1;exitDx=0;exitDy=0;" edge="1" parent="1" target="-z9te3pbn1G7zqjihGLt-110">
          <mxGeometry width="50" height="50" relative="1" as="geometry">
            <mxPoint x="-2530" y="460" as="sourcePoint" />
            <mxPoint x="-2200" y="560" as="targetPoint" />
          </mxGeometry>
        </mxCell>
        <mxCell id="-z9te3pbn1G7zqjihGLt-110" value="Posting Date" style="ellipse;whiteSpace=wrap;html=1;" vertex="1" parent="1">
          <mxGeometry x="-2380" y="580" width="190" height="50" as="geometry" />
        </mxCell>
        <mxCell id="-z9te3pbn1G7zqjihGLt-111" value="" style="endArrow=none;html=1;rounded=0;exitX=0;exitY=1;exitDx=0;exitDy=0;" edge="1" parent="1" target="-z9te3pbn1G7zqjihGLt-112">
          <mxGeometry width="50" height="50" relative="1" as="geometry">
            <mxPoint x="-2650" y="460" as="sourcePoint" />
            <mxPoint x="-2760" y="530" as="targetPoint" />
          </mxGeometry>
        </mxCell>
        <mxCell id="-z9te3pbn1G7zqjihGLt-112" value="End Date" style="ellipse;whiteSpace=wrap;html=1;" vertex="1" parent="1">
          <mxGeometry x="-2940" y="550" width="190" height="50" as="geometry" />
        </mxCell>
        <mxCell id="-z9te3pbn1G7zqjihGLt-113" value="" style="endArrow=none;html=1;rounded=0;exitX=0;exitY=0;exitDx=0;exitDy=0;" edge="1" parent="1" target="-z9te3pbn1G7zqjihGLt-114">
          <mxGeometry width="50" height="50" relative="1" as="geometry">
            <mxPoint x="-2650" y="400" as="sourcePoint" />
            <mxPoint x="-2790" y="250" as="targetPoint" />
          </mxGeometry>
        </mxCell>
        <mxCell id="-z9te3pbn1G7zqjihGLt-114" value="Status" style="ellipse;whiteSpace=wrap;html=1;" vertex="1" parent="1">
          <mxGeometry x="-2970" y="270" width="190" height="50" as="geometry" />
        </mxCell>
        <mxCell id="-z9te3pbn1G7zqjihGLt-115" value="" style="endArrow=none;html=1;rounded=0;exitX=1;exitY=0.5;exitDx=0;exitDy=0;entryX=1;entryY=0.5;entryDx=0;entryDy=0;" edge="1" parent="1">
          <mxGeometry width="50" height="50" relative="1" as="geometry">
            <mxPoint x="-2590" y="930" as="sourcePoint" />
            <mxPoint x="-2590" y="1170" as="targetPoint" />
          </mxGeometry>
        </mxCell>
        <mxCell id="-z9te3pbn1G7zqjihGLt-118" value="" style="endArrow=none;html=1;rounded=0;exitX=1;exitY=0.5;exitDx=0;exitDy=0;entryX=1;entryY=0.5;entryDx=0;entryDy=0;" edge="1" parent="1">
          <mxGeometry width="50" height="50" relative="1" as="geometry">
            <mxPoint x="-2591.11" y="1250" as="sourcePoint" />
            <mxPoint x="-2591.11" y="1490" as="targetPoint" />
          </mxGeometry>
        </mxCell>
        <mxCell id="-z9te3pbn1G7zqjihGLt-119" value="Event" style="rounded=0;whiteSpace=wrap;html=1;" vertex="1" parent="1">
          <mxGeometry x="-2650" y="1490" width="120" height="60" as="geometry" />
        </mxCell>
        <mxCell id="-z9te3pbn1G7zqjihGLt-121" value="" style="endArrow=none;html=1;rounded=0;exitX=1;exitY=0;exitDx=0;exitDy=0;" edge="1" parent="1" target="-z9te3pbn1G7zqjihGLt-122">
          <mxGeometry width="50" height="50" relative="1" as="geometry">
            <mxPoint x="-2530" y="1490" as="sourcePoint" />
            <mxPoint x="-2220" y="1330" as="targetPoint" />
          </mxGeometry>
        </mxCell>
        <mxCell id="-z9te3pbn1G7zqjihGLt-122" value="Name" style="ellipse;whiteSpace=wrap;html=1;" vertex="1" parent="1">
          <mxGeometry x="-2400" y="1350" width="190" height="50" as="geometry" />
        </mxCell>
        <mxCell id="-z9te3pbn1G7zqjihGLt-123" value="" style="endArrow=none;html=1;rounded=0;exitX=1;exitY=1;exitDx=0;exitDy=0;" edge="1" parent="1" source="-z9te3pbn1G7zqjihGLt-119" target="-z9te3pbn1G7zqjihGLt-124">
          <mxGeometry width="50" height="50" relative="1" as="geometry">
            <mxPoint x="-2520" y="1760" as="sourcePoint" />
            <mxPoint x="-2210" y="1600" as="targetPoint" />
          </mxGeometry>
        </mxCell>
        <mxCell id="-z9te3pbn1G7zqjihGLt-124" value="Description" style="ellipse;whiteSpace=wrap;html=1;" vertex="1" parent="1">
          <mxGeometry x="-2390" y="1620" width="190" height="50" as="geometry" />
        </mxCell>
        <mxCell id="-z9te3pbn1G7zqjihGLt-125" value="" style="endArrow=none;html=1;rounded=0;exitX=0;exitY=0;exitDx=0;exitDy=0;" edge="1" parent="1" source="-z9te3pbn1G7zqjihGLt-119" target="-z9te3pbn1G7zqjihGLt-126">
          <mxGeometry width="50" height="50" relative="1" as="geometry">
            <mxPoint x="-3120" y="1490" as="sourcePoint" />
            <mxPoint x="-2810" y="1330" as="targetPoint" />
          </mxGeometry>
        </mxCell>
        <mxCell id="-z9te3pbn1G7zqjihGLt-126" value="Status" style="ellipse;whiteSpace=wrap;html=1;" vertex="1" parent="1">
          <mxGeometry x="-2990" y="1350" width="190" height="50" as="geometry" />
        </mxCell>
        <mxCell id="-z9te3pbn1G7zqjihGLt-129" value="" style="endArrow=none;html=1;rounded=0;exitX=0;exitY=1;exitDx=0;exitDy=0;" edge="1" parent="1" source="-z9te3pbn1G7zqjihGLt-119" target="-z9te3pbn1G7zqjihGLt-130">
          <mxGeometry width="50" height="50" relative="1" as="geometry">
            <mxPoint x="-3120" y="1720" as="sourcePoint" />
            <mxPoint x="-2810" y="1560" as="targetPoint" />
          </mxGeometry>
        </mxCell>
        <mxCell id="-z9te3pbn1G7zqjihGLt-130" value="Date" style="ellipse;whiteSpace=wrap;html=1;" vertex="1" parent="1">
          <mxGeometry x="-3000" y="1610" width="190" height="50" as="geometry" />
        </mxCell>
        <mxCell id="-z9te3pbn1G7zqjihGLt-131" value="" style="endArrow=none;html=1;rounded=0;exitX=0;exitY=0;exitDx=0;exitDy=0;" edge="1" parent="1" source="-z9te3pbn1G7zqjihGLt-119" target="-z9te3pbn1G7zqjihGLt-132">
          <mxGeometry width="50" height="50" relative="1" as="geometry">
            <mxPoint x="-2752" y="1550" as="sourcePoint" />
            <mxPoint x="-2912" y="1390" as="targetPoint" />
          </mxGeometry>
        </mxCell>
        <mxCell id="-z9te3pbn1G7zqjihGLt-132" value="&lt;u&gt;&lt;b&gt;Event_ID&lt;/b&gt;&lt;/u&gt;" style="ellipse;whiteSpace=wrap;html=1;" vertex="1" parent="1">
          <mxGeometry x="-3092" y="1410" width="190" height="50" as="geometry" />
        </mxCell>
        <mxCell id="-z9te3pbn1G7zqjihGLt-133" value="News" style="rounded=0;whiteSpace=wrap;html=1;" vertex="1" parent="1">
          <mxGeometry x="-1310" y="1480" width="120" height="60" as="geometry" />
        </mxCell>
        <mxCell id="-z9te3pbn1G7zqjihGLt-134" value="" style="endArrow=none;html=1;rounded=0;entryX=1;entryY=0.5;entryDx=0;entryDy=0;" edge="1" parent="1">
          <mxGeometry width="50" height="50" relative="1" as="geometry">
            <mxPoint x="-1250" y="1480" as="sourcePoint" />
            <mxPoint x="-1250" y="1190" as="targetPoint" />
          </mxGeometry>
        </mxCell>
        <mxCell id="-z9te3pbn1G7zqjihGLt-136" value="" style="endArrow=none;html=1;rounded=0;exitX=1;exitY=0;exitDx=0;exitDy=0;" edge="1" parent="1" target="-z9te3pbn1G7zqjihGLt-137">
          <mxGeometry width="50" height="50" relative="1" as="geometry">
            <mxPoint x="-1190" y="1480" as="sourcePoint" />
            <mxPoint x="-840" y="1380" as="targetPoint" />
          </mxGeometry>
        </mxCell>
        <mxCell id="-z9te3pbn1G7zqjihGLt-137" value="Title" style="ellipse;whiteSpace=wrap;html=1;" vertex="1" parent="1">
          <mxGeometry x="-1020" y="1400" width="190" height="50" as="geometry" />
        </mxCell>
        <mxCell id="-z9te3pbn1G7zqjihGLt-138" value="" style="endArrow=none;html=1;rounded=0;exitX=1;exitY=1;exitDx=0;exitDy=0;" edge="1" parent="1" source="-z9te3pbn1G7zqjihGLt-133" target="-z9te3pbn1G7zqjihGLt-139">
          <mxGeometry width="50" height="50" relative="1" as="geometry">
            <mxPoint x="-1170" y="1680" as="sourcePoint" />
            <mxPoint x="-820" y="1580" as="targetPoint" />
          </mxGeometry>
        </mxCell>
        <mxCell id="-z9te3pbn1G7zqjihGLt-139" value="Content" style="ellipse;whiteSpace=wrap;html=1;" vertex="1" parent="1">
          <mxGeometry x="-1000" y="1600" width="190" height="50" as="geometry" />
        </mxCell>
        <mxCell id="-z9te3pbn1G7zqjihGLt-140" value="" style="endArrow=none;html=1;rounded=0;exitX=0;exitY=0;exitDx=0;exitDy=0;" edge="1" parent="1" source="-z9te3pbn1G7zqjihGLt-133" target="-z9te3pbn1G7zqjihGLt-141">
          <mxGeometry width="50" height="50" relative="1" as="geometry">
            <mxPoint x="-1830" y="1490" as="sourcePoint" />
            <mxPoint x="-1480" y="1390" as="targetPoint" />
          </mxGeometry>
        </mxCell>
        <mxCell id="-z9te3pbn1G7zqjihGLt-141" value="&lt;b&gt;&lt;u&gt;News_ID&lt;/u&gt;&lt;/b&gt;" style="ellipse;whiteSpace=wrap;html=1;" vertex="1" parent="1">
          <mxGeometry x="-1660" y="1410" width="190" height="50" as="geometry" />
        </mxCell>
        <mxCell id="-z9te3pbn1G7zqjihGLt-142" value="" style="endArrow=none;html=1;rounded=0;exitX=0;exitY=1;exitDx=0;exitDy=0;" edge="1" parent="1" source="-z9te3pbn1G7zqjihGLt-133" target="-z9te3pbn1G7zqjihGLt-143">
          <mxGeometry width="50" height="50" relative="1" as="geometry">
            <mxPoint x="-1810" y="1650" as="sourcePoint" />
            <mxPoint x="-1460" y="1550" as="targetPoint" />
          </mxGeometry>
        </mxCell>
        <mxCell id="-z9te3pbn1G7zqjihGLt-143" value="Date Published" style="ellipse;whiteSpace=wrap;html=1;" vertex="1" parent="1">
          <mxGeometry x="-1640" y="1570" width="190" height="50" as="geometry" />
        </mxCell>
        <mxCell id="-z9te3pbn1G7zqjihGLt-144" value="" style="endArrow=none;html=1;rounded=0;exitX=1;exitY=0.5;exitDx=0;exitDy=0;" edge="1" parent="1">
          <mxGeometry width="50" height="50" relative="1" as="geometry">
            <mxPoint x="-1250" y="1190" as="sourcePoint" />
            <mxPoint x="-1250" y="940" as="targetPoint" />
          </mxGeometry>
        </mxCell>
        <mxCell id="-z9te3pbn1G7zqjihGLt-145" value="" style="endArrow=none;html=1;rounded=0;" edge="1" parent="1" target="-z9te3pbn1G7zqjihGLt-146">
          <mxGeometry width="50" height="50" relative="1" as="geometry">
            <mxPoint x="-1190" y="1480" as="sourcePoint" />
            <mxPoint x="-900" y="1330" as="targetPoint" />
          </mxGeometry>
        </mxCell>
        <mxCell id="-z9te3pbn1G7zqjihGLt-146" value="Publisher Name" style="ellipse;whiteSpace=wrap;html=1;" vertex="1" parent="1">
          <mxGeometry x="-1080" y="1350" width="190" height="50" as="geometry" />
        </mxCell>
        <mxCell id="-z9te3pbn1G7zqjihGLt-147" value="" style="endArrow=none;html=1;rounded=0;" edge="1" parent="1" target="-z9te3pbn1G7zqjihGLt-148">
          <mxGeometry width="50" height="50" relative="1" as="geometry">
            <mxPoint x="-1190" y="1540" as="sourcePoint" />
            <mxPoint x="-920" y="1630" as="targetPoint" />
          </mxGeometry>
        </mxCell>
        <mxCell id="-z9te3pbn1G7zqjihGLt-148" value="Author Name" style="ellipse;whiteSpace=wrap;html=1;" vertex="1" parent="1">
          <mxGeometry x="-1100" y="1650" width="190" height="50" as="geometry" />
        </mxCell>
        <mxCell id="-z9te3pbn1G7zqjihGLt-149" value="" style="endArrow=none;html=1;rounded=0;" edge="1" parent="1" target="-z9te3pbn1G7zqjihGLt-150">
          <mxGeometry width="50" height="50" relative="1" as="geometry">
            <mxPoint x="-1310" y="1540" as="sourcePoint" />
            <mxPoint x="-1390" y="1610" as="targetPoint" />
          </mxGeometry>
        </mxCell>
        <mxCell id="-z9te3pbn1G7zqjihGLt-150" value="Language" style="ellipse;whiteSpace=wrap;html=1;" vertex="1" parent="1">
          <mxGeometry x="-1570" y="1630" width="190" height="50" as="geometry" />
        </mxCell>
        <mxCell id="-z9te3pbn1G7zqjihGLt-151" value="" style="endArrow=none;html=1;rounded=0;exitX=0;exitY=0;exitDx=0;exitDy=0;" edge="1" parent="1" source="-z9te3pbn1G7zqjihGLt-133" target="-z9te3pbn1G7zqjihGLt-152">
          <mxGeometry width="50" height="50" relative="1" as="geometry">
            <mxPoint x="-1270" y="1425" as="sourcePoint" />
            <mxPoint x="-1440" y="1335" as="targetPoint" />
          </mxGeometry>
        </mxCell>
        <mxCell id="-z9te3pbn1G7zqjihGLt-152" value="Type" style="ellipse;whiteSpace=wrap;html=1;" vertex="1" parent="1">
          <mxGeometry x="-1620" y="1355" width="190" height="50" as="geometry" />
        </mxCell>
        <mxCell id="-z9te3pbn1G7zqjihGLt-153" value="User" style="rounded=0;whiteSpace=wrap;html=1;" vertex="1" parent="1">
          <mxGeometry x="270" y="-850" width="120" height="60" as="geometry" />
        </mxCell>
        <mxCell id="-z9te3pbn1G7zqjihGLt-154" value="" style="endArrow=none;html=1;rounded=0;exitX=1;exitY=0;exitDx=0;exitDy=0;" edge="1" parent="1" target="-z9te3pbn1G7zqjihGLt-155">
          <mxGeometry width="50" height="50" relative="1" as="geometry">
            <mxPoint x="390" y="-850" as="sourcePoint" />
            <mxPoint x="740" y="-950" as="targetPoint" />
          </mxGeometry>
        </mxCell>
        <mxCell id="-z9te3pbn1G7zqjihGLt-155" value="Name" style="ellipse;whiteSpace=wrap;html=1;" vertex="1" parent="1">
          <mxGeometry x="740" y="-910" width="190" height="50" as="geometry" />
        </mxCell>
        <mxCell id="-z9te3pbn1G7zqjihGLt-156" value="" style="endArrow=none;html=1;rounded=0;exitX=1;exitY=0;exitDx=0;exitDy=0;" edge="1" parent="1" source="-z9te3pbn1G7zqjihGLt-153" target="-z9te3pbn1G7zqjihGLt-157">
          <mxGeometry width="50" height="50" relative="1" as="geometry">
            <mxPoint x="350" y="-900" as="sourcePoint" />
            <mxPoint x="700" y="-1000" as="targetPoint" />
          </mxGeometry>
        </mxCell>
        <mxCell id="-z9te3pbn1G7zqjihGLt-157" value="&lt;u&gt;&lt;b&gt;User_ID&lt;/b&gt;&lt;/u&gt;" style="ellipse;whiteSpace=wrap;html=1;" vertex="1" parent="1">
          <mxGeometry x="520" y="-980" width="190" height="50" as="geometry" />
        </mxCell>
        <mxCell id="-z9te3pbn1G7zqjihGLt-160" value="" style="endArrow=none;html=1;rounded=0;exitX=1;exitY=1;exitDx=0;exitDy=0;" edge="1" parent="1" source="-z9te3pbn1G7zqjihGLt-153" target="-z9te3pbn1G7zqjihGLt-161">
          <mxGeometry width="50" height="50" relative="1" as="geometry">
            <mxPoint x="380" y="-650" as="sourcePoint" />
            <mxPoint x="730" y="-750" as="targetPoint" />
          </mxGeometry>
        </mxCell>
        <mxCell id="-z9te3pbn1G7zqjihGLt-161" value="Email" style="ellipse;whiteSpace=wrap;html=1;" vertex="1" parent="1">
          <mxGeometry x="550" y="-730" width="190" height="50" as="geometry" />
        </mxCell>
        <mxCell id="-z9te3pbn1G7zqjihGLt-162" value="" style="endArrow=none;html=1;rounded=0;exitX=1;exitY=1;exitDx=0;exitDy=0;" edge="1" parent="1" source="-z9te3pbn1G7zqjihGLt-153" target="-z9te3pbn1G7zqjihGLt-163">
          <mxGeometry width="50" height="50" relative="1" as="geometry">
            <mxPoint x="320" y="-600" as="sourcePoint" />
            <mxPoint x="670" y="-700" as="targetPoint" />
          </mxGeometry>
        </mxCell>
        <mxCell id="-z9te3pbn1G7zqjihGLt-163" value="Password" style="ellipse;whiteSpace=wrap;html=1;" vertex="1" parent="1">
          <mxGeometry x="490" y="-680" width="190" height="50" as="geometry" />
        </mxCell>
        <mxCell id="-z9te3pbn1G7zqjihGLt-164" value="" style="endArrow=none;html=1;rounded=0;exitX=1;exitY=1;exitDx=0;exitDy=0;" edge="1" parent="1" source="-z9te3pbn1G7zqjihGLt-153" target="-z9te3pbn1G7zqjihGLt-165">
          <mxGeometry width="50" height="50" relative="1" as="geometry">
            <mxPoint x="510" y="-700" as="sourcePoint" />
            <mxPoint x="860" y="-800" as="targetPoint" />
          </mxGeometry>
        </mxCell>
        <mxCell id="-z9te3pbn1G7zqjihGLt-165" value="DOB" style="ellipse;whiteSpace=wrap;html=1;" vertex="1" parent="1">
          <mxGeometry x="680" y="-780" width="190" height="50" as="geometry" />
        </mxCell>
        <mxCell id="-z9te3pbn1G7zqjihGLt-166" value="" style="endArrow=none;html=1;rounded=0;exitX=0;exitY=1;exitDx=0;exitDy=0;entryX=0.555;entryY=0.04;entryDx=0;entryDy=0;entryPerimeter=0;" edge="1" parent="1" source="-z9te3pbn1G7zqjihGLt-153" target="n116JVMDm5xwNgPDnoRn-433">
          <mxGeometry width="50" height="50" relative="1" as="geometry">
            <mxPoint x="-170" y="-615" as="sourcePoint" />
            <mxPoint x="129.0378351559475" y="-693.340229821222" as="targetPoint" />
          </mxGeometry>
        </mxCell>
        <mxCell id="-z9te3pbn1G7zqjihGLt-168" value="" style="endArrow=none;html=1;rounded=0;exitX=0;exitY=1;exitDx=0;exitDy=0;" edge="1" parent="1" source="-z9te3pbn1G7zqjihGLt-153" target="-z9te3pbn1G7zqjihGLt-169">
          <mxGeometry width="50" height="50" relative="1" as="geometry">
            <mxPoint x="-285" y="-660" as="sourcePoint" />
            <mxPoint x="65" y="-760" as="targetPoint" />
          </mxGeometry>
        </mxCell>
        <mxCell id="-z9te3pbn1G7zqjihGLt-169" value="Address" style="ellipse;whiteSpace=wrap;html=1;" vertex="1" parent="1">
          <mxGeometry x="-115" y="-740" width="190" height="50" as="geometry" />
        </mxCell>
        <mxCell id="-z9te3pbn1G7zqjihGLt-170" value="" style="endArrow=none;html=1;rounded=0;exitX=0;exitY=1;exitDx=0;exitDy=0;" edge="1" parent="1" source="-z9te3pbn1G7zqjihGLt-153" target="-z9te3pbn1G7zqjihGLt-171">
          <mxGeometry width="50" height="50" relative="1" as="geometry">
            <mxPoint x="-300" y="-715" as="sourcePoint" />
            <mxPoint x="50" y="-815" as="targetPoint" />
          </mxGeometry>
        </mxCell>
        <mxCell id="-z9te3pbn1G7zqjihGLt-171" value="Country" style="ellipse;whiteSpace=wrap;html=1;" vertex="1" parent="1">
          <mxGeometry x="-130" y="-795" width="190" height="50" as="geometry" />
        </mxCell>
        <mxCell id="-z9te3pbn1G7zqjihGLt-178" value="" style="endArrow=none;html=1;rounded=0;exitX=0.5;exitY=0;exitDx=0;exitDy=0;" edge="1" parent="1" source="-z9te3pbn1G7zqjihGLt-155" target="-z9te3pbn1G7zqjihGLt-179">
          <mxGeometry width="50" height="50" relative="1" as="geometry">
            <mxPoint x="830" y="-920" as="sourcePoint" />
            <mxPoint x="980" y="-1080" as="targetPoint" />
          </mxGeometry>
        </mxCell>
        <mxCell id="-z9te3pbn1G7zqjihGLt-179" value="First Name" style="ellipse;whiteSpace=wrap;html=1;" vertex="1" parent="1">
          <mxGeometry x="800" y="-1060" width="190" height="50" as="geometry" />
        </mxCell>
        <mxCell id="-z9te3pbn1G7zqjihGLt-181" value="" style="endArrow=none;html=1;rounded=0;exitX=1;exitY=0;exitDx=0;exitDy=0;" edge="1" parent="1" source="-z9te3pbn1G7zqjihGLt-155" target="-z9te3pbn1G7zqjihGLt-182">
          <mxGeometry width="50" height="50" relative="1" as="geometry">
            <mxPoint x="900" y="-880" as="sourcePoint" />
            <mxPoint x="1210" y="-1030" as="targetPoint" />
          </mxGeometry>
        </mxCell>
        <mxCell id="-z9te3pbn1G7zqjihGLt-182" value="Middle Name" style="ellipse;whiteSpace=wrap;html=1;" vertex="1" parent="1">
          <mxGeometry x="1030" y="-1010" width="190" height="50" as="geometry" />
        </mxCell>
        <mxCell id="-z9te3pbn1G7zqjihGLt-183" value="" style="endArrow=none;html=1;rounded=0;exitX=1;exitY=1;exitDx=0;exitDy=0;" edge="1" parent="1" source="-z9te3pbn1G7zqjihGLt-155" target="-z9te3pbn1G7zqjihGLt-184">
          <mxGeometry width="50" height="50" relative="1" as="geometry">
            <mxPoint x="910" y="-750" as="sourcePoint" />
            <mxPoint x="1220" y="-900" as="targetPoint" />
          </mxGeometry>
        </mxCell>
        <mxCell id="-z9te3pbn1G7zqjihGLt-184" value="Last name" style="ellipse;whiteSpace=wrap;html=1;" vertex="1" parent="1">
          <mxGeometry x="1040" y="-880" width="190" height="50" as="geometry" />
        </mxCell>
        <mxCell id="-z9te3pbn1G7zqjihGLt-185" value="" style="endArrow=none;html=1;rounded=0;exitX=0;exitY=1;exitDx=0;exitDy=0;" edge="1" parent="1" target="-z9te3pbn1G7zqjihGLt-186">
          <mxGeometry width="50" height="50" relative="1" as="geometry">
            <mxPoint x="-115" y="-715" as="sourcePoint" />
            <mxPoint x="-335" y="-740" as="targetPoint" />
          </mxGeometry>
        </mxCell>
        <mxCell id="-z9te3pbn1G7zqjihGLt-186" value="Street Address" style="ellipse;whiteSpace=wrap;html=1;" vertex="1" parent="1">
          <mxGeometry x="-515" y="-720" width="190" height="50" as="geometry" />
        </mxCell>
        <mxCell id="-z9te3pbn1G7zqjihGLt-187" value="" style="endArrow=none;html=1;rounded=0;exitX=0;exitY=0.5;exitDx=0;exitDy=0;" edge="1" parent="1" source="-z9te3pbn1G7zqjihGLt-169" target="-z9te3pbn1G7zqjihGLt-188">
          <mxGeometry width="50" height="50" relative="1" as="geometry">
            <mxPoint x="-70" y="-655" as="sourcePoint" />
            <mxPoint x="-290" y="-680" as="targetPoint" />
          </mxGeometry>
        </mxCell>
        <mxCell id="-z9te3pbn1G7zqjihGLt-188" value="Postal Code" style="ellipse;whiteSpace=wrap;html=1;" vertex="1" parent="1">
          <mxGeometry x="-470" y="-660" width="190" height="50" as="geometry" />
        </mxCell>
        <mxCell id="-z9te3pbn1G7zqjihGLt-189" value="" style="endArrow=none;html=1;rounded=0;exitX=0;exitY=0.5;exitDx=0;exitDy=0;" edge="1" parent="1" source="-z9te3pbn1G7zqjihGLt-169" target="-z9te3pbn1G7zqjihGLt-190">
          <mxGeometry width="50" height="50" relative="1" as="geometry">
            <mxPoint x="-120" y="-710" as="sourcePoint" />
            <mxPoint x="-175" y="-630" as="targetPoint" />
          </mxGeometry>
        </mxCell>
        <mxCell id="-z9te3pbn1G7zqjihGLt-190" value="City" style="ellipse;whiteSpace=wrap;html=1;" vertex="1" parent="1">
          <mxGeometry x="-355" y="-610" width="190" height="50" as="geometry" />
        </mxCell>
        <mxCell id="-z9te3pbn1G7zqjihGLt-191" value="" style="endArrow=none;html=1;rounded=0;exitX=0;exitY=0.5;exitDx=0;exitDy=0;" edge="1" parent="1" source="-z9te3pbn1G7zqjihGLt-169" target="-z9te3pbn1G7zqjihGLt-192">
          <mxGeometry width="50" height="50" relative="1" as="geometry">
            <mxPoint x="-110" y="-775" as="sourcePoint" />
            <mxPoint x="-330" y="-800" as="targetPoint" />
          </mxGeometry>
        </mxCell>
        <mxCell id="-z9te3pbn1G7zqjihGLt-192" value="State" style="ellipse;whiteSpace=wrap;html=1;" vertex="1" parent="1">
          <mxGeometry x="-510" y="-780" width="190" height="50" as="geometry" />
        </mxCell>
        <mxCell id="-z9te3pbn1G7zqjihGLt-193" value="" style="endArrow=none;html=1;rounded=0;" edge="1" parent="1" target="-z9te3pbn1G7zqjihGLt-194">
          <mxGeometry width="50" height="50" relative="1" as="geometry">
            <mxPoint x="390" y="-850" as="sourcePoint" />
            <mxPoint x="645" y="-1060" as="targetPoint" />
          </mxGeometry>
        </mxCell>
        <mxCell id="-z9te3pbn1G7zqjihGLt-194" value="Eye Color" style="ellipse;whiteSpace=wrap;html=1;" vertex="1" parent="1">
          <mxGeometry x="465" y="-1040" width="190" height="50" as="geometry" />
        </mxCell>
        <mxCell id="-z9te3pbn1G7zqjihGLt-195" value="" style="endArrow=none;html=1;rounded=0;exitX=1;exitY=1;exitDx=0;exitDy=0;" edge="1" parent="1" source="-z9te3pbn1G7zqjihGLt-153" target="-z9te3pbn1G7zqjihGLt-196">
          <mxGeometry width="50" height="50" relative="1" as="geometry">
            <mxPoint x="390" y="-780" as="sourcePoint" />
            <mxPoint x="560" y="-650" as="targetPoint" />
          </mxGeometry>
        </mxCell>
        <mxCell id="-z9te3pbn1G7zqjihGLt-196" value="Height" style="ellipse;whiteSpace=wrap;html=1;" vertex="1" parent="1">
          <mxGeometry x="380" y="-630" width="190" height="50" as="geometry" />
        </mxCell>
        <mxCell id="-z9te3pbn1G7zqjihGLt-197" value="" style="endArrow=none;html=1;rounded=0;" edge="1" parent="1" target="-z9te3pbn1G7zqjihGLt-198">
          <mxGeometry width="50" height="50" relative="1" as="geometry">
            <mxPoint x="270" y="-850" as="sourcePoint" />
            <mxPoint x="390" y="-1080" as="targetPoint" />
          </mxGeometry>
        </mxCell>
        <mxCell id="-z9te3pbn1G7zqjihGLt-198" value="Gender" style="ellipse;whiteSpace=wrap;html=1;" vertex="1" parent="1">
          <mxGeometry x="-115" y="-950" width="190" height="50" as="geometry" />
        </mxCell>
        <mxCell id="-z9te3pbn1G7zqjihGLt-199" value="" style="endArrow=none;html=1;rounded=0;exitX=0;exitY=0.5;exitDx=0;exitDy=0;" edge="1" parent="1" source="-z9te3pbn1G7zqjihGLt-31">
          <mxGeometry width="50" height="50" relative="1" as="geometry">
            <mxPoint x="-510" y="1250" as="sourcePoint" />
            <mxPoint x="-510" y="330" as="targetPoint" />
            <Array as="points">
              <mxPoint x="-510" y="1900" />
            </Array>
          </mxGeometry>
        </mxCell>
        <mxCell id="-z9te3pbn1G7zqjihGLt-200" value="makes" style="rhombus;whiteSpace=wrap;html=1;" vertex="1" parent="1">
          <mxGeometry x="-550" y="250" width="80" height="80" as="geometry" />
        </mxCell>
        <mxCell id="-z9te3pbn1G7zqjihGLt-204" value="" style="endArrow=none;html=1;rounded=0;exitX=0.5;exitY=0;exitDx=0;exitDy=0;" edge="1" parent="1" source="-z9te3pbn1G7zqjihGLt-200">
          <mxGeometry width="50" height="50" relative="1" as="geometry">
            <mxPoint x="-310" y="120" as="sourcePoint" />
            <mxPoint x="280" y="-790" as="targetPoint" />
            <Array as="points">
              <mxPoint x="-510" y="-380" />
              <mxPoint x="280" y="-390" />
            </Array>
          </mxGeometry>
        </mxCell>
        <mxCell id="-z9te3pbn1G7zqjihGLt-206" value="" style="endArrow=none;html=1;rounded=0;exitX=1;exitY=0;exitDx=0;exitDy=0;" edge="1" parent="1" target="-z9te3pbn1G7zqjihGLt-207">
          <mxGeometry width="50" height="50" relative="1" as="geometry">
            <mxPoint x="2530" y="900" as="sourcePoint" />
            <mxPoint x="2880" y="800" as="targetPoint" />
          </mxGeometry>
        </mxCell>
        <mxCell id="-z9te3pbn1G7zqjihGLt-207" value="&lt;b&gt;&lt;u&gt;Lake_ID&lt;/u&gt;&lt;/b&gt;" style="ellipse;whiteSpace=wrap;html=1;" vertex="1" parent="1">
          <mxGeometry x="2660" y="770" width="190" height="50" as="geometry" />
        </mxCell>
        <mxCell id="-z9te3pbn1G7zqjihGLt-208" value="" style="endArrow=none;html=1;rounded=0;exitX=1;exitY=0;exitDx=0;exitDy=0;" edge="1" parent="1" source="-z9te3pbn1G7zqjihGLt-14" target="-z9te3pbn1G7zqjihGLt-209">
          <mxGeometry width="50" height="50" relative="1" as="geometry">
            <mxPoint x="2550" y="990" as="sourcePoint" />
            <mxPoint x="2900" y="890" as="targetPoint" />
          </mxGeometry>
        </mxCell>
        <mxCell id="-z9te3pbn1G7zqjihGLt-209" value="Name" style="ellipse;whiteSpace=wrap;html=1;" vertex="1" parent="1">
          <mxGeometry x="2740" y="827" width="190" height="50" as="geometry" />
        </mxCell>
        <mxCell id="-z9te3pbn1G7zqjihGLt-210" value="" style="endArrow=none;html=1;rounded=0;exitX=1;exitY=1;exitDx=0;exitDy=0;" edge="1" parent="1" source="-z9te3pbn1G7zqjihGLt-14" target="-z9te3pbn1G7zqjihGLt-211">
          <mxGeometry width="50" height="50" relative="1" as="geometry">
            <mxPoint x="2590" y="1110" as="sourcePoint" />
            <mxPoint x="2940" y="1010" as="targetPoint" />
          </mxGeometry>
        </mxCell>
        <mxCell id="-z9te3pbn1G7zqjihGLt-211" value="Location" style="ellipse;whiteSpace=wrap;html=1;" vertex="1" parent="1">
          <mxGeometry x="2720" y="980" width="190" height="50" as="geometry" />
        </mxCell>
        <mxCell id="-z9te3pbn1G7zqjihGLt-212" value="" style="endArrow=none;html=1;rounded=0;exitX=0;exitY=0;exitDx=0;exitDy=0;" edge="1" parent="1" source="-z9te3pbn1G7zqjihGLt-14" target="-z9te3pbn1G7zqjihGLt-213">
          <mxGeometry width="50" height="50" relative="1" as="geometry">
            <mxPoint x="2520" y="1160" as="sourcePoint" />
            <mxPoint x="2870" y="1060" as="targetPoint" />
          </mxGeometry>
        </mxCell>
        <mxCell id="-z9te3pbn1G7zqjihGLt-213" value="Surface Area" style="ellipse;whiteSpace=wrap;html=1;" vertex="1" parent="1">
          <mxGeometry x="2110" y="740" width="190" height="50" as="geometry" />
        </mxCell>
        <mxCell id="-z9te3pbn1G7zqjihGLt-214" value="" style="endArrow=none;html=1;rounded=0;exitX=0;exitY=1;exitDx=0;exitDy=0;" edge="1" parent="1" source="-z9te3pbn1G7zqjihGLt-14" target="-z9te3pbn1G7zqjihGLt-215">
          <mxGeometry width="50" height="50" relative="1" as="geometry">
            <mxPoint x="2040" y="1190" as="sourcePoint" />
            <mxPoint x="2390" y="1090" as="targetPoint" />
          </mxGeometry>
        </mxCell>
        <mxCell id="-z9te3pbn1G7zqjihGLt-215" value="Depth" style="ellipse;whiteSpace=wrap;html=1;" vertex="1" parent="1">
          <mxGeometry x="2010" y="1000" width="190" height="50" as="geometry" />
        </mxCell>
        <mxCell id="-z9te3pbn1G7zqjihGLt-216" value="" style="endArrow=none;html=1;rounded=0;exitX=0;exitY=0;exitDx=0;exitDy=0;" edge="1" parent="1" source="-z9te3pbn1G7zqjihGLt-14" target="-z9te3pbn1G7zqjihGLt-217">
          <mxGeometry width="50" height="50" relative="1" as="geometry">
            <mxPoint x="2410" y="960" as="sourcePoint" />
            <mxPoint x="2280" y="1040" as="targetPoint" />
          </mxGeometry>
        </mxCell>
        <mxCell id="-z9te3pbn1G7zqjihGLt-217" value="Water Quality" style="ellipse;whiteSpace=wrap;html=1;" vertex="1" parent="1">
          <mxGeometry x="2010" y="790" width="190" height="50" as="geometry" />
        </mxCell>
        <mxCell id="-z9te3pbn1G7zqjihGLt-239" value="" style="endArrow=none;html=1;rounded=0;entryX=0.5;entryY=1;entryDx=0;entryDy=0;" edge="1" parent="1" target="-z9te3pbn1G7zqjihGLt-14">
          <mxGeometry width="50" height="50" relative="1" as="geometry">
            <mxPoint x="2470" y="1210" as="sourcePoint" />
            <mxPoint x="2470" y="1160" as="targetPoint" />
          </mxGeometry>
        </mxCell>
        <mxCell id="-z9te3pbn1G7zqjihGLt-240" value="undergoes" style="rhombus;whiteSpace=wrap;html=1;" vertex="1" parent="1">
          <mxGeometry x="2430" y="1190" width="80" height="80" as="geometry" />
        </mxCell>
        <mxCell id="-z9te3pbn1G7zqjihGLt-241" value="" style="endArrow=none;html=1;rounded=0;entryX=0.5;entryY=1;entryDx=0;entryDy=0;" edge="1" parent="1" target="-z9te3pbn1G7zqjihGLt-240">
          <mxGeometry width="50" height="50" relative="1" as="geometry">
            <mxPoint x="2470" y="1450" as="sourcePoint" />
            <mxPoint x="2470" y="1160" as="targetPoint" />
          </mxGeometry>
        </mxCell>
        <mxCell id="-z9te3pbn1G7zqjihGLt-242" value="Monitoring" style="rounded=0;whiteSpace=wrap;html=1;" vertex="1" parent="1">
          <mxGeometry x="2410" y="1450" width="120" height="60" as="geometry" />
        </mxCell>
        <mxCell id="-z9te3pbn1G7zqjihGLt-243" value="" style="endArrow=none;html=1;rounded=0;exitX=1;exitY=0;exitDx=0;exitDy=0;" edge="1" parent="1" target="-z9te3pbn1G7zqjihGLt-244">
          <mxGeometry width="50" height="50" relative="1" as="geometry">
            <mxPoint x="2530" y="1450" as="sourcePoint" />
            <mxPoint x="2900" y="1440" as="targetPoint" />
          </mxGeometry>
        </mxCell>
        <mxCell id="-z9te3pbn1G7zqjihGLt-244" value="&lt;u&gt;&lt;b&gt;Monitoring_ID&lt;/b&gt;&lt;/u&gt;" style="ellipse;whiteSpace=wrap;html=1;" vertex="1" parent="1">
          <mxGeometry x="2740" y="1377" width="190" height="50" as="geometry" />
        </mxCell>
        <mxCell id="-z9te3pbn1G7zqjihGLt-245" value="" style="endArrow=none;html=1;rounded=0;exitX=1;exitY=0;exitDx=0;exitDy=0;" edge="1" parent="1" source="-z9te3pbn1G7zqjihGLt-242" target="-z9te3pbn1G7zqjihGLt-246">
          <mxGeometry width="50" height="50" relative="1" as="geometry">
            <mxPoint x="2555" y="1510" as="sourcePoint" />
            <mxPoint x="2925" y="1500" as="targetPoint" />
          </mxGeometry>
        </mxCell>
        <mxCell id="-z9te3pbn1G7zqjihGLt-246" value="Date" style="ellipse;whiteSpace=wrap;html=1;" vertex="1" parent="1">
          <mxGeometry x="2765" y="1437" width="190" height="50" as="geometry" />
        </mxCell>
        <mxCell id="-z9te3pbn1G7zqjihGLt-247" value="" style="endArrow=none;html=1;rounded=0;exitX=1;exitY=1;exitDx=0;exitDy=0;" edge="1" parent="1" target="-z9te3pbn1G7zqjihGLt-248">
          <mxGeometry width="50" height="50" relative="1" as="geometry">
            <mxPoint x="2530" y="1510" as="sourcePoint" />
            <mxPoint x="2940" y="1560" as="targetPoint" />
          </mxGeometry>
        </mxCell>
        <mxCell id="-z9te3pbn1G7zqjihGLt-248" value="Water Temperature" style="ellipse;whiteSpace=wrap;html=1;" vertex="1" parent="1">
          <mxGeometry x="2720" y="1530" width="190" height="50" as="geometry" />
        </mxCell>
        <mxCell id="-z9te3pbn1G7zqjihGLt-249" value="" style="endArrow=none;html=1;rounded=0;exitX=0;exitY=1;exitDx=0;exitDy=0;" edge="1" parent="1" target="-z9te3pbn1G7zqjihGLt-250">
          <mxGeometry width="50" height="50" relative="1" as="geometry">
            <mxPoint x="2410" y="1510" as="sourcePoint" />
            <mxPoint x="2390" y="1640" as="targetPoint" />
          </mxGeometry>
        </mxCell>
        <mxCell id="-z9te3pbn1G7zqjihGLt-250" value="PH Level" style="ellipse;whiteSpace=wrap;html=1;" vertex="1" parent="1">
          <mxGeometry x="2010" y="1550" width="190" height="50" as="geometry" />
        </mxCell>
        <mxCell id="-z9te3pbn1G7zqjihGLt-251" value="" style="endArrow=none;html=1;rounded=0;exitX=0;exitY=0;exitDx=0;exitDy=0;" edge="1" parent="1">
          <mxGeometry width="50" height="50" relative="1" as="geometry">
            <mxPoint x="2410" y="1450" as="sourcePoint" />
            <mxPoint x="2170.2229560412234" y="1383.1768893885378" as="targetPoint" />
          </mxGeometry>
        </mxCell>
        <mxCell id="n116JVMDm5xwNgPDnoRn-1" value="Contact" style="rounded=0;whiteSpace=wrap;html=1;" vertex="1" parent="1">
          <mxGeometry x="2710" y="-855" width="120" height="60" as="geometry" />
        </mxCell>
        <mxCell id="n116JVMDm5xwNgPDnoRn-2" value="" style="endArrow=none;html=1;rounded=0;exitX=1;exitY=0;exitDx=0;exitDy=0;" edge="1" parent="1" target="n116JVMDm5xwNgPDnoRn-3">
          <mxGeometry width="50" height="50" relative="1" as="geometry">
            <mxPoint x="2830" y="-855" as="sourcePoint" />
            <mxPoint x="3138" y="-982" as="targetPoint" />
          </mxGeometry>
        </mxCell>
        <mxCell id="n116JVMDm5xwNgPDnoRn-3" value="&lt;b&gt;&lt;u&gt;Contact_ID&lt;/u&gt;&lt;/b&gt;" style="ellipse;whiteSpace=wrap;html=1;" vertex="1" parent="1">
          <mxGeometry x="2958" y="-962" width="190" height="50" as="geometry" />
        </mxCell>
        <mxCell id="n116JVMDm5xwNgPDnoRn-4" value="" style="endArrow=none;html=1;rounded=0;" edge="1" parent="1">
          <mxGeometry width="50" height="50" relative="1" as="geometry">
            <mxPoint x="2830" y="-850" as="sourcePoint" />
            <mxPoint x="3017.0995019671454" y="-874.3231019394191" as="targetPoint" />
          </mxGeometry>
        </mxCell>
        <mxCell id="n116JVMDm5xwNgPDnoRn-6" value="" style="endArrow=none;html=1;rounded=0;exitX=1;exitY=1;exitDx=0;exitDy=0;" edge="1" parent="1" source="n116JVMDm5xwNgPDnoRn-1">
          <mxGeometry width="50" height="50" relative="1" as="geometry">
            <mxPoint x="2860" y="-660" as="sourcePoint" />
            <mxPoint x="3008.0970923695586" y="-757.3774181228057" as="targetPoint" />
          </mxGeometry>
        </mxCell>
        <mxCell id="n116JVMDm5xwNgPDnoRn-8" value="" style="endArrow=none;html=1;rounded=0;exitX=1;exitY=1;exitDx=0;exitDy=0;" edge="1" parent="1" source="n116JVMDm5xwNgPDnoRn-1" target="n116JVMDm5xwNgPDnoRn-9">
          <mxGeometry width="50" height="50" relative="1" as="geometry">
            <mxPoint x="2780" y="-613" as="sourcePoint" />
            <mxPoint x="3088" y="-740" as="targetPoint" />
          </mxGeometry>
        </mxCell>
        <mxCell id="n116JVMDm5xwNgPDnoRn-9" value="Address" style="ellipse;whiteSpace=wrap;html=1;" vertex="1" parent="1">
          <mxGeometry x="2908" y="-720" width="190" height="50" as="geometry" />
        </mxCell>
        <mxCell id="n116JVMDm5xwNgPDnoRn-10" value="" style="endArrow=none;html=1;rounded=0;exitX=0;exitY=0;exitDx=0;exitDy=0;" edge="1" parent="1" source="n116JVMDm5xwNgPDnoRn-1">
          <mxGeometry width="50" height="50" relative="1" as="geometry">
            <mxPoint x="2220" y="-831.5" as="sourcePoint" />
            <mxPoint x="2516.055818559362" y="-897.5190396901398" as="targetPoint" />
          </mxGeometry>
        </mxCell>
        <mxCell id="n116JVMDm5xwNgPDnoRn-12" value="" style="endArrow=none;html=1;rounded=0;exitX=0;exitY=0;exitDx=0;exitDy=0;" edge="1" parent="1" source="n116JVMDm5xwNgPDnoRn-1" target="n116JVMDm5xwNgPDnoRn-13">
          <mxGeometry width="50" height="50" relative="1" as="geometry">
            <mxPoint x="2192" y="-773" as="sourcePoint" />
            <mxPoint x="2500" y="-900" as="targetPoint" />
          </mxGeometry>
        </mxCell>
        <mxCell id="n116JVMDm5xwNgPDnoRn-13" value="Website" style="ellipse;whiteSpace=wrap;html=1;" vertex="1" parent="1">
          <mxGeometry x="2320" y="-880" width="190" height="50" as="geometry" />
        </mxCell>
        <mxCell id="n116JVMDm5xwNgPDnoRn-14" value="" style="endArrow=none;html=1;rounded=0;exitX=0;exitY=1;exitDx=0;exitDy=0;" edge="1" parent="1" source="n116JVMDm5xwNgPDnoRn-1">
          <mxGeometry width="50" height="50" relative="1" as="geometry">
            <mxPoint x="2180" y="-651.5" as="sourcePoint" />
            <mxPoint x="2479.2379918870547" y="-748.416128847467" as="targetPoint" />
          </mxGeometry>
        </mxCell>
        <mxCell id="n116JVMDm5xwNgPDnoRn-16" value="" style="endArrow=none;html=1;rounded=0;exitX=0;exitY=1;exitDx=0;exitDy=0;" edge="1" parent="1" source="n116JVMDm5xwNgPDnoRn-1" target="n116JVMDm5xwNgPDnoRn-17">
          <mxGeometry width="50" height="50" relative="1" as="geometry">
            <mxPoint x="2220" y="-601.5" as="sourcePoint" />
            <mxPoint x="2528" y="-728.5" as="targetPoint" />
          </mxGeometry>
        </mxCell>
        <mxCell id="n116JVMDm5xwNgPDnoRn-17" value="About" style="ellipse;whiteSpace=wrap;html=1;" vertex="1" parent="1">
          <mxGeometry x="2348" y="-708.5" width="190" height="50" as="geometry" />
        </mxCell>
        <mxCell id="n116JVMDm5xwNgPDnoRn-18" value="" style="endArrow=none;html=1;rounded=0;" edge="1" parent="1" target="n116JVMDm5xwNgPDnoRn-19">
          <mxGeometry width="50" height="50" relative="1" as="geometry">
            <mxPoint x="3100" y="-693" as="sourcePoint" />
            <mxPoint x="3410" y="-718.5" as="targetPoint" />
          </mxGeometry>
        </mxCell>
        <mxCell id="n116JVMDm5xwNgPDnoRn-19" value="Street Address" style="ellipse;whiteSpace=wrap;html=1;" vertex="1" parent="1">
          <mxGeometry x="3230" y="-698.5" width="190" height="50" as="geometry" />
        </mxCell>
        <mxCell id="n116JVMDm5xwNgPDnoRn-20" value="" style="endArrow=none;html=1;rounded=0;" edge="1" parent="1" target="n116JVMDm5xwNgPDnoRn-21">
          <mxGeometry width="50" height="50" relative="1" as="geometry">
            <mxPoint x="3100" y="-693" as="sourcePoint" />
            <mxPoint x="3455" y="-658.5" as="targetPoint" />
          </mxGeometry>
        </mxCell>
        <mxCell id="n116JVMDm5xwNgPDnoRn-21" value="Postal Code" style="ellipse;whiteSpace=wrap;html=1;" vertex="1" parent="1">
          <mxGeometry x="3170" y="-645" width="190" height="50" as="geometry" />
        </mxCell>
        <mxCell id="n116JVMDm5xwNgPDnoRn-22" value="" style="endArrow=none;html=1;rounded=0;exitX=1;exitY=0.5;exitDx=0;exitDy=0;" edge="1" parent="1" source="n116JVMDm5xwNgPDnoRn-9" target="n116JVMDm5xwNgPDnoRn-23">
          <mxGeometry width="50" height="50" relative="1" as="geometry">
            <mxPoint x="3630" y="-693.5" as="sourcePoint" />
            <mxPoint x="3570" y="-608.5" as="targetPoint" />
          </mxGeometry>
        </mxCell>
        <mxCell id="n116JVMDm5xwNgPDnoRn-23" value="City" style="ellipse;whiteSpace=wrap;html=1;" vertex="1" parent="1">
          <mxGeometry x="3070" y="-588.5" width="190" height="50" as="geometry" />
        </mxCell>
        <mxCell id="n116JVMDm5xwNgPDnoRn-24" value="" style="endArrow=none;html=1;rounded=0;exitX=1;exitY=0.5;exitDx=0;exitDy=0;" edge="1" parent="1" source="n116JVMDm5xwNgPDnoRn-9" target="n116JVMDm5xwNgPDnoRn-25">
          <mxGeometry width="50" height="50" relative="1" as="geometry">
            <mxPoint x="3630" y="-693.5" as="sourcePoint" />
            <mxPoint x="3415" y="-778.5" as="targetPoint" />
          </mxGeometry>
        </mxCell>
        <mxCell id="n116JVMDm5xwNgPDnoRn-25" value="State" style="ellipse;whiteSpace=wrap;html=1;" vertex="1" parent="1">
          <mxGeometry x="3235" y="-758.5" width="190" height="50" as="geometry" />
        </mxCell>
        <mxCell id="n116JVMDm5xwNgPDnoRn-27" value="" style="endArrow=none;html=1;rounded=0;exitX=0.25;exitY=0;exitDx=0;exitDy=0;" edge="1" parent="1" source="-z9te3pbn1G7zqjihGLt-13">
          <mxGeometry width="50" height="50" relative="1" as="geometry">
            <mxPoint x="240" y="590" as="sourcePoint" />
            <mxPoint x="130" y="310" as="targetPoint" />
          </mxGeometry>
        </mxCell>
        <mxCell id="n116JVMDm5xwNgPDnoRn-261" value="1" style="edgeLabel;html=1;align=center;verticalAlign=middle;resizable=0;points=[];" connectable="0" vertex="1" parent="n116JVMDm5xwNgPDnoRn-27">
          <mxGeometry x="-0.9225" y="-4" relative="1" as="geometry">
            <mxPoint x="-14" as="offset" />
          </mxGeometry>
        </mxCell>
        <mxCell id="n116JVMDm5xwNgPDnoRn-28" value="has" style="rhombus;whiteSpace=wrap;html=1;" vertex="1" parent="1">
          <mxGeometry x="90" y="230" width="80" height="80" as="geometry" />
        </mxCell>
        <mxCell id="n116JVMDm5xwNgPDnoRn-30" value="" style="endArrow=none;html=1;rounded=0;exitX=0.5;exitY=0;exitDx=0;exitDy=0;entryX=0.25;entryY=1;entryDx=0;entryDy=0;" edge="1" parent="1" source="n116JVMDm5xwNgPDnoRn-31" target="n116JVMDm5xwNgPDnoRn-1">
          <mxGeometry width="50" height="50" relative="1" as="geometry">
            <mxPoint x="2450" as="sourcePoint" />
            <mxPoint x="2440" y="-300" as="targetPoint" />
            <Array as="points">
              <mxPoint x="2440" y="-230" />
              <mxPoint x="2740" y="-230" />
            </Array>
          </mxGeometry>
        </mxCell>
        <mxCell id="n116JVMDm5xwNgPDnoRn-31" value="has" style="rhombus;whiteSpace=wrap;html=1;" vertex="1" parent="1">
          <mxGeometry x="2400" y="100" width="80" height="80" as="geometry" />
        </mxCell>
        <mxCell id="n116JVMDm5xwNgPDnoRn-32" value="" style="endArrow=none;html=1;rounded=0;exitX=0.25;exitY=0;exitDx=0;exitDy=0;" edge="1" parent="1" source="-z9te3pbn1G7zqjihGLt-14">
          <mxGeometry width="50" height="50" relative="1" as="geometry">
            <mxPoint x="2250" y="190" as="sourcePoint" />
            <mxPoint x="2440" y="180" as="targetPoint" />
          </mxGeometry>
        </mxCell>
        <mxCell id="n116JVMDm5xwNgPDnoRn-33" value="" style="endArrow=none;html=1;rounded=0;exitX=0.25;exitY=0;exitDx=0;exitDy=0;entryX=0.5;entryY=1;entryDx=0;entryDy=0;" edge="1" parent="1" source="-z9te3pbn1G7zqjihGLt-15" target="n116JVMDm5xwNgPDnoRn-35">
          <mxGeometry width="50" height="50" relative="1" as="geometry">
            <mxPoint x="5340" y="880" as="sourcePoint" />
            <mxPoint x="3810" y="20" as="targetPoint" />
          </mxGeometry>
        </mxCell>
        <mxCell id="n116JVMDm5xwNgPDnoRn-34" value="" style="endArrow=none;html=1;rounded=0;entryX=0.5;entryY=0;entryDx=0;entryDy=0;exitX=0.5;exitY=1;exitDx=0;exitDy=0;" edge="1" parent="1">
          <mxGeometry width="50" height="50" relative="1" as="geometry">
            <mxPoint x="2765" y="-795.0000000000002" as="sourcePoint" />
            <mxPoint x="5334.999999999998" y="170" as="targetPoint" />
            <Array as="points">
              <mxPoint x="2765" y="-300" />
              <mxPoint x="5335" y="-310" />
            </Array>
          </mxGeometry>
        </mxCell>
        <mxCell id="n116JVMDm5xwNgPDnoRn-35" value="has" style="rhombus;whiteSpace=wrap;html=1;" vertex="1" parent="1">
          <mxGeometry x="5300" y="170" width="80" height="80" as="geometry" />
        </mxCell>
        <mxCell id="n116JVMDm5xwNgPDnoRn-36" value="" style="endArrow=none;html=1;rounded=0;exitX=0.25;exitY=1;exitDx=0;exitDy=0;" edge="1" parent="1" source="-z9te3pbn1G7zqjihGLt-153">
          <mxGeometry width="50" height="50" relative="1" as="geometry">
            <mxPoint x="330" y="-390" as="sourcePoint" />
            <mxPoint x="3690" y="-390" as="targetPoint" />
            <Array as="points">
              <mxPoint x="300" y="-390" />
            </Array>
          </mxGeometry>
        </mxCell>
        <mxCell id="n116JVMDm5xwNgPDnoRn-37" value="enroll" style="rhombus;whiteSpace=wrap;html=1;" vertex="1" parent="1">
          <mxGeometry x="3650" y="110" width="80" height="80" as="geometry" />
        </mxCell>
        <mxCell id="n116JVMDm5xwNgPDnoRn-38" value="" style="endArrow=none;html=1;rounded=0;exitX=0.5;exitY=0;exitDx=0;exitDy=0;" edge="1" parent="1" source="n116JVMDm5xwNgPDnoRn-37">
          <mxGeometry width="50" height="50" relative="1" as="geometry">
            <mxPoint x="3360" y="110" as="sourcePoint" />
            <mxPoint x="3690" y="-390" as="targetPoint" />
          </mxGeometry>
        </mxCell>
        <mxCell id="n116JVMDm5xwNgPDnoRn-43" value="" style="endArrow=none;html=1;rounded=0;entryX=0.5;entryY=1;entryDx=0;entryDy=0;exitX=0.75;exitY=1;exitDx=0;exitDy=0;" edge="1" parent="1" source="n116JVMDm5xwNgPDnoRn-134" target="n116JVMDm5xwNgPDnoRn-37">
          <mxGeometry width="50" height="50" relative="1" as="geometry">
            <mxPoint x="3700" y="3990" as="sourcePoint" />
            <mxPoint x="3170" y="180" as="targetPoint" />
            <Array as="points">
              <mxPoint x="7100" y="4870" />
              <mxPoint x="3720" y="4870" />
              <mxPoint x="3690" y="940" />
            </Array>
          </mxGeometry>
        </mxCell>
        <mxCell id="n116JVMDm5xwNgPDnoRn-54" value="Department" style="rounded=0;whiteSpace=wrap;html=1;" vertex="1" parent="1">
          <mxGeometry x="6410" y="1605" width="120" height="60" as="geometry" />
        </mxCell>
        <mxCell id="n116JVMDm5xwNgPDnoRn-59" value="" style="endArrow=none;html=1;rounded=0;" edge="1" parent="1" target="n116JVMDm5xwNgPDnoRn-60">
          <mxGeometry width="50" height="50" relative="1" as="geometry">
            <mxPoint x="5430" y="900" as="sourcePoint" />
            <mxPoint x="5668" y="720" as="targetPoint" />
          </mxGeometry>
        </mxCell>
        <mxCell id="n116JVMDm5xwNgPDnoRn-60" value="Type" style="ellipse;whiteSpace=wrap;html=1;" vertex="1" parent="1">
          <mxGeometry x="5488" y="740" width="190" height="50" as="geometry" />
        </mxCell>
        <mxCell id="n116JVMDm5xwNgPDnoRn-61" value="" style="endArrow=none;html=1;rounded=0;exitX=1;exitY=0;exitDx=0;exitDy=0;" edge="1" parent="1" source="-z9te3pbn1G7zqjihGLt-15" target="n116JVMDm5xwNgPDnoRn-62">
          <mxGeometry width="50" height="50" relative="1" as="geometry">
            <mxPoint x="5490" y="960" as="sourcePoint" />
            <mxPoint x="5728" y="780" as="targetPoint" />
          </mxGeometry>
        </mxCell>
        <mxCell id="n116JVMDm5xwNgPDnoRn-62" value="Location" style="ellipse;whiteSpace=wrap;html=1;" vertex="1" parent="1">
          <mxGeometry x="5548" y="800" width="190" height="50" as="geometry" />
        </mxCell>
        <mxCell id="n116JVMDm5xwNgPDnoRn-63" value="" style="endArrow=none;html=1;rounded=0;" edge="1" parent="1" target="n116JVMDm5xwNgPDnoRn-64">
          <mxGeometry width="50" height="50" relative="1" as="geometry">
            <mxPoint x="5310" y="960" as="sourcePoint" />
            <mxPoint x="5138" y="950" as="targetPoint" />
          </mxGeometry>
        </mxCell>
        <mxCell id="n116JVMDm5xwNgPDnoRn-64" value="Area" style="ellipse;whiteSpace=wrap;html=1;" vertex="1" parent="1">
          <mxGeometry x="4958" y="970" width="190" height="50" as="geometry" />
        </mxCell>
        <mxCell id="n116JVMDm5xwNgPDnoRn-65" value="" style="endArrow=none;html=1;rounded=0;exitX=0;exitY=1;exitDx=0;exitDy=0;" edge="1" parent="1" source="-z9te3pbn1G7zqjihGLt-15" target="n116JVMDm5xwNgPDnoRn-66">
          <mxGeometry width="50" height="50" relative="1" as="geometry">
            <mxPoint x="4900" y="1130" as="sourcePoint" />
            <mxPoint x="5198" y="1010" as="targetPoint" />
          </mxGeometry>
        </mxCell>
        <mxCell id="n116JVMDm5xwNgPDnoRn-66" value="Status" style="ellipse;whiteSpace=wrap;html=1;" vertex="1" parent="1">
          <mxGeometry x="5018" y="1030" width="190" height="50" as="geometry" />
        </mxCell>
        <mxCell id="n116JVMDm5xwNgPDnoRn-67" value="" style="endArrow=none;html=1;rounded=0;exitX=0;exitY=0;exitDx=0;exitDy=0;" edge="1" parent="1" source="-z9te3pbn1G7zqjihGLt-15" target="n116JVMDm5xwNgPDnoRn-68">
          <mxGeometry width="50" height="50" relative="1" as="geometry">
            <mxPoint x="4989" y="925" as="sourcePoint" />
            <mxPoint x="5227" y="745" as="targetPoint" />
          </mxGeometry>
        </mxCell>
        <mxCell id="n116JVMDm5xwNgPDnoRn-68" value="&lt;u&gt;&lt;b&gt;Resource_ID&lt;/b&gt;&lt;/u&gt;" style="ellipse;whiteSpace=wrap;html=1;" vertex="1" parent="1">
          <mxGeometry x="5047" y="765" width="190" height="50" as="geometry" />
        </mxCell>
        <mxCell id="n116JVMDm5xwNgPDnoRn-69" value="" style="endArrow=none;html=1;rounded=0;entryX=0.5;entryY=1;entryDx=0;entryDy=0;strokeColor=#000000;" edge="1" parent="1" target="n116JVMDm5xwNgPDnoRn-54">
          <mxGeometry width="50" height="50" relative="1" as="geometry">
            <mxPoint x="6470" y="1980" as="sourcePoint" />
            <mxPoint x="6060" y="1730" as="targetPoint" />
          </mxGeometry>
        </mxCell>
        <mxCell id="n116JVMDm5xwNgPDnoRn-70" value="" style="endArrow=none;html=1;rounded=0;exitX=0.5;exitY=0;exitDx=0;exitDy=0;strokeColor=#000000;" edge="1" parent="1" source="n116JVMDm5xwNgPDnoRn-72">
          <mxGeometry width="50" height="50" relative="1" as="geometry">
            <mxPoint x="4580" y="1980" as="sourcePoint" />
            <mxPoint x="8420" y="1970" as="targetPoint" />
            <Array as="points">
              <mxPoint x="4580" y="1970" />
            </Array>
          </mxGeometry>
        </mxCell>
        <mxCell id="n116JVMDm5xwNgPDnoRn-72" value="releases" style="rhombus;whiteSpace=wrap;html=1;" vertex="1" parent="1">
          <mxGeometry x="4540" y="2350" width="80" height="80" as="geometry" />
        </mxCell>
        <mxCell id="n116JVMDm5xwNgPDnoRn-73" value="" style="endArrow=none;html=1;rounded=0;entryX=0.5;entryY=1;entryDx=0;entryDy=0;exitX=0.5;exitY=0;exitDx=0;exitDy=0;" edge="1" parent="1" source="n116JVMDm5xwNgPDnoRn-74" target="n116JVMDm5xwNgPDnoRn-72">
          <mxGeometry width="50" height="50" relative="1" as="geometry">
            <mxPoint x="4580" y="2670" as="sourcePoint" />
            <mxPoint x="4820" y="2310" as="targetPoint" />
          </mxGeometry>
        </mxCell>
        <mxCell id="n116JVMDm5xwNgPDnoRn-74" value="Publication" style="rounded=0;whiteSpace=wrap;html=1;" vertex="1" parent="1">
          <mxGeometry x="4520" y="2860" width="120" height="60" as="geometry" />
        </mxCell>
        <mxCell id="n116JVMDm5xwNgPDnoRn-75" value="" style="endArrow=none;html=1;rounded=0;" edge="1" parent="1" target="n116JVMDm5xwNgPDnoRn-76">
          <mxGeometry width="50" height="50" relative="1" as="geometry">
            <mxPoint x="4640" y="2860" as="sourcePoint" />
            <mxPoint x="4878" y="2680" as="targetPoint" />
          </mxGeometry>
        </mxCell>
        <mxCell id="n116JVMDm5xwNgPDnoRn-76" value="&lt;b&gt;&lt;u&gt;Publication_ID&lt;/u&gt;&lt;/b&gt;" style="ellipse;whiteSpace=wrap;html=1;" vertex="1" parent="1">
          <mxGeometry x="4698" y="2700" width="190" height="50" as="geometry" />
        </mxCell>
        <mxCell id="n116JVMDm5xwNgPDnoRn-77" value="" style="endArrow=none;html=1;rounded=0;exitX=1;exitY=0;exitDx=0;exitDy=0;" edge="1" parent="1" target="n116JVMDm5xwNgPDnoRn-78">
          <mxGeometry width="50" height="50" relative="1" as="geometry">
            <mxPoint x="4640" y="2860" as="sourcePoint" />
            <mxPoint x="4938" y="2740" as="targetPoint" />
          </mxGeometry>
        </mxCell>
        <mxCell id="n116JVMDm5xwNgPDnoRn-78" value="Title" style="ellipse;whiteSpace=wrap;html=1;" vertex="1" parent="1">
          <mxGeometry x="4758" y="2760" width="190" height="50" as="geometry" />
        </mxCell>
        <mxCell id="n116JVMDm5xwNgPDnoRn-79" value="" style="endArrow=none;html=1;rounded=0;exitX=0;exitY=0;exitDx=0;exitDy=0;" edge="1" parent="1" source="n116JVMDm5xwNgPDnoRn-74" target="n116JVMDm5xwNgPDnoRn-80">
          <mxGeometry width="50" height="50" relative="1" as="geometry">
            <mxPoint x="4092" y="2880" as="sourcePoint" />
            <mxPoint x="4330" y="2700" as="targetPoint" />
          </mxGeometry>
        </mxCell>
        <mxCell id="n116JVMDm5xwNgPDnoRn-80" value="Date Published" style="ellipse;whiteSpace=wrap;html=1;" vertex="1" parent="1">
          <mxGeometry x="4230" y="2720" width="190" height="50" as="geometry" />
        </mxCell>
        <mxCell id="n116JVMDm5xwNgPDnoRn-81" value="" style="endArrow=none;html=1;rounded=0;exitX=0;exitY=0;exitDx=0;exitDy=0;" edge="1" parent="1" source="n116JVMDm5xwNgPDnoRn-74" target="n116JVMDm5xwNgPDnoRn-82">
          <mxGeometry width="50" height="50" relative="1" as="geometry">
            <mxPoint x="4092" y="2880" as="sourcePoint" />
            <mxPoint x="4390" y="2760" as="targetPoint" />
          </mxGeometry>
        </mxCell>
        <mxCell id="n116JVMDm5xwNgPDnoRn-82" value="Language" style="ellipse;whiteSpace=wrap;html=1;" vertex="1" parent="1">
          <mxGeometry x="4210" y="2780" width="190" height="50" as="geometry" />
        </mxCell>
        <mxCell id="n116JVMDm5xwNgPDnoRn-83" value="" style="endArrow=none;html=1;rounded=0;exitX=0;exitY=1;exitDx=0;exitDy=0;" edge="1" parent="1" source="n116JVMDm5xwNgPDnoRn-74" target="n116JVMDm5xwNgPDnoRn-84">
          <mxGeometry width="50" height="50" relative="1" as="geometry">
            <mxPoint x="4520" y="3040" as="sourcePoint" />
            <mxPoint x="4390" y="2940" as="targetPoint" />
          </mxGeometry>
        </mxCell>
        <mxCell id="n116JVMDm5xwNgPDnoRn-84" value="Tags" style="ellipse;whiteSpace=wrap;html=1;" vertex="1" parent="1">
          <mxGeometry x="4210" y="2960" width="190" height="50" as="geometry" />
        </mxCell>
        <mxCell id="n116JVMDm5xwNgPDnoRn-85" value="" style="endArrow=none;html=1;rounded=0;exitX=1;exitY=1;exitDx=0;exitDy=0;" edge="1" parent="1" source="n116JVMDm5xwNgPDnoRn-74" target="n116JVMDm5xwNgPDnoRn-86">
          <mxGeometry width="50" height="50" relative="1" as="geometry">
            <mxPoint x="5068" y="3050" as="sourcePoint" />
            <mxPoint x="4938" y="2950" as="targetPoint" />
          </mxGeometry>
        </mxCell>
        <mxCell id="n116JVMDm5xwNgPDnoRn-86" value="Size" style="ellipse;whiteSpace=wrap;html=1;" vertex="1" parent="1">
          <mxGeometry x="4758" y="2970" width="190" height="50" as="geometry" />
        </mxCell>
        <mxCell id="n116JVMDm5xwNgPDnoRn-87" value="" style="endArrow=none;html=1;rounded=0;strokeColor=#000000;" edge="1" parent="1">
          <mxGeometry width="50" height="50" relative="1" as="geometry">
            <mxPoint x="5870" y="2350" as="sourcePoint" />
            <mxPoint x="5870" y="1970" as="targetPoint" />
          </mxGeometry>
        </mxCell>
        <mxCell id="n116JVMDm5xwNgPDnoRn-88" value="manages" style="rhombus;whiteSpace=wrap;html=1;" vertex="1" parent="1">
          <mxGeometry x="5830" y="2350" width="80" height="80" as="geometry" />
        </mxCell>
        <mxCell id="n116JVMDm5xwNgPDnoRn-89" value="" style="endArrow=none;html=1;rounded=0;entryX=0.5;entryY=1;entryDx=0;entryDy=0;exitX=0.5;exitY=0;exitDx=0;exitDy=0;strokeColor=#000000;" edge="1" parent="1">
          <mxGeometry width="50" height="50" relative="1" as="geometry">
            <mxPoint x="5868.75" y="2860" as="sourcePoint" />
            <mxPoint x="5868.75" y="2430" as="targetPoint" />
          </mxGeometry>
        </mxCell>
        <mxCell id="n116JVMDm5xwNgPDnoRn-91" value="Wildlife Species" style="rounded=0;whiteSpace=wrap;html=1;" vertex="1" parent="1">
          <mxGeometry x="5820" y="2850" width="120" height="60" as="geometry" />
        </mxCell>
        <mxCell id="n116JVMDm5xwNgPDnoRn-92" value="" style="endArrow=none;html=1;rounded=0;" edge="1" parent="1" target="n116JVMDm5xwNgPDnoRn-93">
          <mxGeometry width="50" height="50" relative="1" as="geometry">
            <mxPoint x="5940" y="2850" as="sourcePoint" />
            <mxPoint x="6178" y="2670" as="targetPoint" />
          </mxGeometry>
        </mxCell>
        <mxCell id="n116JVMDm5xwNgPDnoRn-93" value="&lt;b&gt;&lt;u&gt;WildSpecies_ID&lt;/u&gt;&lt;/b&gt;" style="ellipse;whiteSpace=wrap;html=1;" vertex="1" parent="1">
          <mxGeometry x="5998" y="2690" width="190" height="50" as="geometry" />
        </mxCell>
        <mxCell id="n116JVMDm5xwNgPDnoRn-94" value="" style="endArrow=none;html=1;rounded=0;exitX=1;exitY=0;exitDx=0;exitDy=0;" edge="1" parent="1" target="n116JVMDm5xwNgPDnoRn-95">
          <mxGeometry width="50" height="50" relative="1" as="geometry">
            <mxPoint x="5940" y="2850" as="sourcePoint" />
            <mxPoint x="6238" y="2730" as="targetPoint" />
          </mxGeometry>
        </mxCell>
        <mxCell id="n116JVMDm5xwNgPDnoRn-95" value="Name" style="ellipse;whiteSpace=wrap;html=1;" vertex="1" parent="1">
          <mxGeometry x="6058" y="2750" width="190" height="50" as="geometry" />
        </mxCell>
        <mxCell id="n116JVMDm5xwNgPDnoRn-96" value="" style="endArrow=none;html=1;rounded=0;exitX=0;exitY=0;exitDx=0;exitDy=0;" edge="1" parent="1" source="n116JVMDm5xwNgPDnoRn-91" target="n116JVMDm5xwNgPDnoRn-97">
          <mxGeometry width="50" height="50" relative="1" as="geometry">
            <mxPoint x="5392" y="2870" as="sourcePoint" />
            <mxPoint x="5630" y="2690" as="targetPoint" />
          </mxGeometry>
        </mxCell>
        <mxCell id="n116JVMDm5xwNgPDnoRn-97" value="Habitat" style="ellipse;whiteSpace=wrap;html=1;" vertex="1" parent="1">
          <mxGeometry x="5530" y="2710" width="190" height="50" as="geometry" />
        </mxCell>
        <mxCell id="n116JVMDm5xwNgPDnoRn-98" value="" style="endArrow=none;html=1;rounded=0;exitX=0;exitY=0;exitDx=0;exitDy=0;" edge="1" parent="1" source="n116JVMDm5xwNgPDnoRn-91" target="n116JVMDm5xwNgPDnoRn-99">
          <mxGeometry width="50" height="50" relative="1" as="geometry">
            <mxPoint x="5392" y="2870" as="sourcePoint" />
            <mxPoint x="5690" y="2750" as="targetPoint" />
          </mxGeometry>
        </mxCell>
        <mxCell id="n116JVMDm5xwNgPDnoRn-99" value="Status" style="ellipse;whiteSpace=wrap;html=1;" vertex="1" parent="1">
          <mxGeometry x="5510" y="2770" width="190" height="50" as="geometry" />
        </mxCell>
        <mxCell id="n116JVMDm5xwNgPDnoRn-104" value="" style="endArrow=none;html=1;rounded=0;strokeColor=#000000;" edge="1" parent="1">
          <mxGeometry width="50" height="50" relative="1" as="geometry">
            <mxPoint x="7054" y="2350" as="sourcePoint" />
            <mxPoint x="7054" y="1970" as="targetPoint" />
          </mxGeometry>
        </mxCell>
        <mxCell id="n116JVMDm5xwNgPDnoRn-105" value="oversees" style="rhombus;whiteSpace=wrap;html=1;" vertex="1" parent="1">
          <mxGeometry x="7014" y="2350" width="80" height="80" as="geometry" />
        </mxCell>
        <mxCell id="n116JVMDm5xwNgPDnoRn-106" value="" style="endArrow=none;html=1;rounded=0;entryX=0.5;entryY=1;entryDx=0;entryDy=0;exitX=0.5;exitY=0;exitDx=0;exitDy=0;strokeColor=#000000;" edge="1" parent="1">
          <mxGeometry width="50" height="50" relative="1" as="geometry">
            <mxPoint x="7052.75" y="2860" as="sourcePoint" />
            <mxPoint x="7052.75" y="2430" as="targetPoint" />
          </mxGeometry>
        </mxCell>
        <mxCell id="n116JVMDm5xwNgPDnoRn-107" value="Forestry Management" style="rounded=0;whiteSpace=wrap;html=1;" vertex="1" parent="1">
          <mxGeometry x="7004" y="2850" width="120" height="60" as="geometry" />
        </mxCell>
        <mxCell id="n116JVMDm5xwNgPDnoRn-108" value="" style="endArrow=none;html=1;rounded=0;" edge="1" parent="1" target="n116JVMDm5xwNgPDnoRn-109">
          <mxGeometry width="50" height="50" relative="1" as="geometry">
            <mxPoint x="7124" y="2850" as="sourcePoint" />
            <mxPoint x="7362" y="2670" as="targetPoint" />
          </mxGeometry>
        </mxCell>
        <mxCell id="n116JVMDm5xwNgPDnoRn-109" value="&lt;b&gt;&lt;u&gt;Forest_ID&lt;/u&gt;&lt;/b&gt;" style="ellipse;whiteSpace=wrap;html=1;" vertex="1" parent="1">
          <mxGeometry x="7182" y="2690" width="190" height="50" as="geometry" />
        </mxCell>
        <mxCell id="n116JVMDm5xwNgPDnoRn-110" value="" style="endArrow=none;html=1;rounded=0;exitX=1;exitY=0;exitDx=0;exitDy=0;" edge="1" parent="1" target="n116JVMDm5xwNgPDnoRn-111">
          <mxGeometry width="50" height="50" relative="1" as="geometry">
            <mxPoint x="7124" y="2850" as="sourcePoint" />
            <mxPoint x="7422" y="2730" as="targetPoint" />
          </mxGeometry>
        </mxCell>
        <mxCell id="n116JVMDm5xwNgPDnoRn-111" value="Management Plan" style="ellipse;whiteSpace=wrap;html=1;" vertex="1" parent="1">
          <mxGeometry x="7242" y="2750" width="190" height="50" as="geometry" />
        </mxCell>
        <mxCell id="n116JVMDm5xwNgPDnoRn-112" value="" style="endArrow=none;html=1;rounded=0;exitX=0;exitY=0;exitDx=0;exitDy=0;" edge="1" parent="1" source="n116JVMDm5xwNgPDnoRn-107" target="n116JVMDm5xwNgPDnoRn-113">
          <mxGeometry width="50" height="50" relative="1" as="geometry">
            <mxPoint x="6576" y="2870" as="sourcePoint" />
            <mxPoint x="6814" y="2690" as="targetPoint" />
          </mxGeometry>
        </mxCell>
        <mxCell id="n116JVMDm5xwNgPDnoRn-113" value="Area Covered" style="ellipse;whiteSpace=wrap;html=1;" vertex="1" parent="1">
          <mxGeometry x="6714" y="2710" width="190" height="50" as="geometry" />
        </mxCell>
        <mxCell id="n116JVMDm5xwNgPDnoRn-114" value="" style="endArrow=none;html=1;rounded=0;exitX=0;exitY=0;exitDx=0;exitDy=0;" edge="1" parent="1" source="n116JVMDm5xwNgPDnoRn-107" target="n116JVMDm5xwNgPDnoRn-115">
          <mxGeometry width="50" height="50" relative="1" as="geometry">
            <mxPoint x="6576" y="2870" as="sourcePoint" />
            <mxPoint x="6874" y="2750" as="targetPoint" />
          </mxGeometry>
        </mxCell>
        <mxCell id="n116JVMDm5xwNgPDnoRn-115" value="Activities" style="ellipse;whiteSpace=wrap;html=1;" vertex="1" parent="1">
          <mxGeometry x="6694" y="2770" width="190" height="50" as="geometry" />
        </mxCell>
        <mxCell id="n116JVMDm5xwNgPDnoRn-116" value="" style="endArrow=none;html=1;rounded=0;exitX=0;exitY=1;exitDx=0;exitDy=0;" edge="1" parent="1" source="n116JVMDm5xwNgPDnoRn-107" target="n116JVMDm5xwNgPDnoRn-117">
          <mxGeometry width="50" height="50" relative="1" as="geometry">
            <mxPoint x="6990" y="3010" as="sourcePoint" />
            <mxPoint x="6860" y="2910" as="targetPoint" />
          </mxGeometry>
        </mxCell>
        <mxCell id="n116JVMDm5xwNgPDnoRn-117" value="Status" style="ellipse;whiteSpace=wrap;html=1;" vertex="1" parent="1">
          <mxGeometry x="6680" y="2930" width="190" height="50" as="geometry" />
        </mxCell>
        <mxCell id="n116JVMDm5xwNgPDnoRn-120" value="" style="endArrow=none;html=1;rounded=0;strokeColor=#000000;" edge="1" parent="1">
          <mxGeometry width="50" height="50" relative="1" as="geometry">
            <mxPoint x="8414" y="2350" as="sourcePoint" />
            <mxPoint x="8414" y="1970" as="targetPoint" />
          </mxGeometry>
        </mxCell>
        <mxCell id="n116JVMDm5xwNgPDnoRn-121" value="manages" style="rhombus;whiteSpace=wrap;html=1;" vertex="1" parent="1">
          <mxGeometry x="8374" y="2350" width="80" height="80" as="geometry" />
        </mxCell>
        <mxCell id="n116JVMDm5xwNgPDnoRn-122" value="" style="endArrow=none;html=1;rounded=0;entryX=0.5;entryY=1;entryDx=0;entryDy=0;exitX=0.5;exitY=0;exitDx=0;exitDy=0;strokeColor=#000000;" edge="1" parent="1">
          <mxGeometry width="50" height="50" relative="1" as="geometry">
            <mxPoint x="8412.75" y="2860" as="sourcePoint" />
            <mxPoint x="8412.75" y="2430" as="targetPoint" />
          </mxGeometry>
        </mxCell>
        <mxCell id="n116JVMDm5xwNgPDnoRn-123" value="Mineral Resources" style="rounded=0;whiteSpace=wrap;html=1;" vertex="1" parent="1">
          <mxGeometry x="8364" y="2850" width="120" height="60" as="geometry" />
        </mxCell>
        <mxCell id="n116JVMDm5xwNgPDnoRn-124" value="" style="endArrow=none;html=1;rounded=0;" edge="1" parent="1" target="n116JVMDm5xwNgPDnoRn-125">
          <mxGeometry width="50" height="50" relative="1" as="geometry">
            <mxPoint x="8484" y="2850" as="sourcePoint" />
            <mxPoint x="8722" y="2670" as="targetPoint" />
          </mxGeometry>
        </mxCell>
        <mxCell id="n116JVMDm5xwNgPDnoRn-125" value="&lt;b&gt;&lt;u&gt;Mineral_ID&lt;/u&gt;&lt;/b&gt;" style="ellipse;whiteSpace=wrap;html=1;" vertex="1" parent="1">
          <mxGeometry x="8542" y="2690" width="190" height="50" as="geometry" />
        </mxCell>
        <mxCell id="n116JVMDm5xwNgPDnoRn-126" value="" style="endArrow=none;html=1;rounded=0;exitX=1;exitY=0;exitDx=0;exitDy=0;" edge="1" parent="1" target="n116JVMDm5xwNgPDnoRn-127">
          <mxGeometry width="50" height="50" relative="1" as="geometry">
            <mxPoint x="8484" y="2850" as="sourcePoint" />
            <mxPoint x="8782" y="2730" as="targetPoint" />
          </mxGeometry>
        </mxCell>
        <mxCell id="n116JVMDm5xwNgPDnoRn-127" value="Type" style="ellipse;whiteSpace=wrap;html=1;" vertex="1" parent="1">
          <mxGeometry x="8602" y="2750" width="190" height="50" as="geometry" />
        </mxCell>
        <mxCell id="n116JVMDm5xwNgPDnoRn-128" value="" style="endArrow=none;html=1;rounded=0;exitX=0;exitY=0;exitDx=0;exitDy=0;" edge="1" parent="1" source="n116JVMDm5xwNgPDnoRn-123" target="n116JVMDm5xwNgPDnoRn-129">
          <mxGeometry width="50" height="50" relative="1" as="geometry">
            <mxPoint x="7936" y="2870" as="sourcePoint" />
            <mxPoint x="8174" y="2690" as="targetPoint" />
          </mxGeometry>
        </mxCell>
        <mxCell id="n116JVMDm5xwNgPDnoRn-129" value="Location" style="ellipse;whiteSpace=wrap;html=1;" vertex="1" parent="1">
          <mxGeometry x="8074" y="2710" width="190" height="50" as="geometry" />
        </mxCell>
        <mxCell id="n116JVMDm5xwNgPDnoRn-130" value="" style="endArrow=none;html=1;rounded=0;exitX=0;exitY=0;exitDx=0;exitDy=0;" edge="1" parent="1" source="n116JVMDm5xwNgPDnoRn-123" target="n116JVMDm5xwNgPDnoRn-131">
          <mxGeometry width="50" height="50" relative="1" as="geometry">
            <mxPoint x="7936" y="2870" as="sourcePoint" />
            <mxPoint x="8234" y="2750" as="targetPoint" />
          </mxGeometry>
        </mxCell>
        <mxCell id="n116JVMDm5xwNgPDnoRn-131" value="Quantity" style="ellipse;whiteSpace=wrap;html=1;" vertex="1" parent="1">
          <mxGeometry x="8054" y="2770" width="190" height="50" as="geometry" />
        </mxCell>
        <mxCell id="n116JVMDm5xwNgPDnoRn-132" value="" style="endArrow=none;html=1;rounded=0;exitX=0;exitY=1;exitDx=0;exitDy=0;" edge="1" parent="1" source="n116JVMDm5xwNgPDnoRn-123" target="n116JVMDm5xwNgPDnoRn-133">
          <mxGeometry width="50" height="50" relative="1" as="geometry">
            <mxPoint x="8350" y="3010" as="sourcePoint" />
            <mxPoint x="8220" y="2910" as="targetPoint" />
          </mxGeometry>
        </mxCell>
        <mxCell id="n116JVMDm5xwNgPDnoRn-133" value="Extraction Method" style="ellipse;whiteSpace=wrap;html=1;" vertex="1" parent="1">
          <mxGeometry x="8040" y="2930" width="190" height="50" as="geometry" />
        </mxCell>
        <mxCell id="n116JVMDm5xwNgPDnoRn-134" value="Courses" style="rounded=0;whiteSpace=wrap;html=1;" vertex="1" parent="1">
          <mxGeometry x="7004" y="4370" width="120" height="60" as="geometry" />
        </mxCell>
        <mxCell id="n116JVMDm5xwNgPDnoRn-135" value="" style="endArrow=none;html=1;rounded=0;entryX=0.5;entryY=1;entryDx=0;entryDy=0;strokeColor=#000000;" edge="1" parent="1" target="n116JVMDm5xwNgPDnoRn-107">
          <mxGeometry width="50" height="50" relative="1" as="geometry">
            <mxPoint x="7064" y="3730" as="sourcePoint" />
            <mxPoint x="6470" y="3840" as="targetPoint" />
          </mxGeometry>
        </mxCell>
        <mxCell id="n116JVMDm5xwNgPDnoRn-136" value="is covered by" style="rhombus;whiteSpace=wrap;html=1;" vertex="1" parent="1">
          <mxGeometry x="7024" y="3730" width="80" height="80" as="geometry" />
        </mxCell>
        <mxCell id="n116JVMDm5xwNgPDnoRn-137" value="" style="endArrow=none;html=1;rounded=0;entryX=0.5;entryY=1;entryDx=0;entryDy=0;strokeColor=#000000;" edge="1" parent="1" target="n116JVMDm5xwNgPDnoRn-136">
          <mxGeometry width="50" height="50" relative="1" as="geometry">
            <mxPoint x="7064" y="4370" as="sourcePoint" />
            <mxPoint x="6470" y="3840" as="targetPoint" />
          </mxGeometry>
        </mxCell>
        <mxCell id="n116JVMDm5xwNgPDnoRn-139" value="" style="endArrow=none;html=1;rounded=0;" edge="1" parent="1" target="n116JVMDm5xwNgPDnoRn-140">
          <mxGeometry width="50" height="50" relative="1" as="geometry">
            <mxPoint x="7124" y="4370" as="sourcePoint" />
            <mxPoint x="7362" y="4190" as="targetPoint" />
          </mxGeometry>
        </mxCell>
        <mxCell id="n116JVMDm5xwNgPDnoRn-140" value="&lt;b&gt;&lt;u&gt;Course_ID&lt;/u&gt;&lt;/b&gt;" style="ellipse;whiteSpace=wrap;html=1;" vertex="1" parent="1">
          <mxGeometry x="7182" y="4210" width="190" height="50" as="geometry" />
        </mxCell>
        <mxCell id="n116JVMDm5xwNgPDnoRn-141" value="" style="endArrow=none;html=1;rounded=0;exitX=1;exitY=0;exitDx=0;exitDy=0;" edge="1" parent="1" target="n116JVMDm5xwNgPDnoRn-142">
          <mxGeometry width="50" height="50" relative="1" as="geometry">
            <mxPoint x="7124" y="4370" as="sourcePoint" />
            <mxPoint x="7422" y="4250" as="targetPoint" />
          </mxGeometry>
        </mxCell>
        <mxCell id="n116JVMDm5xwNgPDnoRn-142" value="Course Name" style="ellipse;whiteSpace=wrap;html=1;" vertex="1" parent="1">
          <mxGeometry x="7242" y="4270" width="190" height="50" as="geometry" />
        </mxCell>
        <mxCell id="n116JVMDm5xwNgPDnoRn-143" value="" style="endArrow=none;html=1;rounded=0;exitX=1;exitY=1;exitDx=0;exitDy=0;" edge="1" parent="1" source="n116JVMDm5xwNgPDnoRn-134" target="n116JVMDm5xwNgPDnoRn-144">
          <mxGeometry width="50" height="50" relative="1" as="geometry">
            <mxPoint x="7220" y="4629" as="sourcePoint" />
            <mxPoint x="7458" y="4449" as="targetPoint" />
          </mxGeometry>
        </mxCell>
        <mxCell id="n116JVMDm5xwNgPDnoRn-144" value="Description" style="ellipse;whiteSpace=wrap;html=1;" vertex="1" parent="1">
          <mxGeometry x="7278" y="4469" width="190" height="50" as="geometry" />
        </mxCell>
        <mxCell id="n116JVMDm5xwNgPDnoRn-145" value="" style="endArrow=none;html=1;rounded=0;exitX=1;exitY=1;exitDx=0;exitDy=0;" edge="1" parent="1" source="n116JVMDm5xwNgPDnoRn-134" target="n116JVMDm5xwNgPDnoRn-146">
          <mxGeometry width="50" height="50" relative="1" as="geometry">
            <mxPoint x="7130" y="4430" as="sourcePoint" />
            <mxPoint x="7518" y="4509" as="targetPoint" />
          </mxGeometry>
        </mxCell>
        <mxCell id="n116JVMDm5xwNgPDnoRn-146" value="Instructor Name" style="ellipse;whiteSpace=wrap;html=1;" vertex="1" parent="1">
          <mxGeometry x="7242" y="4529" width="190" height="50" as="geometry" />
        </mxCell>
        <mxCell id="n116JVMDm5xwNgPDnoRn-147" value="" style="endArrow=none;html=1;rounded=0;exitX=0;exitY=1;exitDx=0;exitDy=0;" edge="1" parent="1" source="n116JVMDm5xwNgPDnoRn-134" target="n116JVMDm5xwNgPDnoRn-148">
          <mxGeometry width="50" height="50" relative="1" as="geometry">
            <mxPoint x="6655" y="4634" as="sourcePoint" />
            <mxPoint x="6893" y="4454" as="targetPoint" />
          </mxGeometry>
        </mxCell>
        <mxCell id="n116JVMDm5xwNgPDnoRn-148" value="End Date" style="ellipse;whiteSpace=wrap;html=1;" vertex="1" parent="1">
          <mxGeometry x="6713" y="4474" width="190" height="50" as="geometry" />
        </mxCell>
        <mxCell id="n116JVMDm5xwNgPDnoRn-149" value="" style="endArrow=none;html=1;rounded=0;exitX=0;exitY=1;exitDx=0;exitDy=0;" edge="1" parent="1" source="n116JVMDm5xwNgPDnoRn-134" target="n116JVMDm5xwNgPDnoRn-150">
          <mxGeometry width="50" height="50" relative="1" as="geometry">
            <mxPoint x="6655" y="4634" as="sourcePoint" />
            <mxPoint x="6953" y="4514" as="targetPoint" />
          </mxGeometry>
        </mxCell>
        <mxCell id="n116JVMDm5xwNgPDnoRn-150" value="Start Date" style="ellipse;whiteSpace=wrap;html=1;" vertex="1" parent="1">
          <mxGeometry x="6773" y="4534" width="190" height="50" as="geometry" />
        </mxCell>
        <mxCell id="n116JVMDm5xwNgPDnoRn-151" value="" style="endArrow=none;html=1;rounded=0;exitX=0;exitY=0;exitDx=0;exitDy=0;" edge="1" parent="1" source="n116JVMDm5xwNgPDnoRn-134" target="n116JVMDm5xwNgPDnoRn-152">
          <mxGeometry width="50" height="50" relative="1" as="geometry">
            <mxPoint x="6532" y="4390" as="sourcePoint" />
            <mxPoint x="6770" y="4210" as="targetPoint" />
          </mxGeometry>
        </mxCell>
        <mxCell id="n116JVMDm5xwNgPDnoRn-152" value="Prerequisite Course" style="ellipse;whiteSpace=wrap;html=1;" vertex="1" parent="1">
          <mxGeometry x="6670" y="4230" width="190" height="50" as="geometry" />
        </mxCell>
        <mxCell id="n116JVMDm5xwNgPDnoRn-153" value="" style="endArrow=none;html=1;rounded=0;exitX=0;exitY=0;exitDx=0;exitDy=0;" edge="1" parent="1" source="n116JVMDm5xwNgPDnoRn-134" target="n116JVMDm5xwNgPDnoRn-154">
          <mxGeometry width="50" height="50" relative="1" as="geometry">
            <mxPoint x="6532" y="4390" as="sourcePoint" />
            <mxPoint x="6830" y="4270" as="targetPoint" />
          </mxGeometry>
        </mxCell>
        <mxCell id="n116JVMDm5xwNgPDnoRn-154" value="Fees" style="ellipse;whiteSpace=wrap;html=1;" vertex="1" parent="1">
          <mxGeometry x="6650" y="4290" width="190" height="50" as="geometry" />
        </mxCell>
        <mxCell id="n116JVMDm5xwNgPDnoRn-155" value="" style="endArrow=none;html=1;rounded=0;exitX=0;exitY=1;exitDx=0;exitDy=0;" edge="1" parent="1" source="n116JVMDm5xwNgPDnoRn-134" target="n116JVMDm5xwNgPDnoRn-156">
          <mxGeometry width="50" height="50" relative="1" as="geometry">
            <mxPoint x="7218" y="4730" as="sourcePoint" />
            <mxPoint x="6984" y="4570" as="targetPoint" />
          </mxGeometry>
        </mxCell>
        <mxCell id="n116JVMDm5xwNgPDnoRn-156" value="Type" style="ellipse;whiteSpace=wrap;html=1;" vertex="1" parent="1">
          <mxGeometry x="6884" y="4590" width="190" height="50" as="geometry" />
        </mxCell>
        <mxCell id="n116JVMDm5xwNgPDnoRn-157" value="" style="endArrow=none;html=1;rounded=0;entryX=0.5;entryY=1;entryDx=0;entryDy=0;strokeColor=#000000;" edge="1" parent="1" target="n116JVMDm5xwNgPDnoRn-91">
          <mxGeometry width="50" height="50" relative="1" as="geometry">
            <mxPoint x="5880" y="3660" as="sourcePoint" />
            <mxPoint x="6690" y="3740" as="targetPoint" />
          </mxGeometry>
        </mxCell>
        <mxCell id="n116JVMDm5xwNgPDnoRn-158" value="is covered by" style="rhombus;whiteSpace=wrap;html=1;" vertex="1" parent="1">
          <mxGeometry x="5840" y="3660" width="80" height="80" as="geometry" />
        </mxCell>
        <mxCell id="n116JVMDm5xwNgPDnoRn-159" value="" style="endArrow=none;html=1;rounded=0;entryX=0.5;entryY=1;entryDx=0;entryDy=0;exitX=0;exitY=0.75;exitDx=0;exitDy=0;strokeColor=#000000;" edge="1" parent="1" source="n116JVMDm5xwNgPDnoRn-134" target="n116JVMDm5xwNgPDnoRn-158">
          <mxGeometry width="50" height="50" relative="1" as="geometry">
            <mxPoint x="6640" y="3790" as="sourcePoint" />
            <mxPoint x="6690" y="3740" as="targetPoint" />
            <Array as="points">
              <mxPoint x="5880" y="4430" />
            </Array>
          </mxGeometry>
        </mxCell>
        <mxCell id="n116JVMDm5xwNgPDnoRn-160" value="" style="endArrow=none;html=1;rounded=0;entryX=0.5;entryY=1;entryDx=0;entryDy=0;strokeColor=#000000;" edge="1" parent="1" target="n116JVMDm5xwNgPDnoRn-123">
          <mxGeometry width="50" height="50" relative="1" as="geometry">
            <mxPoint x="8424" y="3690" as="sourcePoint" />
            <mxPoint x="6690" y="3740" as="targetPoint" />
          </mxGeometry>
        </mxCell>
        <mxCell id="n116JVMDm5xwNgPDnoRn-161" value="is covered by" style="rhombus;whiteSpace=wrap;html=1;" vertex="1" parent="1">
          <mxGeometry x="8384" y="3682" width="80" height="80" as="geometry" />
        </mxCell>
        <mxCell id="n116JVMDm5xwNgPDnoRn-162" value="" style="endArrow=none;html=1;rounded=0;entryX=0.5;entryY=1;entryDx=0;entryDy=0;exitX=1;exitY=0.5;exitDx=0;exitDy=0;strokeColor=#000000;" edge="1" parent="1" source="n116JVMDm5xwNgPDnoRn-134" target="n116JVMDm5xwNgPDnoRn-161">
          <mxGeometry width="50" height="50" relative="1" as="geometry">
            <mxPoint x="6640" y="3790" as="sourcePoint" />
            <mxPoint x="6690" y="3740" as="targetPoint" />
            <Array as="points">
              <mxPoint x="8424" y="4400" />
            </Array>
          </mxGeometry>
        </mxCell>
        <mxCell id="n116JVMDm5xwNgPDnoRn-172" value="is managed by" style="rhombus;whiteSpace=wrap;html=1;" vertex="1" parent="1">
          <mxGeometry x="5785" y="1190" width="80" height="80" as="geometry" />
        </mxCell>
        <mxCell id="n116JVMDm5xwNgPDnoRn-174" value="" style="endArrow=none;html=1;rounded=0;strokeColor=#000000;exitX=0.875;exitY=0.025;exitDx=0;exitDy=0;exitPerimeter=0;" edge="1" parent="1" source="n116JVMDm5xwNgPDnoRn-333">
          <mxGeometry width="50" height="50" relative="1" as="geometry">
            <mxPoint x="1780" y="2080" as="sourcePoint" />
            <mxPoint x="7140" y="1310" as="targetPoint" />
            <Array as="points">
              <mxPoint x="1520" y="2230" />
              <mxPoint x="3080" y="2220" />
              <mxPoint x="3090" y="1310" />
            </Array>
          </mxGeometry>
        </mxCell>
        <mxCell id="n116JVMDm5xwNgPDnoRn-175" value="works at" style="rhombus;whiteSpace=wrap;html=1;" vertex="1" parent="1">
          <mxGeometry x="7140" y="1270" width="80" height="80" as="geometry" />
        </mxCell>
        <mxCell id="n116JVMDm5xwNgPDnoRn-176" value="" style="endArrow=none;html=1;rounded=0;entryX=1;entryY=0.5;entryDx=0;entryDy=0;strokeColor=#000000;exitX=0.5;exitY=0;exitDx=0;exitDy=0;" edge="1" parent="1" source="n116JVMDm5xwNgPDnoRn-177" target="n116JVMDm5xwNgPDnoRn-175">
          <mxGeometry width="50" height="50" relative="1" as="geometry">
            <mxPoint x="8620" y="1635" as="sourcePoint" />
            <mxPoint x="7210" y="1900" as="targetPoint" />
            <Array as="points">
              <mxPoint x="8680" y="1320" />
            </Array>
          </mxGeometry>
        </mxCell>
        <mxCell id="n116JVMDm5xwNgPDnoRn-177" value="Offices" style="rounded=0;whiteSpace=wrap;html=1;" vertex="1" parent="1">
          <mxGeometry x="8620" y="1610" width="120" height="60" as="geometry" />
        </mxCell>
        <mxCell id="n116JVMDm5xwNgPDnoRn-178" value="" style="endArrow=none;html=1;rounded=0;" edge="1" parent="1" target="n116JVMDm5xwNgPDnoRn-179">
          <mxGeometry width="50" height="50" relative="1" as="geometry">
            <mxPoint x="8740" y="1610" as="sourcePoint" />
            <mxPoint x="8978" y="1430" as="targetPoint" />
          </mxGeometry>
        </mxCell>
        <mxCell id="n116JVMDm5xwNgPDnoRn-179" value="ID" style="ellipse;whiteSpace=wrap;html=1;" vertex="1" parent="1">
          <mxGeometry x="8798" y="1450" width="190" height="50" as="geometry" />
        </mxCell>
        <mxCell id="n116JVMDm5xwNgPDnoRn-180" value="" style="endArrow=none;html=1;rounded=0;exitX=1;exitY=0;exitDx=0;exitDy=0;" edge="1" parent="1" target="n116JVMDm5xwNgPDnoRn-181">
          <mxGeometry width="50" height="50" relative="1" as="geometry">
            <mxPoint x="8740" y="1610" as="sourcePoint" />
            <mxPoint x="9038" y="1490" as="targetPoint" />
          </mxGeometry>
        </mxCell>
        <mxCell id="n116JVMDm5xwNgPDnoRn-181" value="Office Name" style="ellipse;whiteSpace=wrap;html=1;" vertex="1" parent="1">
          <mxGeometry x="8858" y="1510" width="190" height="50" as="geometry" />
        </mxCell>
        <mxCell id="n116JVMDm5xwNgPDnoRn-182" value="" style="endArrow=none;html=1;rounded=0;exitX=0;exitY=0;exitDx=0;exitDy=0;" edge="1" parent="1" source="n116JVMDm5xwNgPDnoRn-177" target="n116JVMDm5xwNgPDnoRn-183">
          <mxGeometry width="50" height="50" relative="1" as="geometry">
            <mxPoint x="8260" y="1600" as="sourcePoint" />
            <mxPoint x="8498" y="1420" as="targetPoint" />
          </mxGeometry>
        </mxCell>
        <mxCell id="n116JVMDm5xwNgPDnoRn-183" value="Location" style="ellipse;whiteSpace=wrap;html=1;" vertex="1" parent="1">
          <mxGeometry x="8430" y="1435" width="190" height="50" as="geometry" />
        </mxCell>
        <mxCell id="n116JVMDm5xwNgPDnoRn-184" value="" style="endArrow=none;html=1;rounded=0;exitX=0;exitY=0;exitDx=0;exitDy=0;" edge="1" parent="1" source="n116JVMDm5xwNgPDnoRn-177" target="n116JVMDm5xwNgPDnoRn-185">
          <mxGeometry width="50" height="50" relative="1" as="geometry">
            <mxPoint x="8260" y="1600" as="sourcePoint" />
            <mxPoint x="8558" y="1480" as="targetPoint" />
          </mxGeometry>
        </mxCell>
        <mxCell id="n116JVMDm5xwNgPDnoRn-185" value="Email" style="ellipse;whiteSpace=wrap;html=1;" vertex="1" parent="1">
          <mxGeometry x="8352" y="1500" width="190" height="50" as="geometry" />
        </mxCell>
        <mxCell id="n116JVMDm5xwNgPDnoRn-186" value="" style="endArrow=none;html=1;rounded=0;exitX=1;exitY=1;exitDx=0;exitDy=0;" edge="1" parent="1" source="n116JVMDm5xwNgPDnoRn-177" target="n116JVMDm5xwNgPDnoRn-187">
          <mxGeometry width="50" height="50" relative="1" as="geometry">
            <mxPoint x="8740" y="1800" as="sourcePoint" />
            <mxPoint x="9038" y="1680" as="targetPoint" />
          </mxGeometry>
        </mxCell>
        <mxCell id="n116JVMDm5xwNgPDnoRn-187" value="Contact Number" style="ellipse;whiteSpace=wrap;html=1;" vertex="1" parent="1">
          <mxGeometry x="8858" y="1700" width="190" height="50" as="geometry" />
        </mxCell>
        <mxCell id="n116JVMDm5xwNgPDnoRn-188" value="" style="endArrow=none;html=1;rounded=0;" edge="1" parent="1" target="n116JVMDm5xwNgPDnoRn-189">
          <mxGeometry width="50" height="50" relative="1" as="geometry">
            <mxPoint x="6530" y="1605" as="sourcePoint" />
            <mxPoint x="6768" y="1425" as="targetPoint" />
          </mxGeometry>
        </mxCell>
        <mxCell id="n116JVMDm5xwNgPDnoRn-189" value="Name" style="ellipse;whiteSpace=wrap;html=1;" vertex="1" parent="1">
          <mxGeometry x="6588" y="1445" width="190" height="50" as="geometry" />
        </mxCell>
        <mxCell id="n116JVMDm5xwNgPDnoRn-190" value="" style="endArrow=none;html=1;rounded=0;exitX=1;exitY=0;exitDx=0;exitDy=0;" edge="1" parent="1" target="n116JVMDm5xwNgPDnoRn-191">
          <mxGeometry width="50" height="50" relative="1" as="geometry">
            <mxPoint x="6530" y="1605" as="sourcePoint" />
            <mxPoint x="6828" y="1485" as="targetPoint" />
          </mxGeometry>
        </mxCell>
        <mxCell id="n116JVMDm5xwNgPDnoRn-191" value="Description" style="ellipse;whiteSpace=wrap;html=1;" vertex="1" parent="1">
          <mxGeometry x="6648" y="1505" width="190" height="50" as="geometry" />
        </mxCell>
        <mxCell id="n116JVMDm5xwNgPDnoRn-196" value="" style="endArrow=none;html=1;rounded=0;exitX=1;exitY=1;exitDx=0;exitDy=0;" edge="1" parent="1" source="n116JVMDm5xwNgPDnoRn-54" target="n116JVMDm5xwNgPDnoRn-197">
          <mxGeometry width="50" height="50" relative="1" as="geometry">
            <mxPoint x="6576" y="1870" as="sourcePoint" />
            <mxPoint x="6814" y="1690" as="targetPoint" />
          </mxGeometry>
        </mxCell>
        <mxCell id="n116JVMDm5xwNgPDnoRn-197" value="Head Of Department" style="ellipse;whiteSpace=wrap;html=1;" vertex="1" parent="1">
          <mxGeometry x="6685" y="1690" width="190" height="50" as="geometry" />
        </mxCell>
        <mxCell id="n116JVMDm5xwNgPDnoRn-198" value="" style="endArrow=none;html=1;rounded=0;exitX=1;exitY=1;exitDx=0;exitDy=0;" edge="1" parent="1" source="n116JVMDm5xwNgPDnoRn-54" target="n116JVMDm5xwNgPDnoRn-199">
          <mxGeometry width="50" height="50" relative="1" as="geometry">
            <mxPoint x="6530" y="1670" as="sourcePoint" />
            <mxPoint x="6874" y="1750" as="targetPoint" />
          </mxGeometry>
        </mxCell>
        <mxCell id="n116JVMDm5xwNgPDnoRn-199" value="Email" style="ellipse;whiteSpace=wrap;html=1;" vertex="1" parent="1">
          <mxGeometry x="6648" y="1750" width="190" height="50" as="geometry" />
        </mxCell>
        <mxCell id="n116JVMDm5xwNgPDnoRn-200" value="" style="endArrow=none;html=1;rounded=0;exitX=0;exitY=1;exitDx=0;exitDy=0;" edge="1" parent="1" source="n116JVMDm5xwNgPDnoRn-54" target="n116JVMDm5xwNgPDnoRn-201">
          <mxGeometry width="50" height="50" relative="1" as="geometry">
            <mxPoint x="6090" y="1855" as="sourcePoint" />
            <mxPoint x="6328" y="1675" as="targetPoint" />
          </mxGeometry>
        </mxCell>
        <mxCell id="n116JVMDm5xwNgPDnoRn-201" value="Address" style="ellipse;whiteSpace=wrap;html=1;" vertex="1" parent="1">
          <mxGeometry x="6050" y="1690" width="190" height="50" as="geometry" />
        </mxCell>
        <mxCell id="n116JVMDm5xwNgPDnoRn-202" value="" style="endArrow=none;html=1;rounded=0;exitX=0;exitY=1;exitDx=0;exitDy=0;" edge="1" parent="1" source="n116JVMDm5xwNgPDnoRn-54">
          <mxGeometry width="50" height="50" relative="1" as="geometry">
            <mxPoint x="6090" y="1855" as="sourcePoint" />
            <mxPoint x="6342.210430800165" y="1760.4136702854767" as="targetPoint" />
          </mxGeometry>
        </mxCell>
        <mxCell id="n116JVMDm5xwNgPDnoRn-204" value="" style="endArrow=none;html=1;rounded=0;exitX=0;exitY=0;exitDx=0;exitDy=0;" edge="1" parent="1" source="n116JVMDm5xwNgPDnoRn-54" target="n116JVMDm5xwNgPDnoRn-205">
          <mxGeometry width="50" height="50" relative="1" as="geometry">
            <mxPoint x="6030" y="1630" as="sourcePoint" />
            <mxPoint x="6268" y="1450" as="targetPoint" />
          </mxGeometry>
        </mxCell>
        <mxCell id="n116JVMDm5xwNgPDnoRn-205" value="Number of Employees" style="ellipse;whiteSpace=wrap;html=1;" vertex="1" parent="1">
          <mxGeometry x="6110" y="1470" width="190" height="50" as="geometry" />
        </mxCell>
        <mxCell id="n116JVMDm5xwNgPDnoRn-206" value="" style="endArrow=none;html=1;rounded=0;exitX=0;exitY=0;exitDx=0;exitDy=0;" edge="1" parent="1" source="n116JVMDm5xwNgPDnoRn-54" target="n116JVMDm5xwNgPDnoRn-207">
          <mxGeometry width="50" height="50" relative="1" as="geometry">
            <mxPoint x="6030" y="1630" as="sourcePoint" />
            <mxPoint x="6328" y="1510" as="targetPoint" />
          </mxGeometry>
        </mxCell>
        <mxCell id="n116JVMDm5xwNgPDnoRn-207" value="Established Date" style="ellipse;whiteSpace=wrap;html=1;" vertex="1" parent="1">
          <mxGeometry x="6080" y="1520" width="190" height="50" as="geometry" />
        </mxCell>
        <mxCell id="n116JVMDm5xwNgPDnoRn-208" value="" style="endArrow=none;html=1;rounded=0;exitX=0;exitY=0;exitDx=0;exitDy=0;" edge="1" parent="1" source="n116JVMDm5xwNgPDnoRn-54" target="n116JVMDm5xwNgPDnoRn-209">
          <mxGeometry width="50" height="50" relative="1" as="geometry">
            <mxPoint x="6362" y="1495" as="sourcePoint" />
            <mxPoint x="6600" y="1315" as="targetPoint" />
          </mxGeometry>
        </mxCell>
        <mxCell id="n116JVMDm5xwNgPDnoRn-209" value="Annual Budget" style="ellipse;whiteSpace=wrap;html=1;" vertex="1" parent="1">
          <mxGeometry x="6188" y="1420" width="190" height="50" as="geometry" />
        </mxCell>
        <mxCell id="n116JVMDm5xwNgPDnoRn-210" value="" style="endArrow=none;html=1;rounded=0;exitX=1;exitY=0;exitDx=0;exitDy=0;" edge="1" parent="1" source="n116JVMDm5xwNgPDnoRn-54" target="n116JVMDm5xwNgPDnoRn-211">
          <mxGeometry width="50" height="50" relative="1" as="geometry">
            <mxPoint x="6362" y="1495" as="sourcePoint" />
            <mxPoint x="6660" y="1375" as="targetPoint" />
          </mxGeometry>
        </mxCell>
        <mxCell id="n116JVMDm5xwNgPDnoRn-211" value="&lt;u&gt;&lt;b&gt;Department_ID&lt;/b&gt;&lt;/u&gt;" style="ellipse;whiteSpace=wrap;html=1;" vertex="1" parent="1">
          <mxGeometry x="6504" y="1395" width="190" height="50" as="geometry" />
        </mxCell>
        <mxCell id="n116JVMDm5xwNgPDnoRn-212" value="" style="endArrow=none;html=1;rounded=0;" edge="1" parent="1" target="n116JVMDm5xwNgPDnoRn-213">
          <mxGeometry width="50" height="50" relative="1" as="geometry">
            <mxPoint x="6530" y="1670" as="sourcePoint" />
            <mxPoint x="6756" y="1792.5" as="targetPoint" />
          </mxGeometry>
        </mxCell>
        <mxCell id="n116JVMDm5xwNgPDnoRn-213" value="Department Code" style="ellipse;whiteSpace=wrap;html=1;" vertex="1" parent="1">
          <mxGeometry x="6530" y="1792.5" width="190" height="50" as="geometry" />
        </mxCell>
        <mxCell id="n116JVMDm5xwNgPDnoRn-214" value="" style="endArrow=none;html=1;rounded=0;exitX=0;exitY=0.5;exitDx=0;exitDy=0;" edge="1" parent="1" source="n116JVMDm5xwNgPDnoRn-201" target="n116JVMDm5xwNgPDnoRn-215">
          <mxGeometry width="50" height="50" relative="1" as="geometry">
            <mxPoint x="5660" y="1770.5" as="sourcePoint" />
            <mxPoint x="5970" y="1745" as="targetPoint" />
          </mxGeometry>
        </mxCell>
        <mxCell id="n116JVMDm5xwNgPDnoRn-215" value="Street Address" style="ellipse;whiteSpace=wrap;html=1;" vertex="1" parent="1">
          <mxGeometry x="5730" y="1750" width="190" height="50" as="geometry" />
        </mxCell>
        <mxCell id="n116JVMDm5xwNgPDnoRn-216" value="" style="endArrow=none;html=1;rounded=0;exitX=0;exitY=0.5;exitDx=0;exitDy=0;" edge="1" parent="1" source="n116JVMDm5xwNgPDnoRn-201" target="n116JVMDm5xwNgPDnoRn-217">
          <mxGeometry width="50" height="50" relative="1" as="geometry">
            <mxPoint x="5660" y="1770.5" as="sourcePoint" />
            <mxPoint x="6015" y="1805" as="targetPoint" />
          </mxGeometry>
        </mxCell>
        <mxCell id="n116JVMDm5xwNgPDnoRn-217" value="Postal Code" style="ellipse;whiteSpace=wrap;html=1;" vertex="1" parent="1">
          <mxGeometry x="5775" y="1820" width="190" height="50" as="geometry" />
        </mxCell>
        <mxCell id="n116JVMDm5xwNgPDnoRn-218" value="" style="endArrow=none;html=1;rounded=0;exitX=0;exitY=0.5;exitDx=0;exitDy=0;" edge="1" parent="1" source="n116JVMDm5xwNgPDnoRn-201" target="n116JVMDm5xwNgPDnoRn-219">
          <mxGeometry width="50" height="50" relative="1" as="geometry">
            <mxPoint x="5658" y="1768.5" as="sourcePoint" />
            <mxPoint x="6130" y="1855" as="targetPoint" />
          </mxGeometry>
        </mxCell>
        <mxCell id="n116JVMDm5xwNgPDnoRn-219" value="City" style="ellipse;whiteSpace=wrap;html=1;" vertex="1" parent="1">
          <mxGeometry x="5950" y="1870" width="190" height="50" as="geometry" />
        </mxCell>
        <mxCell id="n116JVMDm5xwNgPDnoRn-220" value="" style="endArrow=none;html=1;rounded=0;exitX=0;exitY=0.5;exitDx=0;exitDy=0;" edge="1" parent="1" source="n116JVMDm5xwNgPDnoRn-201" target="n116JVMDm5xwNgPDnoRn-221">
          <mxGeometry width="50" height="50" relative="1" as="geometry">
            <mxPoint x="5658" y="1768.5" as="sourcePoint" />
            <mxPoint x="5975" y="1685" as="targetPoint" />
          </mxGeometry>
        </mxCell>
        <mxCell id="n116JVMDm5xwNgPDnoRn-221" value="State" style="ellipse;whiteSpace=wrap;html=1;" vertex="1" parent="1">
          <mxGeometry x="5760" y="1680" width="190" height="50" as="geometry" />
        </mxCell>
        <mxCell id="n116JVMDm5xwNgPDnoRn-223" value="Include" style="rhombus;whiteSpace=wrap;html=1;" vertex="1" parent="1">
          <mxGeometry x="445" y="640" width="80" height="80" as="geometry" />
        </mxCell>
        <mxCell id="n116JVMDm5xwNgPDnoRn-224" value="Include" style="rhombus;whiteSpace=wrap;html=1;" vertex="1" parent="1">
          <mxGeometry x="2450" y="740" width="80" height="80" as="geometry" />
        </mxCell>
        <mxCell id="n116JVMDm5xwNgPDnoRn-231" value="Include" style="rhombus;whiteSpace=wrap;html=1;" vertex="1" parent="1">
          <mxGeometry x="4800" y="660" width="80" height="80" as="geometry" />
        </mxCell>
        <mxCell id="n116JVMDm5xwNgPDnoRn-235" value="Offers" style="rhombus;whiteSpace=wrap;html=1;" vertex="1" parent="1">
          <mxGeometry x="-2630" y="700" width="80" height="80" as="geometry" />
        </mxCell>
        <mxCell id="n116JVMDm5xwNgPDnoRn-236" value="Organize" style="rhombus;whiteSpace=wrap;html=1;" vertex="1" parent="1">
          <mxGeometry x="-2630" y="1170" width="80" height="80" as="geometry" />
        </mxCell>
        <mxCell id="n116JVMDm5xwNgPDnoRn-237" value="has" style="rhombus;whiteSpace=wrap;html=1;" vertex="1" parent="1">
          <mxGeometry x="-1290" y="535" width="80" height="80" as="geometry" />
        </mxCell>
        <mxCell id="n116JVMDm5xwNgPDnoRn-238" value="announce" style="rhombus;whiteSpace=wrap;html=1;" vertex="1" parent="1">
          <mxGeometry x="-1290" y="1145" width="80" height="80" as="geometry" />
        </mxCell>
        <mxCell id="n116JVMDm5xwNgPDnoRn-243" value="" style="endArrow=none;html=1;rounded=0;entryX=0.5;entryY=1;entryDx=0;entryDy=0;exitX=0;exitY=0.5;exitDx=0;exitDy=0;" edge="1" parent="1" source="n116JVMDm5xwNgPDnoRn-172" target="-z9te3pbn1G7zqjihGLt-15">
          <mxGeometry width="50" height="50" relative="1" as="geometry">
            <mxPoint x="5370" y="1230" as="sourcePoint" />
            <mxPoint x="5200" y="1690" as="targetPoint" />
            <Array as="points">
              <mxPoint x="5370" y="1230" />
            </Array>
          </mxGeometry>
        </mxCell>
        <mxCell id="n116JVMDm5xwNgPDnoRn-245" value="" style="endArrow=none;html=1;rounded=0;entryX=1;entryY=0.5;entryDx=0;entryDy=0;exitX=0.5;exitY=0;exitDx=0;exitDy=0;" edge="1" parent="1" source="n116JVMDm5xwNgPDnoRn-54" target="n116JVMDm5xwNgPDnoRn-172">
          <mxGeometry width="50" height="50" relative="1" as="geometry">
            <mxPoint x="5150" y="1740" as="sourcePoint" />
            <mxPoint x="5200" y="1690" as="targetPoint" />
            <Array as="points">
              <mxPoint x="6470" y="1230" />
            </Array>
          </mxGeometry>
        </mxCell>
        <mxCell id="n116JVMDm5xwNgPDnoRn-246" value="1" style="text;html=1;align=center;verticalAlign=middle;resizable=0;points=[];autosize=1;strokeColor=none;fillColor=none;" vertex="1" parent="1">
          <mxGeometry x="165" y="958" width="30" height="30" as="geometry" />
        </mxCell>
        <mxCell id="n116JVMDm5xwNgPDnoRn-247" value="M" style="text;html=1;align=center;verticalAlign=middle;resizable=0;points=[];autosize=1;strokeColor=none;fillColor=none;" vertex="1" parent="1">
          <mxGeometry x="165" y="1318" width="30" height="30" as="geometry" />
        </mxCell>
        <mxCell id="n116JVMDm5xwNgPDnoRn-248" value="M" style="text;html=1;align=center;verticalAlign=middle;resizable=0;points=[];autosize=1;strokeColor=none;fillColor=none;" vertex="1" parent="1">
          <mxGeometry x="160" y="1427" width="30" height="30" as="geometry" />
        </mxCell>
        <mxCell id="n116JVMDm5xwNgPDnoRn-249" value="1" style="text;html=1;align=center;verticalAlign=middle;resizable=0;points=[];autosize=1;strokeColor=none;fillColor=none;" vertex="1" parent="1">
          <mxGeometry x="155" y="1838" width="30" height="30" as="geometry" />
        </mxCell>
        <mxCell id="n116JVMDm5xwNgPDnoRn-250" value="1" style="text;html=1;align=center;verticalAlign=middle;resizable=0;points=[];autosize=1;strokeColor=none;fillColor=none;" vertex="1" parent="1">
          <mxGeometry x="-2595" y="888" width="30" height="30" as="geometry" />
        </mxCell>
        <mxCell id="n116JVMDm5xwNgPDnoRn-251" value="M" style="text;html=1;align=center;verticalAlign=middle;resizable=0;points=[];autosize=1;strokeColor=none;fillColor=none;" vertex="1" parent="1">
          <mxGeometry x="-2595" y="468" width="30" height="30" as="geometry" />
        </mxCell>
        <mxCell id="n116JVMDm5xwNgPDnoRn-252" value="1" style="text;html=1;align=center;verticalAlign=middle;resizable=0;points=[];autosize=1;strokeColor=none;fillColor=none;" vertex="1" parent="1">
          <mxGeometry x="-2595" y="938" width="30" height="30" as="geometry" />
        </mxCell>
        <mxCell id="n116JVMDm5xwNgPDnoRn-253" value="M" style="text;html=1;align=center;verticalAlign=middle;resizable=0;points=[];autosize=1;strokeColor=none;fillColor=none;" vertex="1" parent="1">
          <mxGeometry x="-2595" y="1448" width="30" height="30" as="geometry" />
        </mxCell>
        <mxCell id="n116JVMDm5xwNgPDnoRn-254" value="1" style="text;html=1;align=center;verticalAlign=middle;resizable=0;points=[];autosize=1;strokeColor=none;fillColor=none;" vertex="1" parent="1">
          <mxGeometry x="-1255" y="888" width="30" height="30" as="geometry" />
        </mxCell>
        <mxCell id="n116JVMDm5xwNgPDnoRn-255" value="M" style="text;html=1;align=center;verticalAlign=middle;resizable=0;points=[];autosize=1;strokeColor=none;fillColor=none;" vertex="1" parent="1">
          <mxGeometry x="-1255" y="308" width="30" height="30" as="geometry" />
        </mxCell>
        <mxCell id="n116JVMDm5xwNgPDnoRn-256" value="1" style="text;html=1;align=center;verticalAlign=middle;resizable=0;points=[];autosize=1;strokeColor=none;fillColor=none;" vertex="1" parent="1">
          <mxGeometry x="-1255" y="958" width="30" height="30" as="geometry" />
        </mxCell>
        <mxCell id="n116JVMDm5xwNgPDnoRn-257" value="M" style="text;html=1;align=center;verticalAlign=middle;resizable=0;points=[];autosize=1;strokeColor=none;fillColor=none;" vertex="1" parent="1">
          <mxGeometry x="-1255" y="1448" width="30" height="30" as="geometry" />
        </mxCell>
        <mxCell id="n116JVMDm5xwNgPDnoRn-259" value="M" style="text;html=1;align=center;verticalAlign=middle;resizable=0;points=[];autosize=1;strokeColor=none;fillColor=none;" vertex="1" parent="1">
          <mxGeometry x="20" y="1880" width="30" height="30" as="geometry" />
        </mxCell>
        <mxCell id="n116JVMDm5xwNgPDnoRn-262" value="1" style="text;html=1;align=center;verticalAlign=middle;resizable=0;points=[];autosize=1;strokeColor=none;fillColor=none;" vertex="1" parent="1">
          <mxGeometry x="2465" y="970" width="30" height="30" as="geometry" />
        </mxCell>
        <mxCell id="n116JVMDm5xwNgPDnoRn-263" value="M" style="text;html=1;align=center;verticalAlign=middle;resizable=0;points=[];autosize=1;strokeColor=none;fillColor=none;" vertex="1" parent="1">
          <mxGeometry x="2465" y="1418" width="30" height="30" as="geometry" />
        </mxCell>
        <mxCell id="n116JVMDm5xwNgPDnoRn-268" value="Nova Scotia" style="rounded=0;whiteSpace=wrap;html=1;" vertex="1" parent="1">
          <mxGeometry x="850" y="-240" width="120" height="60" as="geometry" />
        </mxCell>
        <mxCell id="n116JVMDm5xwNgPDnoRn-269" value="" style="endArrow=none;html=1;rounded=0;" edge="1" parent="1">
          <mxGeometry width="50" height="50" relative="1" as="geometry">
            <mxPoint x="909.38" y="-100" as="sourcePoint" />
            <mxPoint x="909.38" y="-180" as="targetPoint" />
          </mxGeometry>
        </mxCell>
        <mxCell id="n116JVMDm5xwNgPDnoRn-270" value="has" style="rhombus;whiteSpace=wrap;html=1;" vertex="1" parent="1">
          <mxGeometry x="870" y="-100" width="80" height="80" as="geometry" />
        </mxCell>
        <mxCell id="n116JVMDm5xwNgPDnoRn-271" value="" style="endArrow=none;html=1;rounded=0;" edge="1" parent="1">
          <mxGeometry width="50" height="50" relative="1" as="geometry">
            <mxPoint x="909.37" y="60" as="sourcePoint" />
            <mxPoint x="909.37" y="-20" as="targetPoint" />
          </mxGeometry>
        </mxCell>
        <mxCell id="n116JVMDm5xwNgPDnoRn-272" value="1" style="text;html=1;align=center;verticalAlign=middle;resizable=0;points=[];autosize=1;strokeColor=none;fillColor=none;" vertex="1" parent="1">
          <mxGeometry x="905" y="-182" width="30" height="30" as="geometry" />
        </mxCell>
        <mxCell id="n116JVMDm5xwNgPDnoRn-273" value="M" style="text;html=1;align=center;verticalAlign=middle;resizable=0;points=[];autosize=1;strokeColor=none;fillColor=none;" vertex="1" parent="1">
          <mxGeometry x="905" y="28" width="30" height="30" as="geometry" />
        </mxCell>
        <mxCell id="n116JVMDm5xwNgPDnoRn-274" value="Burn" style="rounded=0;whiteSpace=wrap;html=1;" vertex="1" parent="1">
          <mxGeometry x="1730" y="58" width="120" height="60" as="geometry" />
        </mxCell>
        <mxCell id="n116JVMDm5xwNgPDnoRn-275" value="" style="endArrow=none;html=1;rounded=0;exitX=1;exitY=0;exitDx=0;exitDy=0;" edge="1" parent="1" source="n116JVMDm5xwNgPDnoRn-274" target="n116JVMDm5xwNgPDnoRn-276">
          <mxGeometry width="50" height="50" relative="1" as="geometry">
            <mxPoint x="1850" y="55" as="sourcePoint" />
            <mxPoint x="2158" y="-72" as="targetPoint" />
          </mxGeometry>
        </mxCell>
        <mxCell id="n116JVMDm5xwNgPDnoRn-276" value="Restriction Level" style="ellipse;whiteSpace=wrap;html=1;" vertex="1" parent="1">
          <mxGeometry x="1978" y="-52" width="190" height="50" as="geometry" />
        </mxCell>
        <mxCell id="n116JVMDm5xwNgPDnoRn-277" value="" style="endArrow=none;html=1;rounded=0;" edge="1" parent="1" target="n116JVMDm5xwNgPDnoRn-278">
          <mxGeometry width="50" height="50" relative="1" as="geometry">
            <mxPoint x="1850" y="60" as="sourcePoint" />
            <mxPoint x="2208" y="-20" as="targetPoint" />
          </mxGeometry>
        </mxCell>
        <mxCell id="n116JVMDm5xwNgPDnoRn-278" value="Timing" style="ellipse;whiteSpace=wrap;html=1;" vertex="1" parent="1">
          <mxGeometry x="2028" width="190" height="50" as="geometry" />
        </mxCell>
        <mxCell id="n116JVMDm5xwNgPDnoRn-279" value="" style="endArrow=none;html=1;rounded=0;" edge="1" parent="1" target="n116JVMDm5xwNgPDnoRn-280">
          <mxGeometry width="50" height="50" relative="1" as="geometry">
            <mxPoint x="1850" y="58" as="sourcePoint" />
            <mxPoint x="2088" y="-122" as="targetPoint" />
          </mxGeometry>
        </mxCell>
        <mxCell id="n116JVMDm5xwNgPDnoRn-280" value="&lt;u&gt;&lt;b&gt;Burn_ID&lt;/b&gt;&lt;/u&gt;" style="ellipse;whiteSpace=wrap;html=1;" vertex="1" parent="1">
          <mxGeometry x="1920" y="-100" width="190" height="50" as="geometry" />
        </mxCell>
        <mxCell id="n116JVMDm5xwNgPDnoRn-281" value="" style="endArrow=none;html=1;rounded=0;exitX=1;exitY=0.5;exitDx=0;exitDy=0;" edge="1" parent="1" source="n116JVMDm5xwNgPDnoRn-282">
          <mxGeometry width="50" height="50" relative="1" as="geometry">
            <mxPoint x="970" y="100" as="sourcePoint" />
            <mxPoint x="1730" y="90" as="targetPoint" />
          </mxGeometry>
        </mxCell>
        <mxCell id="n116JVMDm5xwNgPDnoRn-284" value="" style="endArrow=none;html=1;rounded=0;exitX=1;exitY=0.5;exitDx=0;exitDy=0;" edge="1" parent="1" source="-z9te3pbn1G7zqjihGLt-1">
          <mxGeometry width="50" height="50" relative="1" as="geometry">
            <mxPoint x="970" y="90" as="sourcePoint" />
            <mxPoint x="1350" y="90" as="targetPoint" />
          </mxGeometry>
        </mxCell>
        <mxCell id="n116JVMDm5xwNgPDnoRn-282" value="has" style="rhombus;whiteSpace=wrap;html=1;" vertex="1" parent="1">
          <mxGeometry x="1350" y="50" width="80" height="80" as="geometry" />
        </mxCell>
        <mxCell id="n116JVMDm5xwNgPDnoRn-285" value="1" style="text;html=1;align=center;verticalAlign=middle;resizable=0;points=[];autosize=1;strokeColor=none;fillColor=none;" vertex="1" parent="1">
          <mxGeometry x="970" y="60" width="30" height="30" as="geometry" />
        </mxCell>
        <mxCell id="n116JVMDm5xwNgPDnoRn-286" value="1" style="text;html=1;align=center;verticalAlign=middle;resizable=0;points=[];autosize=1;strokeColor=none;fillColor=none;" vertex="1" parent="1">
          <mxGeometry x="1685" y="68" width="30" height="30" as="geometry" />
        </mxCell>
        <mxCell id="n116JVMDm5xwNgPDnoRn-289" value="" style="endArrow=none;html=1;rounded=0;" edge="1" parent="1" target="n116JVMDm5xwNgPDnoRn-290">
          <mxGeometry width="50" height="50" relative="1" as="geometry">
            <mxPoint x="970" y="60" as="sourcePoint" />
            <mxPoint x="1328" y="-20" as="targetPoint" />
          </mxGeometry>
        </mxCell>
        <mxCell id="n116JVMDm5xwNgPDnoRn-290" value="&lt;u&gt;&lt;b&gt;County_ID&lt;/b&gt;&lt;/u&gt;" style="ellipse;whiteSpace=wrap;html=1;" vertex="1" parent="1">
          <mxGeometry x="1060" y="-22" width="190" height="50" as="geometry" />
        </mxCell>
        <mxCell id="n116JVMDm5xwNgPDnoRn-291" value="" style="endArrow=none;html=1;rounded=0;exitX=0;exitY=0;exitDx=0;exitDy=0;" edge="1" parent="1" source="-z9te3pbn1G7zqjihGLt-1" target="n116JVMDm5xwNgPDnoRn-292">
          <mxGeometry width="50" height="50" relative="1" as="geometry">
            <mxPoint x="475" y="68" as="sourcePoint" />
            <mxPoint x="833" y="-12" as="targetPoint" />
          </mxGeometry>
        </mxCell>
        <mxCell id="n116JVMDm5xwNgPDnoRn-292" value="Name" style="ellipse;whiteSpace=wrap;html=1;" vertex="1" parent="1">
          <mxGeometry x="565" y="-14" width="190" height="50" as="geometry" />
        </mxCell>
        <mxCell id="n116JVMDm5xwNgPDnoRn-293" value="" style="endArrow=none;html=1;rounded=0;exitX=0;exitY=0;exitDx=0;exitDy=0;" edge="1" parent="1" source="-z9te3pbn1G7zqjihGLt-1" target="n116JVMDm5xwNgPDnoRn-294">
          <mxGeometry width="50" height="50" relative="1" as="geometry">
            <mxPoint x="825" y="112" as="sourcePoint" />
            <mxPoint x="808" y="40" as="targetPoint" />
          </mxGeometry>
        </mxCell>
        <mxCell id="n116JVMDm5xwNgPDnoRn-294" value="Office Location" style="ellipse;whiteSpace=wrap;html=1;" vertex="1" parent="1">
          <mxGeometry x="540" y="38" width="190" height="50" as="geometry" />
        </mxCell>
        <mxCell id="n116JVMDm5xwNgPDnoRn-295" value="" style="endArrow=none;html=1;rounded=0;exitX=0;exitY=1;exitDx=0;exitDy=0;" edge="1" parent="1" source="-z9te3pbn1G7zqjihGLt-1">
          <mxGeometry width="50" height="50" relative="1" as="geometry">
            <mxPoint x="850" y="200" as="sourcePoint" />
            <mxPoint x="741.0985350225319" y="137.97959300096954" as="targetPoint" />
          </mxGeometry>
        </mxCell>
        <mxCell id="n116JVMDm5xwNgPDnoRn-297" value="" style="endArrow=none;html=1;rounded=0;exitX=1;exitY=1;exitDx=0;exitDy=0;" edge="1" parent="1" source="-z9te3pbn1G7zqjihGLt-1" target="n116JVMDm5xwNgPDnoRn-298">
          <mxGeometry width="50" height="50" relative="1" as="geometry">
            <mxPoint x="1315" y="220" as="sourcePoint" />
            <mxPoint x="1298" y="148" as="targetPoint" />
          </mxGeometry>
        </mxCell>
        <mxCell id="n116JVMDm5xwNgPDnoRn-298" value="Email" style="ellipse;whiteSpace=wrap;html=1;" vertex="1" parent="1">
          <mxGeometry x="1030" y="146" width="190" height="50" as="geometry" />
        </mxCell>
        <mxCell id="n116JVMDm5xwNgPDnoRn-301" value="1" style="text;html=1;align=center;verticalAlign=middle;resizable=0;points=[];autosize=1;strokeColor=none;fillColor=none;" vertex="1" parent="1">
          <mxGeometry x="2435" y="848" width="30" height="30" as="geometry" />
        </mxCell>
        <mxCell id="n116JVMDm5xwNgPDnoRn-302" value="1" style="text;html=1;align=center;verticalAlign=middle;resizable=0;points=[];autosize=1;strokeColor=none;fillColor=none;" vertex="1" parent="1">
          <mxGeometry x="5365" y="978" width="30" height="30" as="geometry" />
        </mxCell>
        <mxCell id="n116JVMDm5xwNgPDnoRn-303" value="M" style="text;html=1;align=center;verticalAlign=middle;resizable=0;points=[];autosize=1;strokeColor=none;fillColor=none;" vertex="1" parent="1">
          <mxGeometry x="6465" y="1568" width="30" height="30" as="geometry" />
        </mxCell>
        <mxCell id="n116JVMDm5xwNgPDnoRn-304" value="1" style="text;html=1;align=center;verticalAlign=middle;resizable=0;points=[];autosize=1;strokeColor=none;fillColor=none;" vertex="1" parent="1">
          <mxGeometry x="4575" y="1988" width="30" height="30" as="geometry" />
        </mxCell>
        <mxCell id="n116JVMDm5xwNgPDnoRn-305" value="M" style="text;html=1;align=center;verticalAlign=middle;resizable=0;points=[];autosize=1;strokeColor=none;fillColor=none;" vertex="1" parent="1">
          <mxGeometry x="4575" y="2818" width="30" height="30" as="geometry" />
        </mxCell>
        <mxCell id="n116JVMDm5xwNgPDnoRn-306" value="1" style="text;html=1;align=center;verticalAlign=middle;resizable=0;points=[];autosize=1;strokeColor=none;fillColor=none;" vertex="1" parent="1">
          <mxGeometry x="5865" y="1988" width="30" height="30" as="geometry" />
        </mxCell>
        <mxCell id="n116JVMDm5xwNgPDnoRn-307" value="M" style="text;html=1;align=center;verticalAlign=middle;resizable=0;points=[];autosize=1;strokeColor=none;fillColor=none;" vertex="1" parent="1">
          <mxGeometry x="5865" y="2798" width="30" height="30" as="geometry" />
        </mxCell>
        <mxCell id="n116JVMDm5xwNgPDnoRn-308" value="1" style="text;html=1;align=center;verticalAlign=middle;resizable=0;points=[];autosize=1;strokeColor=none;fillColor=none;" vertex="1" parent="1">
          <mxGeometry x="7055" y="1988" width="30" height="30" as="geometry" />
        </mxCell>
        <mxCell id="n116JVMDm5xwNgPDnoRn-309" value="M" style="text;html=1;align=center;verticalAlign=middle;resizable=0;points=[];autosize=1;strokeColor=none;fillColor=none;" vertex="1" parent="1">
          <mxGeometry x="7055" y="2808" width="30" height="30" as="geometry" />
        </mxCell>
        <mxCell id="n116JVMDm5xwNgPDnoRn-310" value="1" style="text;html=1;align=center;verticalAlign=middle;resizable=0;points=[];autosize=1;strokeColor=none;fillColor=none;" vertex="1" parent="1">
          <mxGeometry x="8415" y="1988" width="30" height="30" as="geometry" />
        </mxCell>
        <mxCell id="n116JVMDm5xwNgPDnoRn-311" value="M" style="text;html=1;align=center;verticalAlign=middle;resizable=0;points=[];autosize=1;strokeColor=none;fillColor=none;" vertex="1" parent="1">
          <mxGeometry x="8415" y="2808" width="30" height="30" as="geometry" />
        </mxCell>
        <mxCell id="n116JVMDm5xwNgPDnoRn-312" value="1" style="text;html=1;align=center;verticalAlign=middle;resizable=0;points=[];autosize=1;strokeColor=none;fillColor=none;" vertex="1" parent="1">
          <mxGeometry x="5875" y="2948" width="30" height="30" as="geometry" />
        </mxCell>
        <mxCell id="n116JVMDm5xwNgPDnoRn-313" value="M" style="text;html=1;align=center;verticalAlign=middle;resizable=0;points=[];autosize=1;strokeColor=none;fillColor=none;" vertex="1" parent="1">
          <mxGeometry x="6915" y="4388" width="30" height="30" as="geometry" />
        </mxCell>
        <mxCell id="n116JVMDm5xwNgPDnoRn-314" value="1" style="text;html=1;align=center;verticalAlign=middle;resizable=0;points=[];autosize=1;strokeColor=none;fillColor=none;" vertex="1" parent="1">
          <mxGeometry x="7075" y="2938" width="30" height="30" as="geometry" />
        </mxCell>
        <mxCell id="n116JVMDm5xwNgPDnoRn-315" value="M" style="text;html=1;align=center;verticalAlign=middle;resizable=0;points=[];autosize=1;strokeColor=none;fillColor=none;" vertex="1" parent="1">
          <mxGeometry x="7065" y="4318" width="30" height="30" as="geometry" />
        </mxCell>
        <mxCell id="n116JVMDm5xwNgPDnoRn-316" value="1" style="text;html=1;align=center;verticalAlign=middle;resizable=0;points=[];autosize=1;strokeColor=none;fillColor=none;" vertex="1" parent="1">
          <mxGeometry x="8425" y="2928" width="30" height="30" as="geometry" />
        </mxCell>
        <mxCell id="n116JVMDm5xwNgPDnoRn-317" value="M" style="text;html=1;align=center;verticalAlign=middle;resizable=0;points=[];autosize=1;strokeColor=none;fillColor=none;" vertex="1" parent="1">
          <mxGeometry x="7165" y="4368" width="30" height="30" as="geometry" />
        </mxCell>
        <mxCell id="n116JVMDm5xwNgPDnoRn-319" value="M" style="text;html=1;align=center;verticalAlign=middle;resizable=0;points=[];autosize=1;strokeColor=none;fillColor=none;" vertex="1" parent="1">
          <mxGeometry x="7094" y="4474" width="30" height="30" as="geometry" />
        </mxCell>
        <mxCell id="n116JVMDm5xwNgPDnoRn-333" value="Staff" style="rounded=0;whiteSpace=wrap;html=1;" vertex="1" parent="1">
          <mxGeometry x="1410" y="2630" width="120" height="60" as="geometry" />
        </mxCell>
        <mxCell id="n116JVMDm5xwNgPDnoRn-334" value="" style="endArrow=none;html=1;rounded=0;exitX=1;exitY=0;exitDx=0;exitDy=0;" edge="1" parent="1" target="n116JVMDm5xwNgPDnoRn-335">
          <mxGeometry width="50" height="50" relative="1" as="geometry">
            <mxPoint x="1530" y="2630" as="sourcePoint" />
            <mxPoint x="1880" y="2530" as="targetPoint" />
          </mxGeometry>
        </mxCell>
        <mxCell id="n116JVMDm5xwNgPDnoRn-335" value="Name" style="ellipse;whiteSpace=wrap;html=1;" vertex="1" parent="1">
          <mxGeometry x="1880" y="2570" width="190" height="50" as="geometry" />
        </mxCell>
        <mxCell id="n116JVMDm5xwNgPDnoRn-336" value="" style="endArrow=none;html=1;rounded=0;exitX=1;exitY=0;exitDx=0;exitDy=0;" edge="1" parent="1" source="n116JVMDm5xwNgPDnoRn-333" target="n116JVMDm5xwNgPDnoRn-337">
          <mxGeometry width="50" height="50" relative="1" as="geometry">
            <mxPoint x="1490" y="2580" as="sourcePoint" />
            <mxPoint x="1840" y="2480" as="targetPoint" />
          </mxGeometry>
        </mxCell>
        <mxCell id="n116JVMDm5xwNgPDnoRn-337" value="&lt;b&gt;&lt;u&gt;Staff_ID&lt;/u&gt;&lt;/b&gt;" style="ellipse;whiteSpace=wrap;html=1;" vertex="1" parent="1">
          <mxGeometry x="1660" y="2500" width="190" height="50" as="geometry" />
        </mxCell>
        <mxCell id="n116JVMDm5xwNgPDnoRn-338" value="" style="endArrow=none;html=1;rounded=0;exitX=1;exitY=1;exitDx=0;exitDy=0;" edge="1" parent="1" source="n116JVMDm5xwNgPDnoRn-333">
          <mxGeometry width="50" height="50" relative="1" as="geometry">
            <mxPoint x="1520" y="2830" as="sourcePoint" />
            <mxPoint x="1725.7523777825618" y="2755.4575905774936" as="targetPoint" />
          </mxGeometry>
        </mxCell>
        <mxCell id="n116JVMDm5xwNgPDnoRn-340" value="" style="endArrow=none;html=1;rounded=0;exitX=1;exitY=1;exitDx=0;exitDy=0;" edge="1" parent="1" source="n116JVMDm5xwNgPDnoRn-333" target="n116JVMDm5xwNgPDnoRn-341">
          <mxGeometry width="50" height="50" relative="1" as="geometry">
            <mxPoint x="1460" y="2880" as="sourcePoint" />
            <mxPoint x="1810" y="2780" as="targetPoint" />
          </mxGeometry>
        </mxCell>
        <mxCell id="n116JVMDm5xwNgPDnoRn-341" value="Password" style="ellipse;whiteSpace=wrap;html=1;" vertex="1" parent="1">
          <mxGeometry x="1630" y="2800" width="190" height="50" as="geometry" />
        </mxCell>
        <mxCell id="n116JVMDm5xwNgPDnoRn-342" value="" style="endArrow=none;html=1;rounded=0;exitX=1;exitY=1;exitDx=0;exitDy=0;" edge="1" parent="1" source="n116JVMDm5xwNgPDnoRn-333" target="n116JVMDm5xwNgPDnoRn-343">
          <mxGeometry width="50" height="50" relative="1" as="geometry">
            <mxPoint x="1650" y="2780" as="sourcePoint" />
            <mxPoint x="2000" y="2680" as="targetPoint" />
          </mxGeometry>
        </mxCell>
        <mxCell id="n116JVMDm5xwNgPDnoRn-343" value="DOB" style="ellipse;whiteSpace=wrap;html=1;" vertex="1" parent="1">
          <mxGeometry x="1810" y="2690" width="190" height="50" as="geometry" />
        </mxCell>
        <mxCell id="n116JVMDm5xwNgPDnoRn-344" value="" style="endArrow=none;html=1;rounded=0;exitX=0;exitY=1;exitDx=0;exitDy=0;" edge="1" parent="1" source="n116JVMDm5xwNgPDnoRn-333">
          <mxGeometry width="50" height="50" relative="1" as="geometry">
            <mxPoint x="970" y="2865" as="sourcePoint" />
            <mxPoint x="1269.0378351559484" y="2786.6597701787787" as="targetPoint" />
          </mxGeometry>
        </mxCell>
        <mxCell id="n116JVMDm5xwNgPDnoRn-346" value="" style="endArrow=none;html=1;rounded=0;exitX=0;exitY=1;exitDx=0;exitDy=0;" edge="1" parent="1" source="n116JVMDm5xwNgPDnoRn-333" target="n116JVMDm5xwNgPDnoRn-347">
          <mxGeometry width="50" height="50" relative="1" as="geometry">
            <mxPoint x="855" y="2820" as="sourcePoint" />
            <mxPoint x="1205" y="2720" as="targetPoint" />
          </mxGeometry>
        </mxCell>
        <mxCell id="n116JVMDm5xwNgPDnoRn-347" value="Address" style="ellipse;whiteSpace=wrap;html=1;" vertex="1" parent="1">
          <mxGeometry x="1025" y="2740" width="190" height="50" as="geometry" />
        </mxCell>
        <mxCell id="n116JVMDm5xwNgPDnoRn-348" value="" style="endArrow=none;html=1;rounded=0;exitX=0;exitY=1;exitDx=0;exitDy=0;" edge="1" parent="1" source="n116JVMDm5xwNgPDnoRn-333" target="n116JVMDm5xwNgPDnoRn-349">
          <mxGeometry width="50" height="50" relative="1" as="geometry">
            <mxPoint x="840" y="2765" as="sourcePoint" />
            <mxPoint x="1190" y="2665" as="targetPoint" />
          </mxGeometry>
        </mxCell>
        <mxCell id="n116JVMDm5xwNgPDnoRn-349" value="Country" style="ellipse;whiteSpace=wrap;html=1;" vertex="1" parent="1">
          <mxGeometry x="1010" y="2685" width="190" height="50" as="geometry" />
        </mxCell>
        <mxCell id="n116JVMDm5xwNgPDnoRn-350" value="" style="endArrow=none;html=1;rounded=0;exitX=0;exitY=0;exitDx=0;exitDy=0;" edge="1" parent="1" source="n116JVMDm5xwNgPDnoRn-333" target="n116JVMDm5xwNgPDnoRn-351">
          <mxGeometry width="50" height="50" relative="1" as="geometry">
            <mxPoint x="1030" y="2550" as="sourcePoint" />
            <mxPoint x="1380" y="2450" as="targetPoint" />
          </mxGeometry>
        </mxCell>
        <mxCell id="n116JVMDm5xwNgPDnoRn-351" value="Salary" style="ellipse;whiteSpace=wrap;html=1;" vertex="1" parent="1">
          <mxGeometry x="1200" y="2470" width="190" height="50" as="geometry" />
        </mxCell>
        <mxCell id="n116JVMDm5xwNgPDnoRn-352" value="" style="endArrow=none;html=1;rounded=0;exitX=0;exitY=0;exitDx=0;exitDy=0;" edge="1" parent="1" source="n116JVMDm5xwNgPDnoRn-333" target="n116JVMDm5xwNgPDnoRn-353">
          <mxGeometry width="50" height="50" relative="1" as="geometry">
            <mxPoint x="855" y="2580" as="sourcePoint" />
            <mxPoint x="1205" y="2480" as="targetPoint" />
          </mxGeometry>
        </mxCell>
        <mxCell id="n116JVMDm5xwNgPDnoRn-353" value="Position" style="ellipse;whiteSpace=wrap;html=1;" vertex="1" parent="1">
          <mxGeometry x="1025" y="2500" width="190" height="50" as="geometry" />
        </mxCell>
        <mxCell id="n116JVMDm5xwNgPDnoRn-354" value="" style="endArrow=none;html=1;rounded=0;exitX=0;exitY=0;exitDx=0;exitDy=0;" edge="1" parent="1" source="n116JVMDm5xwNgPDnoRn-333" target="n116JVMDm5xwNgPDnoRn-355">
          <mxGeometry width="50" height="50" relative="1" as="geometry">
            <mxPoint x="770" y="2630" as="sourcePoint" />
            <mxPoint x="1120" y="2530" as="targetPoint" />
          </mxGeometry>
        </mxCell>
        <mxCell id="n116JVMDm5xwNgPDnoRn-355" value="Join Date" style="ellipse;whiteSpace=wrap;html=1;" vertex="1" parent="1">
          <mxGeometry x="940" y="2550" width="190" height="50" as="geometry" />
        </mxCell>
        <mxCell id="n116JVMDm5xwNgPDnoRn-356" value="" style="endArrow=none;html=1;rounded=0;exitX=0.5;exitY=0;exitDx=0;exitDy=0;" edge="1" parent="1" source="n116JVMDm5xwNgPDnoRn-335" target="n116JVMDm5xwNgPDnoRn-357">
          <mxGeometry width="50" height="50" relative="1" as="geometry">
            <mxPoint x="1970" y="2560" as="sourcePoint" />
            <mxPoint x="2120" y="2400" as="targetPoint" />
          </mxGeometry>
        </mxCell>
        <mxCell id="n116JVMDm5xwNgPDnoRn-357" value="First Name" style="ellipse;whiteSpace=wrap;html=1;" vertex="1" parent="1">
          <mxGeometry x="1940" y="2420" width="190" height="50" as="geometry" />
        </mxCell>
        <mxCell id="n116JVMDm5xwNgPDnoRn-358" value="" style="endArrow=none;html=1;rounded=0;exitX=1;exitY=0;exitDx=0;exitDy=0;" edge="1" parent="1" source="n116JVMDm5xwNgPDnoRn-335" target="n116JVMDm5xwNgPDnoRn-359">
          <mxGeometry width="50" height="50" relative="1" as="geometry">
            <mxPoint x="2040" y="2600" as="sourcePoint" />
            <mxPoint x="2350" y="2450" as="targetPoint" />
          </mxGeometry>
        </mxCell>
        <mxCell id="n116JVMDm5xwNgPDnoRn-359" value="Middle Name" style="ellipse;whiteSpace=wrap;html=1;" vertex="1" parent="1">
          <mxGeometry x="2170" y="2470" width="190" height="50" as="geometry" />
        </mxCell>
        <mxCell id="n116JVMDm5xwNgPDnoRn-360" value="" style="endArrow=none;html=1;rounded=0;exitX=1;exitY=1;exitDx=0;exitDy=0;" edge="1" parent="1" source="n116JVMDm5xwNgPDnoRn-335" target="n116JVMDm5xwNgPDnoRn-361">
          <mxGeometry width="50" height="50" relative="1" as="geometry">
            <mxPoint x="2050" y="2730" as="sourcePoint" />
            <mxPoint x="2360" y="2580" as="targetPoint" />
          </mxGeometry>
        </mxCell>
        <mxCell id="n116JVMDm5xwNgPDnoRn-361" value="Last name" style="ellipse;whiteSpace=wrap;html=1;" vertex="1" parent="1">
          <mxGeometry x="2180" y="2600" width="190" height="50" as="geometry" />
        </mxCell>
        <mxCell id="n116JVMDm5xwNgPDnoRn-362" value="" style="endArrow=none;html=1;rounded=0;exitX=0;exitY=1;exitDx=0;exitDy=0;" edge="1" parent="1">
          <mxGeometry width="50" height="50" relative="1" as="geometry">
            <mxPoint x="1025" y="2765" as="sourcePoint" />
            <mxPoint x="812" y="2779" as="targetPoint" />
          </mxGeometry>
        </mxCell>
        <mxCell id="n116JVMDm5xwNgPDnoRn-363" value="" style="endArrow=none;html=1;rounded=0;exitX=0;exitY=0.5;exitDx=0;exitDy=0;" edge="1" parent="1" source="n116JVMDm5xwNgPDnoRn-347" target="n116JVMDm5xwNgPDnoRn-364">
          <mxGeometry width="50" height="50" relative="1" as="geometry">
            <mxPoint x="1070" y="2825" as="sourcePoint" />
            <mxPoint x="850" y="2800" as="targetPoint" />
          </mxGeometry>
        </mxCell>
        <mxCell id="n116JVMDm5xwNgPDnoRn-364" value="Postal Code" style="ellipse;whiteSpace=wrap;html=1;" vertex="1" parent="1">
          <mxGeometry x="670" y="2820" width="190" height="50" as="geometry" />
        </mxCell>
        <mxCell id="n116JVMDm5xwNgPDnoRn-365" value="" style="endArrow=none;html=1;rounded=0;exitX=0;exitY=0.5;exitDx=0;exitDy=0;" edge="1" parent="1" source="n116JVMDm5xwNgPDnoRn-347" target="n116JVMDm5xwNgPDnoRn-366">
          <mxGeometry width="50" height="50" relative="1" as="geometry">
            <mxPoint x="1020" y="2770" as="sourcePoint" />
            <mxPoint x="965" y="2850" as="targetPoint" />
          </mxGeometry>
        </mxCell>
        <mxCell id="n116JVMDm5xwNgPDnoRn-366" value="City" style="ellipse;whiteSpace=wrap;html=1;" vertex="1" parent="1">
          <mxGeometry x="785" y="2870" width="190" height="50" as="geometry" />
        </mxCell>
        <mxCell id="n116JVMDm5xwNgPDnoRn-367" value="" style="endArrow=none;html=1;rounded=0;exitX=0;exitY=0.5;exitDx=0;exitDy=0;" edge="1" parent="1" source="n116JVMDm5xwNgPDnoRn-347" target="n116JVMDm5xwNgPDnoRn-368">
          <mxGeometry width="50" height="50" relative="1" as="geometry">
            <mxPoint x="1030" y="2705" as="sourcePoint" />
            <mxPoint x="810" y="2680" as="targetPoint" />
          </mxGeometry>
        </mxCell>
        <mxCell id="n116JVMDm5xwNgPDnoRn-368" value="State" style="ellipse;whiteSpace=wrap;html=1;" vertex="1" parent="1">
          <mxGeometry x="630" y="2700" width="190" height="50" as="geometry" />
        </mxCell>
        <mxCell id="n116JVMDm5xwNgPDnoRn-369" value="" style="endArrow=none;html=1;rounded=0;" edge="1" parent="1" target="n116JVMDm5xwNgPDnoRn-370">
          <mxGeometry width="50" height="50" relative="1" as="geometry">
            <mxPoint x="1530" y="2630" as="sourcePoint" />
            <mxPoint x="1785" y="2420" as="targetPoint" />
          </mxGeometry>
        </mxCell>
        <mxCell id="n116JVMDm5xwNgPDnoRn-370" value="Eye Color" style="ellipse;whiteSpace=wrap;html=1;" vertex="1" parent="1">
          <mxGeometry x="1605" y="2440" width="190" height="50" as="geometry" />
        </mxCell>
        <mxCell id="n116JVMDm5xwNgPDnoRn-371" value="" style="endArrow=none;html=1;rounded=0;exitX=1;exitY=1;exitDx=0;exitDy=0;" edge="1" parent="1" source="n116JVMDm5xwNgPDnoRn-333" target="n116JVMDm5xwNgPDnoRn-372">
          <mxGeometry width="50" height="50" relative="1" as="geometry">
            <mxPoint x="1530" y="2700" as="sourcePoint" />
            <mxPoint x="1700" y="2830" as="targetPoint" />
          </mxGeometry>
        </mxCell>
        <mxCell id="n116JVMDm5xwNgPDnoRn-372" value="Height" style="ellipse;whiteSpace=wrap;html=1;" vertex="1" parent="1">
          <mxGeometry x="1520" y="2850" width="190" height="50" as="geometry" />
        </mxCell>
        <mxCell id="n116JVMDm5xwNgPDnoRn-373" value="" style="endArrow=none;html=1;rounded=0;" edge="1" parent="1" target="n116JVMDm5xwNgPDnoRn-374">
          <mxGeometry width="50" height="50" relative="1" as="geometry">
            <mxPoint x="1410" y="2630" as="sourcePoint" />
            <mxPoint x="1530" y="2400" as="targetPoint" />
          </mxGeometry>
        </mxCell>
        <mxCell id="n116JVMDm5xwNgPDnoRn-374" value="Gender" style="ellipse;whiteSpace=wrap;html=1;" vertex="1" parent="1">
          <mxGeometry x="1290" y="2410" width="190" height="50" as="geometry" />
        </mxCell>
        <mxCell id="n116JVMDm5xwNgPDnoRn-375" value="Street Address" style="ellipse;whiteSpace=wrap;html=1;" vertex="1" parent="1">
          <mxGeometry x="630" y="2750" width="190" height="50" as="geometry" />
        </mxCell>
        <mxCell id="n116JVMDm5xwNgPDnoRn-376" value="" style="endArrow=none;html=1;rounded=0;exitX=1;exitY=0.5;exitDx=0;exitDy=0;" edge="1" parent="1" source="-z9te3pbn1G7zqjihGLt-13">
          <mxGeometry width="50" height="50" relative="1" as="geometry">
            <mxPoint x="670" y="2300" as="sourcePoint" />
            <mxPoint x="830" y="1900" as="targetPoint" />
            <Array as="points">
              <mxPoint x="820" y="930" />
              <mxPoint x="830" y="1810" />
            </Array>
          </mxGeometry>
        </mxCell>
        <mxCell id="n116JVMDm5xwNgPDnoRn-377" value="works at" style="rhombus;whiteSpace=wrap;html=1;" vertex="1" parent="1">
          <mxGeometry x="790" y="1900" width="80" height="80" as="geometry" />
        </mxCell>
        <mxCell id="n116JVMDm5xwNgPDnoRn-378" value="" style="endArrow=none;html=1;rounded=0;entryX=0.5;entryY=1;entryDx=0;entryDy=0;exitX=0;exitY=0.5;exitDx=0;exitDy=0;" edge="1" parent="1" source="n116JVMDm5xwNgPDnoRn-333" target="n116JVMDm5xwNgPDnoRn-377">
          <mxGeometry width="50" height="50" relative="1" as="geometry">
            <mxPoint x="980" y="2060" as="sourcePoint" />
            <mxPoint x="1030" y="2010" as="targetPoint" />
            <Array as="points">
              <mxPoint x="830" y="2650" />
            </Array>
          </mxGeometry>
        </mxCell>
        <mxCell id="n116JVMDm5xwNgPDnoRn-379" value="M" style="edgeLabel;html=1;align=center;verticalAlign=middle;resizable=0;points=[];" connectable="0" vertex="1" parent="n116JVMDm5xwNgPDnoRn-378">
          <mxGeometry x="-0.8958" y="-8" relative="1" as="geometry">
            <mxPoint x="1" as="offset" />
          </mxGeometry>
        </mxCell>
        <mxCell id="n116JVMDm5xwNgPDnoRn-380" value="1" style="text;html=1;align=center;verticalAlign=middle;resizable=0;points=[];autosize=1;strokeColor=none;fillColor=none;" vertex="1" parent="1">
          <mxGeometry x="275" y="898" width="30" height="30" as="geometry" />
        </mxCell>
        <mxCell id="n116JVMDm5xwNgPDnoRn-382" value="" style="endArrow=none;html=1;rounded=0;entryX=0.75;entryY=0;entryDx=0;entryDy=0;exitX=0.5;exitY=1;exitDx=0;exitDy=0;" edge="1" parent="1" source="n116JVMDm5xwNgPDnoRn-383" target="n116JVMDm5xwNgPDnoRn-333">
          <mxGeometry width="50" height="50" relative="1" as="geometry">
            <mxPoint x="1500" y="2020" as="sourcePoint" />
            <mxPoint x="1070" y="2310" as="targetPoint" />
            <Array as="points">
              <mxPoint x="1938" y="2060" />
              <mxPoint x="1500" y="2060" />
            </Array>
          </mxGeometry>
        </mxCell>
        <mxCell id="n116JVMDm5xwNgPDnoRn-383" value="Works at" style="rhombus;whiteSpace=wrap;html=1;" vertex="1" parent="1">
          <mxGeometry x="1898" y="1777.5" width="80" height="80" as="geometry" />
        </mxCell>
        <mxCell id="n116JVMDm5xwNgPDnoRn-384" value="" style="endArrow=none;html=1;rounded=0;entryX=0;entryY=0.75;entryDx=0;entryDy=0;exitX=0.5;exitY=0;exitDx=0;exitDy=0;" edge="1" parent="1" source="n116JVMDm5xwNgPDnoRn-383" target="-z9te3pbn1G7zqjihGLt-14">
          <mxGeometry width="50" height="50" relative="1" as="geometry">
            <mxPoint x="1480" y="1350" as="sourcePoint" />
            <mxPoint x="1530" y="1300" as="targetPoint" />
            <Array as="points">
              <mxPoint x="1938" y="950" />
            </Array>
          </mxGeometry>
        </mxCell>
        <mxCell id="n116JVMDm5xwNgPDnoRn-385" value="M" style="text;html=1;align=center;verticalAlign=middle;resizable=0;points=[];autosize=1;strokeColor=none;fillColor=none;" vertex="1" parent="1">
          <mxGeometry x="1935" y="1998" width="30" height="30" as="geometry" />
        </mxCell>
        <mxCell id="n116JVMDm5xwNgPDnoRn-387" value="1" style="text;html=1;align=center;verticalAlign=middle;resizable=0;points=[];autosize=1;strokeColor=none;fillColor=none;" vertex="1" parent="1">
          <mxGeometry x="1935" y="968" width="30" height="30" as="geometry" />
        </mxCell>
        <mxCell id="n116JVMDm5xwNgPDnoRn-388" value="" style="endArrow=none;html=1;rounded=0;entryX=0;entryY=0.5;entryDx=0;entryDy=0;exitX=0.5;exitY=0;exitDx=0;exitDy=0;strokeColor=#000000;" edge="1" parent="1" source="n116JVMDm5xwNgPDnoRn-390" target="n116JVMDm5xwNgPDnoRn-54">
          <mxGeometry width="50" height="50" relative="1" as="geometry">
            <mxPoint x="3250" y="1635" as="sourcePoint" />
            <mxPoint x="5150" y="1760" as="targetPoint" />
            <Array as="points">
              <mxPoint x="3260" y="1620" />
            </Array>
          </mxGeometry>
        </mxCell>
        <mxCell id="n116JVMDm5xwNgPDnoRn-389" value="" style="endArrow=none;html=1;rounded=0;exitX=1;exitY=0.5;exitDx=0;exitDy=0;entryX=0.5;entryY=1;entryDx=0;entryDy=0;strokeColor=#000000;" edge="1" parent="1" source="n116JVMDm5xwNgPDnoRn-333" target="n116JVMDm5xwNgPDnoRn-390">
          <mxGeometry width="50" height="50" relative="1" as="geometry">
            <mxPoint x="2320" y="2180" as="sourcePoint" />
            <mxPoint x="3150" y="2660" as="targetPoint" />
            <Array as="points">
              <mxPoint x="3265" y="2660" />
            </Array>
          </mxGeometry>
        </mxCell>
        <mxCell id="n116JVMDm5xwNgPDnoRn-390" value="employs" style="rhombus;whiteSpace=wrap;html=1;" vertex="1" parent="1">
          <mxGeometry x="3225" y="2068" width="80" height="80" as="geometry" />
        </mxCell>
        <mxCell id="n116JVMDm5xwNgPDnoRn-395" value="M" style="text;html=1;align=center;verticalAlign=middle;resizable=0;points=[];autosize=1;strokeColor=none;fillColor=none;" vertex="1" parent="1">
          <mxGeometry x="1655" y="2640" width="30" height="30" as="geometry" />
        </mxCell>
        <mxCell id="n116JVMDm5xwNgPDnoRn-397" value="1" style="text;html=1;align=center;verticalAlign=middle;resizable=0;points=[];autosize=1;strokeColor=none;fillColor=none;" vertex="1" parent="1">
          <mxGeometry x="6325" y="1608" width="30" height="30" as="geometry" />
        </mxCell>
        <mxCell id="n116JVMDm5xwNgPDnoRn-398" value="1" style="text;html=1;align=center;verticalAlign=middle;resizable=0;points=[];autosize=1;strokeColor=none;fillColor=none;" vertex="1" parent="1">
          <mxGeometry x="245" y="-413" width="30" height="30" as="geometry" />
        </mxCell>
        <mxCell id="n116JVMDm5xwNgPDnoRn-400" value="1" style="text;html=1;align=center;verticalAlign=middle;resizable=0;points=[];autosize=1;strokeColor=none;fillColor=none;" vertex="1" parent="1">
          <mxGeometry x="305" y="-413" width="30" height="30" as="geometry" />
        </mxCell>
        <mxCell id="n116JVMDm5xwNgPDnoRn-405" value="" style="endArrow=none;html=1;rounded=0;exitX=0.5;exitY=0;exitDx=0;exitDy=0;entryX=0.096;entryY=0.998;entryDx=0;entryDy=0;entryPerimeter=0;" edge="1" parent="1" source="n116JVMDm5xwNgPDnoRn-28" target="n116JVMDm5xwNgPDnoRn-1">
          <mxGeometry width="50" height="50" relative="1" as="geometry">
            <mxPoint x="270" y="200" as="sourcePoint" />
            <mxPoint x="2770" y="-300" as="targetPoint" />
            <Array as="points">
              <mxPoint x="130" y="-290" />
              <mxPoint x="2722" y="-300" />
            </Array>
          </mxGeometry>
        </mxCell>
        <mxCell id="n116JVMDm5xwNgPDnoRn-406" value="1" style="text;html=1;align=center;verticalAlign=middle;resizable=0;points=[];autosize=1;strokeColor=none;fillColor=none;" vertex="1" parent="1">
          <mxGeometry x="2695" y="-782" width="30" height="30" as="geometry" />
        </mxCell>
        <mxCell id="n116JVMDm5xwNgPDnoRn-407" value="1" style="text;html=1;align=center;verticalAlign=middle;resizable=0;points=[];autosize=1;strokeColor=none;fillColor=none;" vertex="1" parent="1">
          <mxGeometry x="2735" y="-792" width="30" height="30" as="geometry" />
        </mxCell>
        <mxCell id="n116JVMDm5xwNgPDnoRn-408" value="1" style="text;html=1;align=center;verticalAlign=middle;resizable=0;points=[];autosize=1;strokeColor=none;fillColor=none;" vertex="1" parent="1">
          <mxGeometry x="2755" y="-782" width="30" height="30" as="geometry" />
        </mxCell>
        <mxCell id="n116JVMDm5xwNgPDnoRn-409" value="1" style="text;html=1;align=center;verticalAlign=middle;resizable=0;points=[];autosize=1;strokeColor=none;fillColor=none;" vertex="1" parent="1">
          <mxGeometry x="5335" y="868" width="30" height="30" as="geometry" />
        </mxCell>
        <mxCell id="n116JVMDm5xwNgPDnoRn-410" value="Course_User" style="rounded=0;whiteSpace=wrap;html=1;" vertex="1" parent="1">
          <mxGeometry x="3650" y="3600" width="120" height="60" as="geometry" />
        </mxCell>
        <mxCell id="n116JVMDm5xwNgPDnoRn-411" value="" style="endArrow=none;html=1;rounded=0;exitX=0;exitY=0;exitDx=0;exitDy=0;" edge="1" parent="1" source="n116JVMDm5xwNgPDnoRn-410" target="n116JVMDm5xwNgPDnoRn-412">
          <mxGeometry width="50" height="50" relative="1" as="geometry">
            <mxPoint x="3620" y="3470" as="sourcePoint" />
            <mxPoint x="3490" y="3490" as="targetPoint" />
          </mxGeometry>
        </mxCell>
        <mxCell id="n116JVMDm5xwNgPDnoRn-412" value="Course_ID" style="ellipse;whiteSpace=wrap;html=1;" vertex="1" parent="1">
          <mxGeometry x="3310" y="3510" width="190" height="50" as="geometry" />
        </mxCell>
        <mxCell id="n116JVMDm5xwNgPDnoRn-413" value="" style="endArrow=none;html=1;rounded=0;exitX=1;exitY=0;exitDx=0;exitDy=0;" edge="1" parent="1" source="n116JVMDm5xwNgPDnoRn-410" target="n116JVMDm5xwNgPDnoRn-414">
          <mxGeometry width="50" height="50" relative="1" as="geometry">
            <mxPoint x="4190" y="3590" as="sourcePoint" />
            <mxPoint x="4030" y="3480" as="targetPoint" />
          </mxGeometry>
        </mxCell>
        <mxCell id="n116JVMDm5xwNgPDnoRn-414" value="User_ID" style="ellipse;whiteSpace=wrap;html=1;" vertex="1" parent="1">
          <mxGeometry x="3850" y="3500" width="190" height="50" as="geometry" />
        </mxCell>
        <mxCell id="n116JVMDm5xwNgPDnoRn-415" value="M" style="text;html=1;align=center;verticalAlign=middle;resizable=0;points=[];autosize=1;strokeColor=none;fillColor=none;" vertex="1" parent="1">
          <mxGeometry x="3715" y="3558" width="30" height="30" as="geometry" />
        </mxCell>
        <mxCell id="n116JVMDm5xwNgPDnoRn-416" value="1" style="text;html=1;align=center;verticalAlign=middle;resizable=0;points=[];autosize=1;strokeColor=none;fillColor=none;" vertex="1" parent="1">
          <mxGeometry x="3715" y="3668" width="30" height="30" as="geometry" />
        </mxCell>
        <mxCell id="n116JVMDm5xwNgPDnoRn-420" value="Helpline Number" style="ellipse;shape=doubleEllipse;margin=3;whiteSpace=wrap;html=1;align=center;" vertex="1" parent="1">
          <mxGeometry x="585" y="125" width="175" height="50" as="geometry" />
        </mxCell>
        <mxCell id="n116JVMDm5xwNgPDnoRn-421" value="&lt;u&gt;&lt;b&gt;Resource_ID&lt;/b&gt;&lt;/u&gt;" style="ellipse;whiteSpace=wrap;html=1;" vertex="1" parent="1">
          <mxGeometry x="1080" y="298" width="190" height="50" as="geometry" />
        </mxCell>
        <mxCell id="n116JVMDm5xwNgPDnoRn-422" value="" style="endArrow=none;html=1;rounded=0;exitX=1;exitY=0;exitDx=0;exitDy=0;entryX=0.053;entryY=0.706;entryDx=0;entryDy=0;entryPerimeter=0;" edge="1" parent="1" source="-z9te3pbn1G7zqjihGLt-2" target="n116JVMDm5xwNgPDnoRn-421">
          <mxGeometry width="50" height="50" relative="1" as="geometry">
            <mxPoint x="1020" y="300" as="sourcePoint" />
            <mxPoint x="1070" y="250" as="targetPoint" />
          </mxGeometry>
        </mxCell>
        <mxCell id="n116JVMDm5xwNgPDnoRn-423" value="Name" style="ellipse;whiteSpace=wrap;html=1;" vertex="1" parent="1">
          <mxGeometry x="1110" y="414" width="190" height="50" as="geometry" />
        </mxCell>
        <mxCell id="n116JVMDm5xwNgPDnoRn-424" value="" style="endArrow=none;html=1;rounded=0;exitX=1;exitY=1;exitDx=0;exitDy=0;entryX=0;entryY=0.5;entryDx=0;entryDy=0;" edge="1" parent="1" source="-z9te3pbn1G7zqjihGLt-2" target="n116JVMDm5xwNgPDnoRn-423">
          <mxGeometry width="50" height="50" relative="1" as="geometry">
            <mxPoint x="1000" y="476" as="sourcePoint" />
            <mxPoint x="1100" y="366" as="targetPoint" />
          </mxGeometry>
        </mxCell>
        <mxCell id="n116JVMDm5xwNgPDnoRn-425" value="Type" style="ellipse;whiteSpace=wrap;html=1;" vertex="1" parent="1">
          <mxGeometry x="540" y="430" width="190" height="50" as="geometry" />
        </mxCell>
        <mxCell id="n116JVMDm5xwNgPDnoRn-426" value="" style="endArrow=none;html=1;rounded=0;exitX=0;exitY=0.75;exitDx=0;exitDy=0;entryX=1;entryY=0;entryDx=0;entryDy=0;" edge="1" parent="1" source="-z9te3pbn1G7zqjihGLt-2" target="n116JVMDm5xwNgPDnoRn-425">
          <mxGeometry width="50" height="50" relative="1" as="geometry">
            <mxPoint x="485" y="500" as="sourcePoint" />
            <mxPoint x="585" y="390" as="targetPoint" />
          </mxGeometry>
        </mxCell>
        <mxCell id="n116JVMDm5xwNgPDnoRn-427" value="Permissions" style="ellipse;shape=doubleEllipse;margin=3;whiteSpace=wrap;html=1;align=center;" vertex="1" parent="1">
          <mxGeometry x="460" y="1415" width="180" height="55" as="geometry" />
        </mxCell>
        <mxCell id="n116JVMDm5xwNgPDnoRn-428" value="Total Days" style="ellipse;whiteSpace=wrap;html=1;align=center;dashed=1;" vertex="1" parent="1">
          <mxGeometry x="-50" y="1580" width="160" height="40" as="geometry" />
        </mxCell>
        <mxCell id="n116JVMDm5xwNgPDnoRn-429" value="" style="endArrow=none;html=1;rounded=0;" edge="1" parent="1">
          <mxGeometry width="50" height="50" relative="1" as="geometry">
            <mxPoint x="60" y="1580" as="sourcePoint" />
            <mxPoint x="100" y="1420" as="targetPoint" />
          </mxGeometry>
        </mxCell>
        <mxCell id="n116JVMDm5xwNgPDnoRn-430" value="Job" style="shape=ext;margin=3;double=1;whiteSpace=wrap;html=1;align=center;" vertex="1" parent="1">
          <mxGeometry x="-2650" y="394" width="120" height="66" as="geometry" />
        </mxCell>
        <mxCell id="n116JVMDm5xwNgPDnoRn-431" value="" style="endArrow=none;html=1;rounded=0;entryX=0.4;entryY=-0.105;entryDx=0;entryDy=0;entryPerimeter=0;exitX=0.443;exitY=0.041;exitDx=0;exitDy=0;exitPerimeter=0;" edge="1" parent="1" source="n116JVMDm5xwNgPDnoRn-235">
          <mxGeometry width="50" height="50" relative="1" as="geometry">
            <mxPoint x="-2670" y="495.15" as="sourcePoint" />
            <mxPoint x="-2593" y="459.9999999999999" as="targetPoint" />
          </mxGeometry>
        </mxCell>
        <mxCell id="n116JVMDm5xwNgPDnoRn-432" value="Contaminants" style="ellipse;shape=doubleEllipse;margin=3;whiteSpace=wrap;html=1;align=center;" vertex="1" parent="1">
          <mxGeometry x="2010" y="1340" width="198" height="50" as="geometry" />
        </mxCell>
        <mxCell id="n116JVMDm5xwNgPDnoRn-433" value="Mobile Number" style="ellipse;shape=doubleEllipse;margin=3;whiteSpace=wrap;html=1;align=center;" vertex="1" parent="1">
          <mxGeometry y="-690" width="230" height="53.5" as="geometry" />
        </mxCell>
        <mxCell id="n116JVMDm5xwNgPDnoRn-434" value="Age" style="ellipse;whiteSpace=wrap;html=1;align=center;dashed=1;" vertex="1" parent="1">
          <mxGeometry x="680" y="-827" width="180" height="37" as="geometry" />
        </mxCell>
        <mxCell id="n116JVMDm5xwNgPDnoRn-435" value="" style="endArrow=none;html=1;rounded=0;exitX=1;exitY=1;exitDx=0;exitDy=0;entryX=0;entryY=0.5;entryDx=0;entryDy=0;" edge="1" parent="1" source="-z9te3pbn1G7zqjihGLt-153" target="n116JVMDm5xwNgPDnoRn-434">
          <mxGeometry width="50" height="50" relative="1" as="geometry">
            <mxPoint x="640" y="-720" as="sourcePoint" />
            <mxPoint x="690" y="-770" as="targetPoint" />
          </mxGeometry>
        </mxCell>
        <mxCell id="n116JVMDm5xwNgPDnoRn-436" value="Email" style="ellipse;shape=doubleEllipse;margin=3;whiteSpace=wrap;html=1;align=center;" vertex="1" parent="1">
          <mxGeometry x="3010" y="-900" width="230" height="60" as="geometry" />
        </mxCell>
        <mxCell id="n116JVMDm5xwNgPDnoRn-438" value="Office Location" style="ellipse;shape=doubleEllipse;margin=3;whiteSpace=wrap;html=1;align=center;" vertex="1" parent="1">
          <mxGeometry x="2335" y="-950" width="230" height="60" as="geometry" />
        </mxCell>
        <mxCell id="n116JVMDm5xwNgPDnoRn-439" value="Phone" style="ellipse;shape=doubleEllipse;margin=3;whiteSpace=wrap;html=1;align=center;" vertex="1" parent="1">
          <mxGeometry x="2995" y="-780" width="230" height="60" as="geometry" />
        </mxCell>
        <mxCell id="n116JVMDm5xwNgPDnoRn-440" value="Social Media Link" style="ellipse;shape=doubleEllipse;margin=3;whiteSpace=wrap;html=1;align=center;" vertex="1" parent="1">
          <mxGeometry x="2265" y="-768.5" width="230" height="60" as="geometry" />
        </mxCell>
        <mxCell id="n116JVMDm5xwNgPDnoRn-441" value="Phone" style="ellipse;shape=doubleEllipse;margin=3;whiteSpace=wrap;html=1;align=center;" vertex="1" parent="1">
          <mxGeometry x="1130" y="2783" width="230" height="60" as="geometry" />
        </mxCell>
        <mxCell id="n116JVMDm5xwNgPDnoRn-442" value="Email" style="ellipse;shape=doubleEllipse;margin=3;whiteSpace=wrap;html=1;align=center;" vertex="1" parent="1">
          <mxGeometry x="1715" y="2740" width="230" height="60" as="geometry" />
        </mxCell>
        <mxCell id="n116JVMDm5xwNgPDnoRn-443" value="Age" style="ellipse;whiteSpace=wrap;html=1;align=center;dashed=1;" vertex="1" parent="1">
          <mxGeometry x="1730" y="2660" width="100" height="40" as="geometry" />
        </mxCell>
        <mxCell id="n116JVMDm5xwNgPDnoRn-444" value="" style="endArrow=none;html=1;rounded=0;entryX=0;entryY=0.5;entryDx=0;entryDy=0;" edge="1" parent="1" target="n116JVMDm5xwNgPDnoRn-443">
          <mxGeometry width="50" height="50" relative="1" as="geometry">
            <mxPoint x="1530" y="2690" as="sourcePoint" />
            <mxPoint x="1670" y="2760" as="targetPoint" />
          </mxGeometry>
        </mxCell>
        <mxCell id="n116JVMDm5xwNgPDnoRn-445" value="Phone" style="ellipse;shape=doubleEllipse;margin=3;whiteSpace=wrap;html=1;align=center;" vertex="1" parent="1">
          <mxGeometry x="6220" y="1757.5" width="180" height="42.5" as="geometry" />
        </mxCell>
        <mxCell id="n116JVMDm5xwNgPDnoRn-446" value="Course Duration" style="ellipse;whiteSpace=wrap;html=1;align=center;dashed=1;" vertex="1" parent="1">
          <mxGeometry x="6830" y="4200" width="160" height="40" as="geometry" />
        </mxCell>
        <mxCell id="n116JVMDm5xwNgPDnoRn-447" value="" style="endArrow=none;html=1;rounded=0;entryX=0.5;entryY=1;entryDx=0;entryDy=0;exitX=0;exitY=0;exitDx=0;exitDy=0;" edge="1" parent="1" source="n116JVMDm5xwNgPDnoRn-134" target="n116JVMDm5xwNgPDnoRn-446">
          <mxGeometry width="50" height="50" relative="1" as="geometry">
            <mxPoint x="7010" y="4410" as="sourcePoint" />
            <mxPoint x="7060" y="4360" as="targetPoint" />
          </mxGeometry>
        </mxCell>
        <mxCell id="n116JVMDm5xwNgPDnoRn-452" value="1" style="text;html=1;align=center;verticalAlign=middle;resizable=0;points=[];autosize=1;strokeColor=none;fillColor=none;" vertex="1" parent="1">
          <mxGeometry x="6545" y="1608" width="30" height="30" as="geometry" />
        </mxCell>
        <mxCell id="n116JVMDm5xwNgPDnoRn-453" value="M" style="text;html=1;align=center;verticalAlign=middle;resizable=0;points=[];autosize=1;strokeColor=none;fillColor=none;" vertex="1" parent="1">
          <mxGeometry x="8535" y="1608" width="30" height="30" as="geometry" />
        </mxCell>
        <mxCell id="n116JVMDm5xwNgPDnoRn-454" value="Area" style="rounded=0;whiteSpace=wrap;html=1;" vertex="1" parent="1">
          <mxGeometry x="1630" y="-620" width="120" height="60" as="geometry" />
        </mxCell>
        <mxCell id="n116JVMDm5xwNgPDnoRn-457" value="" style="endArrow=none;html=1;rounded=0;exitX=1;exitY=0;exitDx=0;exitDy=0;" edge="1" parent="1" target="n116JVMDm5xwNgPDnoRn-458">
          <mxGeometry width="50" height="50" relative="1" as="geometry">
            <mxPoint x="1750" y="-620" as="sourcePoint" />
            <mxPoint x="2270" y="-605" as="targetPoint" />
          </mxGeometry>
        </mxCell>
        <mxCell id="n116JVMDm5xwNgPDnoRn-458" value="&lt;u&gt;&lt;b&gt;Area_ID&lt;/b&gt;&lt;/u&gt;" style="ellipse;whiteSpace=wrap;html=1;" vertex="1" parent="1">
          <mxGeometry x="1890" y="-695" width="190" height="50" as="geometry" />
        </mxCell>
        <mxCell id="n116JVMDm5xwNgPDnoRn-459" value="" style="endArrow=none;html=1;rounded=0;exitX=0;exitY=0;exitDx=0;exitDy=0;" edge="1" parent="1" target="n116JVMDm5xwNgPDnoRn-460">
          <mxGeometry width="50" height="50" relative="1" as="geometry">
            <mxPoint x="1630" y="-620" as="sourcePoint" />
            <mxPoint x="1660" y="-600" as="targetPoint" />
          </mxGeometry>
        </mxCell>
        <mxCell id="n116JVMDm5xwNgPDnoRn-460" value="Area Number" style="ellipse;whiteSpace=wrap;html=1;" vertex="1" parent="1">
          <mxGeometry x="1280" y="-690" width="190" height="50" as="geometry" />
        </mxCell>
        <mxCell id="n116JVMDm5xwNgPDnoRn-461" value="" style="endArrow=none;html=1;rounded=0;exitX=0.886;exitY=-0.008;exitDx=0;exitDy=0;exitPerimeter=0;strokeColor=#000000;" edge="1" parent="1" source="-z9te3pbn1G7zqjihGLt-1">
          <mxGeometry width="50" height="50" relative="1" as="geometry">
            <mxPoint x="1340" y="-60" as="sourcePoint" />
            <mxPoint x="1730" y="-140" as="targetPoint" />
            <Array as="points">
              <mxPoint x="960" y="-140" />
            </Array>
          </mxGeometry>
        </mxCell>
        <mxCell id="n116JVMDm5xwNgPDnoRn-462" value="has" style="rhombus;whiteSpace=wrap;html=1;" vertex="1" parent="1">
          <mxGeometry x="1650" y="-182" width="80" height="80" as="geometry" />
        </mxCell>
        <mxCell id="n116JVMDm5xwNgPDnoRn-463" value="" style="endArrow=none;html=1;rounded=0;entryX=0.5;entryY=1;entryDx=0;entryDy=0;exitX=0.5;exitY=0;exitDx=0;exitDy=0;strokeColor=#000000;" edge="1" parent="1" source="n116JVMDm5xwNgPDnoRn-462" target="n116JVMDm5xwNgPDnoRn-454">
          <mxGeometry width="50" height="50" relative="1" as="geometry">
            <mxPoint x="1540" y="-120" as="sourcePoint" />
            <mxPoint x="1590" y="-170" as="targetPoint" />
          </mxGeometry>
        </mxCell>
        <mxCell id="n116JVMDm5xwNgPDnoRn-464" value="1" style="text;html=1;align=center;verticalAlign=middle;resizable=0;points=[];autosize=1;strokeColor=none;fillColor=none;" vertex="1" parent="1">
          <mxGeometry x="1695" y="-552" width="30" height="30" as="geometry" />
        </mxCell>
        <mxCell id="n116JVMDm5xwNgPDnoRn-465" value="M" style="text;html=1;align=center;verticalAlign=middle;resizable=0;points=[];autosize=1;strokeColor=none;fillColor=none;" vertex="1" parent="1">
          <mxGeometry x="955" y="28" width="30" height="30" as="geometry" />
        </mxCell>
        <mxCell id="n116JVMDm5xwNgPDnoRn-466" value="" style="endArrow=none;html=1;rounded=0;exitX=1;exitY=0.75;exitDx=0;exitDy=0;entryX=0.5;entryY=0;entryDx=0;entryDy=0;strokeColor=#000000;" edge="1" parent="1" source="-z9te3pbn1G7zqjihGLt-1" target="n116JVMDm5xwNgPDnoRn-467">
          <mxGeometry width="50" height="50" relative="1" as="geometry">
            <mxPoint x="970" y="120" as="sourcePoint" />
            <mxPoint x="1550" y="850" as="targetPoint" />
            <Array as="points">
              <mxPoint x="1550" y="160" />
            </Array>
          </mxGeometry>
        </mxCell>
        <mxCell id="n116JVMDm5xwNgPDnoRn-467" value="contains" style="rhombus;whiteSpace=wrap;html=1;" vertex="1" parent="1">
          <mxGeometry x="1510" y="888" width="80" height="80" as="geometry" />
        </mxCell>
        <mxCell id="n116JVMDm5xwNgPDnoRn-468" value="" style="endArrow=none;html=1;rounded=0;entryX=0;entryY=0.5;entryDx=0;entryDy=0;exitX=1;exitY=0.5;exitDx=0;exitDy=0;strokeColor=#000000;" edge="1" parent="1" source="n116JVMDm5xwNgPDnoRn-467" target="-z9te3pbn1G7zqjihGLt-14">
          <mxGeometry width="50" height="50" relative="1" as="geometry">
            <mxPoint x="1660" y="720" as="sourcePoint" />
            <mxPoint x="1710" y="670" as="targetPoint" />
          </mxGeometry>
        </mxCell>
        <mxCell id="n116JVMDm5xwNgPDnoRn-473" value="" style="endArrow=none;html=1;rounded=0;strokeColor=#000000;" edge="1" parent="1">
          <mxGeometry width="50" height="50" relative="1" as="geometry">
            <mxPoint x="4760" y="3740" as="sourcePoint" />
            <mxPoint x="6410" y="1650" as="targetPoint" />
            <Array as="points">
              <mxPoint x="4760" y="3260" />
              <mxPoint x="3900" y="3260" />
              <mxPoint x="3900" y="1650" />
            </Array>
          </mxGeometry>
        </mxCell>
        <mxCell id="n116JVMDm5xwNgPDnoRn-474" value="offer" style="rhombus;whiteSpace=wrap;html=1;" vertex="1" parent="1">
          <mxGeometry x="4720" y="3740" width="80" height="80" as="geometry" />
        </mxCell>
        <mxCell id="n116JVMDm5xwNgPDnoRn-475" value="" style="endArrow=none;html=1;rounded=0;entryX=0.5;entryY=1;entryDx=0;entryDy=0;exitX=0;exitY=0.25;exitDx=0;exitDy=0;strokeColor=#000000;" edge="1" parent="1" source="n116JVMDm5xwNgPDnoRn-134" target="n116JVMDm5xwNgPDnoRn-474">
          <mxGeometry width="50" height="50" relative="1" as="geometry">
            <mxPoint x="5720" y="4440" as="sourcePoint" />
            <mxPoint x="5350" y="3690" as="targetPoint" />
            <Array as="points">
              <mxPoint x="4760" y="4385" />
            </Array>
          </mxGeometry>
        </mxCell>
      </root>
    </mxGraphModel>
  </diagram>
</mxfile>
